%
M48
M72
T01C0.01575
T02C0.01969
T03C0.02362
T04C0.03150
T05C0.03200
T06C0.03937
T07C0.04000
T08C0.04724
T09C0.12598
%
T01
X93241Y95715
X113320Y98077
X139025Y143550
T02
X12022Y24623
X54536Y24310
X95174Y24623
X129560Y49318
X154255Y24623
X203959Y24936
X293675Y24936
X293987Y65261
X245534Y89019
X199895Y77140
X192080Y93082
X170823Y99334
X134249Y150601
X160820Y177172
X135187Y195303
X220669Y188421
X227403Y203743
X263978Y202805
X284609Y198429
X285234Y182486
X290861Y167794
X246472Y181548
X293675Y129657
X393394Y130907
X393394Y184049
X362759Y211558
X393394Y48381
X366510Y24623
X49534Y210933
X12647Y178422
X18899Y92145
T03
X124520Y85208
X131395Y85208
X138270Y85208
X119986Y105752
X96228Y85745
T04
X165770Y80833
X205209Y100272
X295238Y77765
X387646Y55214
X387646Y65214
X387646Y75214
X387646Y85214
X387646Y95214
X387646Y105214
X297113Y137784
X227647Y195517
X186397Y195517
T05
X57966Y182709
X57966Y162709
X55770Y127708
X65770Y127708
X75770Y127708
X85770Y127708
X95770Y127708
X105770Y127708
X115770Y127708
X125770Y127708
X135770Y127708
X145770Y127708
X155770Y127708
X165770Y127708
X175770Y127708
X185770Y127708
X195770Y127708
X205770Y127708
X215770Y127708
X225770Y127708
X235770Y127708
X245770Y127708
X274520Y122708
X274520Y112708
X274520Y102708
X274520Y92708
X274520Y82708
X274520Y72708
X274520Y62708
X274520Y52708
X245770Y67708
X235770Y67708
X225770Y67708
X215770Y67708
X205770Y67708
X195770Y67708
X185770Y67708
X175770Y67708
X165770Y67708
X155770Y67708
X145770Y67708
X135770Y67708
X125770Y67708
X115770Y67708
X105770Y67708
X95770Y67708
X85770Y67708
X75770Y67708
X65770Y67708
X55770Y67708
X240744Y35533
X259744Y35533
X334520Y52708
X334520Y62708
X334520Y72708
X334520Y82708
X334520Y92708
X334520Y102708
X334520Y112708
X334520Y122708
X334520Y132708
X334520Y142708
X334520Y152708
X334520Y162708
X334520Y172708
X334520Y182708
X334520Y192708
X334520Y202708
X274520Y202708
X274520Y192708
X274520Y182708
X274520Y172708
X274520Y162708
X274520Y152708
X274520Y142708
X274520Y132708
X355770Y123958
X375770Y123958
X245147Y195517
X235147Y195517
X203897Y195517
X193897Y195517
X159210Y195205
X149210Y195205
T06
X22537Y108038
X40254Y108038
X47537Y120833
X40254Y133629
X22537Y133629
X65770Y135833
X75770Y135833
X85770Y135833
X95770Y135833
X105770Y135833
X115770Y135833
X125770Y135833
X135770Y135833
X145770Y138333
X155770Y138333
X165770Y138333
X175770Y135833
X185770Y135833
X195770Y135833
X205770Y135833
X215770Y135833
X225770Y135833
X235770Y135833
X245770Y135833
X348270Y165833
X334520Y42708
T07
X25145Y82708
X25145Y72708
X25145Y62708
X25145Y52708
X40145Y53333
X50145Y53333
X60145Y53333
X70145Y53333
X80145Y53333
X90145Y53333
X100145Y53333
X110145Y53333
X120145Y53333
X120145Y43333
X110145Y43333
X100145Y43333
X90145Y43333
X80145Y43333
X70145Y43333
X60145Y43333
X50145Y43333
X40145Y43333
X40145Y33333
X50145Y33333
X60145Y33333
X70145Y33333
X80145Y33333
X90145Y33333
X100145Y33333
X110145Y33333
X120145Y33333
X139520Y33333
X149520Y33333
X159520Y33333
X169520Y33333
X179520Y33333
X189520Y33333
X199520Y33333
X209520Y33333
X219520Y33333
X219520Y43333
X209520Y43333
X199520Y43333
X189520Y43333
X179520Y43333
X169520Y43333
X159520Y43333
X149520Y43333
X139520Y43333
X139520Y53333
X149520Y53333
X159520Y53333
X169520Y53333
X179520Y53333
X189520Y53333
X199520Y53333
X209520Y53333
X219520Y53333
X382647Y173955
X362647Y173955
X25145Y42708
X25145Y32708
T08
X25783Y162263
X25783Y172263
T09
X20775Y202805
X385266Y202805
X385892Y32125
M30
