G75*
%MOIN*%
%OFA0B0*%
%FSLAX25Y25*%
%IPPOS*%
%LPD*%
%AMOC8*
5,1,8,0,0,1.08239X$1,22.5*
%
%ADD10C,0.00000*%
%ADD11C,0.00800*%
%ADD12C,0.05400*%
%ADD13C,0.05400*%
%ADD14R,0.05500X0.03600*%
%ADD15R,0.08661X0.02362*%
%ADD16R,0.03600X0.05500*%
%ADD17OC8,0.05400*%
%ADD18C,0.06137*%
%ADD19C,0.06200*%
%ADD20C,0.04562*%
%ADD21C,0.05350*%
%ADD22C,0.06137*%
%ADD23C,0.10000*%
%ADD24OC8,0.10000*%
%ADD25C,0.07087*%
%ADD26C,0.01969*%
%ADD27C,0.04362*%
%ADD28C,0.03937*%
%ADD29C,0.02362*%
%ADD30C,0.01575*%
%ADD31C,0.00787*%
%ADD32R,0.03969X0.03969*%
%ADD33C,0.03969*%
%ADD34C,0.03150*%
%ADD35R,0.05150X0.05150*%
%ADD36C,0.01181*%
%ADD37C,0.03575*%
D10*
X0007139Y0019431D02*
X0007139Y0216158D01*
X0398782Y0216158D01*
X0398782Y0019431D01*
X0007139Y0019431D01*
X0014476Y0202805D02*
X0014478Y0202963D01*
X0014484Y0203121D01*
X0014494Y0203279D01*
X0014508Y0203437D01*
X0014526Y0203594D01*
X0014547Y0203751D01*
X0014573Y0203907D01*
X0014603Y0204063D01*
X0014636Y0204218D01*
X0014674Y0204371D01*
X0014715Y0204524D01*
X0014760Y0204676D01*
X0014809Y0204827D01*
X0014862Y0204976D01*
X0014918Y0205124D01*
X0014978Y0205270D01*
X0015042Y0205415D01*
X0015110Y0205558D01*
X0015181Y0205700D01*
X0015255Y0205840D01*
X0015333Y0205977D01*
X0015415Y0206113D01*
X0015499Y0206247D01*
X0015588Y0206378D01*
X0015679Y0206507D01*
X0015774Y0206634D01*
X0015871Y0206759D01*
X0015972Y0206881D01*
X0016076Y0207000D01*
X0016183Y0207117D01*
X0016293Y0207231D01*
X0016406Y0207342D01*
X0016521Y0207451D01*
X0016639Y0207556D01*
X0016760Y0207658D01*
X0016883Y0207758D01*
X0017009Y0207854D01*
X0017137Y0207947D01*
X0017267Y0208037D01*
X0017400Y0208123D01*
X0017535Y0208207D01*
X0017671Y0208286D01*
X0017810Y0208363D01*
X0017951Y0208435D01*
X0018093Y0208505D01*
X0018237Y0208570D01*
X0018383Y0208632D01*
X0018530Y0208690D01*
X0018679Y0208745D01*
X0018829Y0208796D01*
X0018980Y0208843D01*
X0019132Y0208886D01*
X0019285Y0208925D01*
X0019440Y0208961D01*
X0019595Y0208992D01*
X0019751Y0209020D01*
X0019907Y0209044D01*
X0020064Y0209064D01*
X0020222Y0209080D01*
X0020379Y0209092D01*
X0020538Y0209100D01*
X0020696Y0209104D01*
X0020854Y0209104D01*
X0021012Y0209100D01*
X0021171Y0209092D01*
X0021328Y0209080D01*
X0021486Y0209064D01*
X0021643Y0209044D01*
X0021799Y0209020D01*
X0021955Y0208992D01*
X0022110Y0208961D01*
X0022265Y0208925D01*
X0022418Y0208886D01*
X0022570Y0208843D01*
X0022721Y0208796D01*
X0022871Y0208745D01*
X0023020Y0208690D01*
X0023167Y0208632D01*
X0023313Y0208570D01*
X0023457Y0208505D01*
X0023599Y0208435D01*
X0023740Y0208363D01*
X0023879Y0208286D01*
X0024015Y0208207D01*
X0024150Y0208123D01*
X0024283Y0208037D01*
X0024413Y0207947D01*
X0024541Y0207854D01*
X0024667Y0207758D01*
X0024790Y0207658D01*
X0024911Y0207556D01*
X0025029Y0207451D01*
X0025144Y0207342D01*
X0025257Y0207231D01*
X0025367Y0207117D01*
X0025474Y0207000D01*
X0025578Y0206881D01*
X0025679Y0206759D01*
X0025776Y0206634D01*
X0025871Y0206507D01*
X0025962Y0206378D01*
X0026051Y0206247D01*
X0026135Y0206113D01*
X0026217Y0205977D01*
X0026295Y0205840D01*
X0026369Y0205700D01*
X0026440Y0205558D01*
X0026508Y0205415D01*
X0026572Y0205270D01*
X0026632Y0205124D01*
X0026688Y0204976D01*
X0026741Y0204827D01*
X0026790Y0204676D01*
X0026835Y0204524D01*
X0026876Y0204371D01*
X0026914Y0204218D01*
X0026947Y0204063D01*
X0026977Y0203907D01*
X0027003Y0203751D01*
X0027024Y0203594D01*
X0027042Y0203437D01*
X0027056Y0203279D01*
X0027066Y0203121D01*
X0027072Y0202963D01*
X0027074Y0202805D01*
X0027072Y0202647D01*
X0027066Y0202489D01*
X0027056Y0202331D01*
X0027042Y0202173D01*
X0027024Y0202016D01*
X0027003Y0201859D01*
X0026977Y0201703D01*
X0026947Y0201547D01*
X0026914Y0201392D01*
X0026876Y0201239D01*
X0026835Y0201086D01*
X0026790Y0200934D01*
X0026741Y0200783D01*
X0026688Y0200634D01*
X0026632Y0200486D01*
X0026572Y0200340D01*
X0026508Y0200195D01*
X0026440Y0200052D01*
X0026369Y0199910D01*
X0026295Y0199770D01*
X0026217Y0199633D01*
X0026135Y0199497D01*
X0026051Y0199363D01*
X0025962Y0199232D01*
X0025871Y0199103D01*
X0025776Y0198976D01*
X0025679Y0198851D01*
X0025578Y0198729D01*
X0025474Y0198610D01*
X0025367Y0198493D01*
X0025257Y0198379D01*
X0025144Y0198268D01*
X0025029Y0198159D01*
X0024911Y0198054D01*
X0024790Y0197952D01*
X0024667Y0197852D01*
X0024541Y0197756D01*
X0024413Y0197663D01*
X0024283Y0197573D01*
X0024150Y0197487D01*
X0024015Y0197403D01*
X0023879Y0197324D01*
X0023740Y0197247D01*
X0023599Y0197175D01*
X0023457Y0197105D01*
X0023313Y0197040D01*
X0023167Y0196978D01*
X0023020Y0196920D01*
X0022871Y0196865D01*
X0022721Y0196814D01*
X0022570Y0196767D01*
X0022418Y0196724D01*
X0022265Y0196685D01*
X0022110Y0196649D01*
X0021955Y0196618D01*
X0021799Y0196590D01*
X0021643Y0196566D01*
X0021486Y0196546D01*
X0021328Y0196530D01*
X0021171Y0196518D01*
X0021012Y0196510D01*
X0020854Y0196506D01*
X0020696Y0196506D01*
X0020538Y0196510D01*
X0020379Y0196518D01*
X0020222Y0196530D01*
X0020064Y0196546D01*
X0019907Y0196566D01*
X0019751Y0196590D01*
X0019595Y0196618D01*
X0019440Y0196649D01*
X0019285Y0196685D01*
X0019132Y0196724D01*
X0018980Y0196767D01*
X0018829Y0196814D01*
X0018679Y0196865D01*
X0018530Y0196920D01*
X0018383Y0196978D01*
X0018237Y0197040D01*
X0018093Y0197105D01*
X0017951Y0197175D01*
X0017810Y0197247D01*
X0017671Y0197324D01*
X0017535Y0197403D01*
X0017400Y0197487D01*
X0017267Y0197573D01*
X0017137Y0197663D01*
X0017009Y0197756D01*
X0016883Y0197852D01*
X0016760Y0197952D01*
X0016639Y0198054D01*
X0016521Y0198159D01*
X0016406Y0198268D01*
X0016293Y0198379D01*
X0016183Y0198493D01*
X0016076Y0198610D01*
X0015972Y0198729D01*
X0015871Y0198851D01*
X0015774Y0198976D01*
X0015679Y0199103D01*
X0015588Y0199232D01*
X0015499Y0199363D01*
X0015415Y0199497D01*
X0015333Y0199633D01*
X0015255Y0199770D01*
X0015181Y0199910D01*
X0015110Y0200052D01*
X0015042Y0200195D01*
X0014978Y0200340D01*
X0014918Y0200486D01*
X0014862Y0200634D01*
X0014809Y0200783D01*
X0014760Y0200934D01*
X0014715Y0201086D01*
X0014674Y0201239D01*
X0014636Y0201392D01*
X0014603Y0201547D01*
X0014573Y0201703D01*
X0014547Y0201859D01*
X0014526Y0202016D01*
X0014508Y0202173D01*
X0014494Y0202331D01*
X0014484Y0202489D01*
X0014478Y0202647D01*
X0014476Y0202805D01*
X0378967Y0202805D02*
X0378969Y0202963D01*
X0378975Y0203121D01*
X0378985Y0203279D01*
X0378999Y0203437D01*
X0379017Y0203594D01*
X0379038Y0203751D01*
X0379064Y0203907D01*
X0379094Y0204063D01*
X0379127Y0204218D01*
X0379165Y0204371D01*
X0379206Y0204524D01*
X0379251Y0204676D01*
X0379300Y0204827D01*
X0379353Y0204976D01*
X0379409Y0205124D01*
X0379469Y0205270D01*
X0379533Y0205415D01*
X0379601Y0205558D01*
X0379672Y0205700D01*
X0379746Y0205840D01*
X0379824Y0205977D01*
X0379906Y0206113D01*
X0379990Y0206247D01*
X0380079Y0206378D01*
X0380170Y0206507D01*
X0380265Y0206634D01*
X0380362Y0206759D01*
X0380463Y0206881D01*
X0380567Y0207000D01*
X0380674Y0207117D01*
X0380784Y0207231D01*
X0380897Y0207342D01*
X0381012Y0207451D01*
X0381130Y0207556D01*
X0381251Y0207658D01*
X0381374Y0207758D01*
X0381500Y0207854D01*
X0381628Y0207947D01*
X0381758Y0208037D01*
X0381891Y0208123D01*
X0382026Y0208207D01*
X0382162Y0208286D01*
X0382301Y0208363D01*
X0382442Y0208435D01*
X0382584Y0208505D01*
X0382728Y0208570D01*
X0382874Y0208632D01*
X0383021Y0208690D01*
X0383170Y0208745D01*
X0383320Y0208796D01*
X0383471Y0208843D01*
X0383623Y0208886D01*
X0383776Y0208925D01*
X0383931Y0208961D01*
X0384086Y0208992D01*
X0384242Y0209020D01*
X0384398Y0209044D01*
X0384555Y0209064D01*
X0384713Y0209080D01*
X0384870Y0209092D01*
X0385029Y0209100D01*
X0385187Y0209104D01*
X0385345Y0209104D01*
X0385503Y0209100D01*
X0385662Y0209092D01*
X0385819Y0209080D01*
X0385977Y0209064D01*
X0386134Y0209044D01*
X0386290Y0209020D01*
X0386446Y0208992D01*
X0386601Y0208961D01*
X0386756Y0208925D01*
X0386909Y0208886D01*
X0387061Y0208843D01*
X0387212Y0208796D01*
X0387362Y0208745D01*
X0387511Y0208690D01*
X0387658Y0208632D01*
X0387804Y0208570D01*
X0387948Y0208505D01*
X0388090Y0208435D01*
X0388231Y0208363D01*
X0388370Y0208286D01*
X0388506Y0208207D01*
X0388641Y0208123D01*
X0388774Y0208037D01*
X0388904Y0207947D01*
X0389032Y0207854D01*
X0389158Y0207758D01*
X0389281Y0207658D01*
X0389402Y0207556D01*
X0389520Y0207451D01*
X0389635Y0207342D01*
X0389748Y0207231D01*
X0389858Y0207117D01*
X0389965Y0207000D01*
X0390069Y0206881D01*
X0390170Y0206759D01*
X0390267Y0206634D01*
X0390362Y0206507D01*
X0390453Y0206378D01*
X0390542Y0206247D01*
X0390626Y0206113D01*
X0390708Y0205977D01*
X0390786Y0205840D01*
X0390860Y0205700D01*
X0390931Y0205558D01*
X0390999Y0205415D01*
X0391063Y0205270D01*
X0391123Y0205124D01*
X0391179Y0204976D01*
X0391232Y0204827D01*
X0391281Y0204676D01*
X0391326Y0204524D01*
X0391367Y0204371D01*
X0391405Y0204218D01*
X0391438Y0204063D01*
X0391468Y0203907D01*
X0391494Y0203751D01*
X0391515Y0203594D01*
X0391533Y0203437D01*
X0391547Y0203279D01*
X0391557Y0203121D01*
X0391563Y0202963D01*
X0391565Y0202805D01*
X0391563Y0202647D01*
X0391557Y0202489D01*
X0391547Y0202331D01*
X0391533Y0202173D01*
X0391515Y0202016D01*
X0391494Y0201859D01*
X0391468Y0201703D01*
X0391438Y0201547D01*
X0391405Y0201392D01*
X0391367Y0201239D01*
X0391326Y0201086D01*
X0391281Y0200934D01*
X0391232Y0200783D01*
X0391179Y0200634D01*
X0391123Y0200486D01*
X0391063Y0200340D01*
X0390999Y0200195D01*
X0390931Y0200052D01*
X0390860Y0199910D01*
X0390786Y0199770D01*
X0390708Y0199633D01*
X0390626Y0199497D01*
X0390542Y0199363D01*
X0390453Y0199232D01*
X0390362Y0199103D01*
X0390267Y0198976D01*
X0390170Y0198851D01*
X0390069Y0198729D01*
X0389965Y0198610D01*
X0389858Y0198493D01*
X0389748Y0198379D01*
X0389635Y0198268D01*
X0389520Y0198159D01*
X0389402Y0198054D01*
X0389281Y0197952D01*
X0389158Y0197852D01*
X0389032Y0197756D01*
X0388904Y0197663D01*
X0388774Y0197573D01*
X0388641Y0197487D01*
X0388506Y0197403D01*
X0388370Y0197324D01*
X0388231Y0197247D01*
X0388090Y0197175D01*
X0387948Y0197105D01*
X0387804Y0197040D01*
X0387658Y0196978D01*
X0387511Y0196920D01*
X0387362Y0196865D01*
X0387212Y0196814D01*
X0387061Y0196767D01*
X0386909Y0196724D01*
X0386756Y0196685D01*
X0386601Y0196649D01*
X0386446Y0196618D01*
X0386290Y0196590D01*
X0386134Y0196566D01*
X0385977Y0196546D01*
X0385819Y0196530D01*
X0385662Y0196518D01*
X0385503Y0196510D01*
X0385345Y0196506D01*
X0385187Y0196506D01*
X0385029Y0196510D01*
X0384870Y0196518D01*
X0384713Y0196530D01*
X0384555Y0196546D01*
X0384398Y0196566D01*
X0384242Y0196590D01*
X0384086Y0196618D01*
X0383931Y0196649D01*
X0383776Y0196685D01*
X0383623Y0196724D01*
X0383471Y0196767D01*
X0383320Y0196814D01*
X0383170Y0196865D01*
X0383021Y0196920D01*
X0382874Y0196978D01*
X0382728Y0197040D01*
X0382584Y0197105D01*
X0382442Y0197175D01*
X0382301Y0197247D01*
X0382162Y0197324D01*
X0382026Y0197403D01*
X0381891Y0197487D01*
X0381758Y0197573D01*
X0381628Y0197663D01*
X0381500Y0197756D01*
X0381374Y0197852D01*
X0381251Y0197952D01*
X0381130Y0198054D01*
X0381012Y0198159D01*
X0380897Y0198268D01*
X0380784Y0198379D01*
X0380674Y0198493D01*
X0380567Y0198610D01*
X0380463Y0198729D01*
X0380362Y0198851D01*
X0380265Y0198976D01*
X0380170Y0199103D01*
X0380079Y0199232D01*
X0379990Y0199363D01*
X0379906Y0199497D01*
X0379824Y0199633D01*
X0379746Y0199770D01*
X0379672Y0199910D01*
X0379601Y0200052D01*
X0379533Y0200195D01*
X0379469Y0200340D01*
X0379409Y0200486D01*
X0379353Y0200634D01*
X0379300Y0200783D01*
X0379251Y0200934D01*
X0379206Y0201086D01*
X0379165Y0201239D01*
X0379127Y0201392D01*
X0379094Y0201547D01*
X0379064Y0201703D01*
X0379038Y0201859D01*
X0379017Y0202016D01*
X0378999Y0202173D01*
X0378985Y0202331D01*
X0378975Y0202489D01*
X0378969Y0202647D01*
X0378967Y0202805D01*
X0379593Y0032125D02*
X0379595Y0032283D01*
X0379601Y0032441D01*
X0379611Y0032599D01*
X0379625Y0032757D01*
X0379643Y0032914D01*
X0379664Y0033071D01*
X0379690Y0033227D01*
X0379720Y0033383D01*
X0379753Y0033538D01*
X0379791Y0033691D01*
X0379832Y0033844D01*
X0379877Y0033996D01*
X0379926Y0034147D01*
X0379979Y0034296D01*
X0380035Y0034444D01*
X0380095Y0034590D01*
X0380159Y0034735D01*
X0380227Y0034878D01*
X0380298Y0035020D01*
X0380372Y0035160D01*
X0380450Y0035297D01*
X0380532Y0035433D01*
X0380616Y0035567D01*
X0380705Y0035698D01*
X0380796Y0035827D01*
X0380891Y0035954D01*
X0380988Y0036079D01*
X0381089Y0036201D01*
X0381193Y0036320D01*
X0381300Y0036437D01*
X0381410Y0036551D01*
X0381523Y0036662D01*
X0381638Y0036771D01*
X0381756Y0036876D01*
X0381877Y0036978D01*
X0382000Y0037078D01*
X0382126Y0037174D01*
X0382254Y0037267D01*
X0382384Y0037357D01*
X0382517Y0037443D01*
X0382652Y0037527D01*
X0382788Y0037606D01*
X0382927Y0037683D01*
X0383068Y0037755D01*
X0383210Y0037825D01*
X0383354Y0037890D01*
X0383500Y0037952D01*
X0383647Y0038010D01*
X0383796Y0038065D01*
X0383946Y0038116D01*
X0384097Y0038163D01*
X0384249Y0038206D01*
X0384402Y0038245D01*
X0384557Y0038281D01*
X0384712Y0038312D01*
X0384868Y0038340D01*
X0385024Y0038364D01*
X0385181Y0038384D01*
X0385339Y0038400D01*
X0385496Y0038412D01*
X0385655Y0038420D01*
X0385813Y0038424D01*
X0385971Y0038424D01*
X0386129Y0038420D01*
X0386288Y0038412D01*
X0386445Y0038400D01*
X0386603Y0038384D01*
X0386760Y0038364D01*
X0386916Y0038340D01*
X0387072Y0038312D01*
X0387227Y0038281D01*
X0387382Y0038245D01*
X0387535Y0038206D01*
X0387687Y0038163D01*
X0387838Y0038116D01*
X0387988Y0038065D01*
X0388137Y0038010D01*
X0388284Y0037952D01*
X0388430Y0037890D01*
X0388574Y0037825D01*
X0388716Y0037755D01*
X0388857Y0037683D01*
X0388996Y0037606D01*
X0389132Y0037527D01*
X0389267Y0037443D01*
X0389400Y0037357D01*
X0389530Y0037267D01*
X0389658Y0037174D01*
X0389784Y0037078D01*
X0389907Y0036978D01*
X0390028Y0036876D01*
X0390146Y0036771D01*
X0390261Y0036662D01*
X0390374Y0036551D01*
X0390484Y0036437D01*
X0390591Y0036320D01*
X0390695Y0036201D01*
X0390796Y0036079D01*
X0390893Y0035954D01*
X0390988Y0035827D01*
X0391079Y0035698D01*
X0391168Y0035567D01*
X0391252Y0035433D01*
X0391334Y0035297D01*
X0391412Y0035160D01*
X0391486Y0035020D01*
X0391557Y0034878D01*
X0391625Y0034735D01*
X0391689Y0034590D01*
X0391749Y0034444D01*
X0391805Y0034296D01*
X0391858Y0034147D01*
X0391907Y0033996D01*
X0391952Y0033844D01*
X0391993Y0033691D01*
X0392031Y0033538D01*
X0392064Y0033383D01*
X0392094Y0033227D01*
X0392120Y0033071D01*
X0392141Y0032914D01*
X0392159Y0032757D01*
X0392173Y0032599D01*
X0392183Y0032441D01*
X0392189Y0032283D01*
X0392191Y0032125D01*
X0392189Y0031967D01*
X0392183Y0031809D01*
X0392173Y0031651D01*
X0392159Y0031493D01*
X0392141Y0031336D01*
X0392120Y0031179D01*
X0392094Y0031023D01*
X0392064Y0030867D01*
X0392031Y0030712D01*
X0391993Y0030559D01*
X0391952Y0030406D01*
X0391907Y0030254D01*
X0391858Y0030103D01*
X0391805Y0029954D01*
X0391749Y0029806D01*
X0391689Y0029660D01*
X0391625Y0029515D01*
X0391557Y0029372D01*
X0391486Y0029230D01*
X0391412Y0029090D01*
X0391334Y0028953D01*
X0391252Y0028817D01*
X0391168Y0028683D01*
X0391079Y0028552D01*
X0390988Y0028423D01*
X0390893Y0028296D01*
X0390796Y0028171D01*
X0390695Y0028049D01*
X0390591Y0027930D01*
X0390484Y0027813D01*
X0390374Y0027699D01*
X0390261Y0027588D01*
X0390146Y0027479D01*
X0390028Y0027374D01*
X0389907Y0027272D01*
X0389784Y0027172D01*
X0389658Y0027076D01*
X0389530Y0026983D01*
X0389400Y0026893D01*
X0389267Y0026807D01*
X0389132Y0026723D01*
X0388996Y0026644D01*
X0388857Y0026567D01*
X0388716Y0026495D01*
X0388574Y0026425D01*
X0388430Y0026360D01*
X0388284Y0026298D01*
X0388137Y0026240D01*
X0387988Y0026185D01*
X0387838Y0026134D01*
X0387687Y0026087D01*
X0387535Y0026044D01*
X0387382Y0026005D01*
X0387227Y0025969D01*
X0387072Y0025938D01*
X0386916Y0025910D01*
X0386760Y0025886D01*
X0386603Y0025866D01*
X0386445Y0025850D01*
X0386288Y0025838D01*
X0386129Y0025830D01*
X0385971Y0025826D01*
X0385813Y0025826D01*
X0385655Y0025830D01*
X0385496Y0025838D01*
X0385339Y0025850D01*
X0385181Y0025866D01*
X0385024Y0025886D01*
X0384868Y0025910D01*
X0384712Y0025938D01*
X0384557Y0025969D01*
X0384402Y0026005D01*
X0384249Y0026044D01*
X0384097Y0026087D01*
X0383946Y0026134D01*
X0383796Y0026185D01*
X0383647Y0026240D01*
X0383500Y0026298D01*
X0383354Y0026360D01*
X0383210Y0026425D01*
X0383068Y0026495D01*
X0382927Y0026567D01*
X0382788Y0026644D01*
X0382652Y0026723D01*
X0382517Y0026807D01*
X0382384Y0026893D01*
X0382254Y0026983D01*
X0382126Y0027076D01*
X0382000Y0027172D01*
X0381877Y0027272D01*
X0381756Y0027374D01*
X0381638Y0027479D01*
X0381523Y0027588D01*
X0381410Y0027699D01*
X0381300Y0027813D01*
X0381193Y0027930D01*
X0381089Y0028049D01*
X0380988Y0028171D01*
X0380891Y0028296D01*
X0380796Y0028423D01*
X0380705Y0028552D01*
X0380616Y0028683D01*
X0380532Y0028817D01*
X0380450Y0028953D01*
X0380372Y0029090D01*
X0380298Y0029230D01*
X0380227Y0029372D01*
X0380159Y0029515D01*
X0380095Y0029660D01*
X0380035Y0029806D01*
X0379979Y0029954D01*
X0379926Y0030103D01*
X0379877Y0030254D01*
X0379832Y0030406D01*
X0379791Y0030559D01*
X0379753Y0030712D01*
X0379720Y0030867D01*
X0379690Y0031023D01*
X0379664Y0031179D01*
X0379643Y0031336D01*
X0379625Y0031493D01*
X0379611Y0031651D01*
X0379601Y0031809D01*
X0379595Y0031967D01*
X0379593Y0032125D01*
D11*
X0102833Y0204344D02*
X0102032Y0204344D01*
X0101231Y0205145D01*
X0101231Y0209149D01*
X0101231Y0205946D02*
X0103634Y0205946D01*
X0104434Y0206747D01*
X0104434Y0209149D01*
X0106388Y0209149D02*
X0107189Y0208348D01*
X0109591Y0208348D01*
X0109591Y0210750D02*
X0107189Y0210750D01*
X0106388Y0209949D01*
X0106388Y0209149D01*
X0107189Y0208348D02*
X0106388Y0207547D01*
X0106388Y0206747D01*
X0107189Y0205946D01*
X0109591Y0205946D01*
X0109591Y0210750D01*
X0116701Y0209949D02*
X0116701Y0209149D01*
X0117501Y0208348D01*
X0119903Y0208348D01*
X0117501Y0208348D02*
X0116701Y0207547D01*
X0116701Y0206747D01*
X0117501Y0205946D01*
X0119903Y0205946D01*
X0119903Y0210750D01*
X0117501Y0210750D01*
X0116701Y0209949D01*
X0121857Y0209949D02*
X0122658Y0210750D01*
X0124259Y0210750D01*
X0125060Y0209949D01*
X0125060Y0206747D01*
X0124259Y0205946D01*
X0122658Y0205946D01*
X0121857Y0206747D01*
X0127013Y0208348D02*
X0127814Y0207547D01*
X0130216Y0207547D01*
X0130216Y0205946D02*
X0130216Y0210750D01*
X0127814Y0210750D01*
X0127013Y0209949D01*
X0127013Y0208348D01*
X0094121Y0210750D02*
X0094121Y0205946D01*
X0092520Y0207547D01*
X0090919Y0205946D01*
X0090919Y0210750D01*
X0088965Y0208348D02*
X0088164Y0209149D01*
X0086563Y0209149D01*
X0085762Y0208348D01*
X0085762Y0207547D01*
X0088965Y0207547D01*
X0088965Y0206747D02*
X0088965Y0208348D01*
X0088965Y0206747D02*
X0088164Y0205946D01*
X0086563Y0205946D01*
X0083809Y0205946D02*
X0081407Y0205946D01*
X0080606Y0206747D01*
X0081407Y0207547D01*
X0083008Y0207547D01*
X0083809Y0208348D01*
X0083008Y0209149D01*
X0080606Y0209149D01*
X0078652Y0209149D02*
X0077051Y0209149D01*
X0077852Y0209949D02*
X0077852Y0206747D01*
X0077051Y0205946D01*
X0074414Y0205946D02*
X0074414Y0209949D01*
X0073613Y0210750D01*
X0071777Y0210750D02*
X0071777Y0205946D01*
X0070176Y0207547D01*
X0068574Y0205946D01*
X0068574Y0210750D01*
X0073613Y0208348D02*
X0075215Y0208348D01*
D12*
X0075770Y0129058D02*
X0075770Y0126358D01*
X0065770Y0126358D02*
X0065770Y0129058D01*
X0055770Y0129058D02*
X0055770Y0126358D01*
X0085770Y0126358D02*
X0085770Y0129058D01*
X0095770Y0129058D02*
X0095770Y0126358D01*
X0105770Y0126358D02*
X0105770Y0129058D01*
X0115770Y0129058D02*
X0115770Y0126358D01*
X0125770Y0126358D02*
X0125770Y0129058D01*
X0135770Y0129058D02*
X0135770Y0126358D01*
X0145770Y0126358D02*
X0145770Y0129058D01*
X0155770Y0129058D02*
X0155770Y0126358D01*
X0165770Y0126358D02*
X0165770Y0129058D01*
X0175770Y0129058D02*
X0175770Y0126358D01*
X0185770Y0126358D02*
X0185770Y0129058D01*
X0195770Y0129058D02*
X0195770Y0126358D01*
X0205770Y0126358D02*
X0205770Y0129058D01*
X0215770Y0129058D02*
X0215770Y0126358D01*
X0225770Y0126358D02*
X0225770Y0129058D01*
X0235770Y0129058D02*
X0235770Y0126358D01*
X0245770Y0126358D02*
X0245770Y0129058D01*
X0273170Y0132708D02*
X0275870Y0132708D01*
X0275870Y0122708D02*
X0273170Y0122708D01*
X0273170Y0112708D02*
X0275870Y0112708D01*
X0275870Y0102708D02*
X0273170Y0102708D01*
X0273170Y0092708D02*
X0275870Y0092708D01*
X0275870Y0082708D02*
X0273170Y0082708D01*
X0273170Y0072708D02*
X0275870Y0072708D01*
X0275870Y0062708D02*
X0273170Y0062708D01*
X0273170Y0052708D02*
X0275870Y0052708D01*
X0245770Y0066358D02*
X0245770Y0069058D01*
X0235770Y0069058D02*
X0235770Y0066358D01*
X0225770Y0066358D02*
X0225770Y0069058D01*
X0215770Y0069058D02*
X0215770Y0066358D01*
X0205770Y0066358D02*
X0205770Y0069058D01*
X0195770Y0069058D02*
X0195770Y0066358D01*
X0185770Y0066358D02*
X0185770Y0069058D01*
X0175770Y0069058D02*
X0175770Y0066358D01*
X0165770Y0066358D02*
X0165770Y0069058D01*
X0155770Y0069058D02*
X0155770Y0066358D01*
X0145770Y0066358D02*
X0145770Y0069058D01*
X0135770Y0069058D02*
X0135770Y0066358D01*
X0125770Y0066358D02*
X0125770Y0069058D01*
X0115770Y0069058D02*
X0115770Y0066358D01*
X0105770Y0066358D02*
X0105770Y0069058D01*
X0095770Y0069058D02*
X0095770Y0066358D01*
X0085770Y0066358D02*
X0085770Y0069058D01*
X0075770Y0069058D02*
X0075770Y0066358D01*
X0065770Y0066358D02*
X0065770Y0069058D01*
X0055770Y0069058D02*
X0055770Y0066358D01*
X0273170Y0142708D02*
X0275870Y0142708D01*
X0275870Y0152708D02*
X0273170Y0152708D01*
X0273170Y0162708D02*
X0275870Y0162708D01*
X0275870Y0172708D02*
X0273170Y0172708D01*
X0273170Y0182708D02*
X0275870Y0182708D01*
X0275870Y0192708D02*
X0273170Y0192708D01*
X0273170Y0202708D02*
X0275870Y0202708D01*
X0333170Y0202708D02*
X0335870Y0202708D01*
X0335870Y0192708D02*
X0333170Y0192708D01*
X0333170Y0182708D02*
X0335870Y0182708D01*
X0335870Y0172708D02*
X0333170Y0172708D01*
X0333170Y0162708D02*
X0335870Y0162708D01*
X0335870Y0152708D02*
X0333170Y0152708D01*
X0333170Y0142708D02*
X0335870Y0142708D01*
X0335870Y0132708D02*
X0333170Y0132708D01*
X0333170Y0122708D02*
X0335870Y0122708D01*
X0335870Y0112708D02*
X0333170Y0112708D01*
X0333170Y0102708D02*
X0335870Y0102708D01*
X0335870Y0092708D02*
X0333170Y0092708D01*
X0333170Y0082708D02*
X0335870Y0082708D01*
X0335870Y0072708D02*
X0333170Y0072708D01*
X0333170Y0062708D02*
X0335870Y0062708D01*
X0335870Y0052708D02*
X0333170Y0052708D01*
D13*
X0259744Y0035533D03*
X0240744Y0035533D03*
D14*
X0241395Y0041687D03*
X0241395Y0049980D03*
X0260145Y0049980D03*
X0260145Y0041687D03*
X0069833Y0102487D03*
X0069833Y0109180D03*
X0059208Y0109180D03*
X0059208Y0102487D03*
X0166710Y0188733D03*
X0166710Y0195426D03*
X0211397Y0195114D03*
X0211397Y0188421D03*
X0252647Y0188421D03*
X0252647Y0195114D03*
D15*
X0106007Y0098958D03*
X0106007Y0093958D03*
X0106007Y0088958D03*
X0106007Y0083958D03*
X0085534Y0083958D03*
X0085534Y0088958D03*
X0085534Y0093958D03*
X0085534Y0098958D03*
D16*
X0084436Y0108333D03*
X0092729Y0108333D03*
X0036631Y0096583D03*
X0029938Y0096583D03*
X0313688Y0202589D03*
X0321981Y0202589D03*
D17*
X0245147Y0195517D03*
X0235147Y0195517D03*
X0203897Y0195517D03*
X0193897Y0195517D03*
X0159210Y0195205D03*
X0149210Y0195205D03*
X0057966Y0182709D03*
X0057966Y0162709D03*
X0355770Y0123958D03*
X0375770Y0123958D03*
D18*
X0348270Y0165833D03*
X0245770Y0135833D03*
X0235770Y0135833D03*
X0225770Y0135833D03*
X0215770Y0135833D03*
X0205770Y0135833D03*
X0195770Y0135833D03*
X0185770Y0135833D03*
X0175770Y0135833D03*
X0165770Y0138333D03*
X0155770Y0138333D03*
X0145770Y0138333D03*
X0135770Y0135833D03*
X0125770Y0135833D03*
X0115770Y0135833D03*
X0105770Y0135833D03*
X0095770Y0135833D03*
X0085770Y0135833D03*
X0075770Y0135833D03*
X0065770Y0135833D03*
X0047537Y0120833D03*
X0334520Y0042708D03*
D19*
X0219520Y0041783D02*
X0219520Y0044883D01*
X0209520Y0044883D02*
X0209520Y0041783D01*
X0209520Y0034883D02*
X0209520Y0031783D01*
X0219520Y0031783D02*
X0219520Y0034883D01*
X0199520Y0034883D02*
X0199520Y0031783D01*
X0189520Y0031783D02*
X0189520Y0034883D01*
X0179520Y0034883D02*
X0179520Y0031783D01*
X0169520Y0031783D02*
X0169520Y0034883D01*
X0159520Y0034883D02*
X0159520Y0031783D01*
X0149520Y0031783D02*
X0149520Y0034883D01*
X0139520Y0034883D02*
X0139520Y0031783D01*
X0139520Y0041783D02*
X0139520Y0044883D01*
X0149520Y0044883D02*
X0149520Y0041783D01*
X0159520Y0041783D02*
X0159520Y0044883D01*
X0169520Y0044883D02*
X0169520Y0041783D01*
X0179520Y0041783D02*
X0179520Y0044883D01*
X0189520Y0044883D02*
X0189520Y0041783D01*
X0199520Y0041783D02*
X0199520Y0044883D01*
X0199520Y0051783D02*
X0199520Y0054883D01*
X0189520Y0054883D02*
X0189520Y0051783D01*
X0179520Y0051783D02*
X0179520Y0054883D01*
X0169520Y0054883D02*
X0169520Y0051783D01*
X0159520Y0051783D02*
X0159520Y0054883D01*
X0149520Y0054883D02*
X0149520Y0051783D01*
X0139520Y0051783D02*
X0139520Y0054883D01*
X0120145Y0054883D02*
X0120145Y0051783D01*
X0110145Y0051783D02*
X0110145Y0054883D01*
X0100145Y0054883D02*
X0100145Y0051783D01*
X0100145Y0044883D02*
X0100145Y0041783D01*
X0110145Y0041783D02*
X0110145Y0044883D01*
X0120145Y0044883D02*
X0120145Y0041783D01*
X0120145Y0034883D02*
X0120145Y0031783D01*
X0110145Y0031783D02*
X0110145Y0034883D01*
X0100145Y0034883D02*
X0100145Y0031783D01*
X0090145Y0031783D02*
X0090145Y0034883D01*
X0080145Y0034883D02*
X0080145Y0031783D01*
X0070145Y0031783D02*
X0070145Y0034883D01*
X0070145Y0041783D02*
X0070145Y0044883D01*
X0080145Y0044883D02*
X0080145Y0041783D01*
X0090145Y0041783D02*
X0090145Y0044883D01*
X0090145Y0051783D02*
X0090145Y0054883D01*
X0080145Y0054883D02*
X0080145Y0051783D01*
X0070145Y0051783D02*
X0070145Y0054883D01*
X0060145Y0054883D02*
X0060145Y0051783D01*
X0050145Y0051783D02*
X0050145Y0054883D01*
X0040145Y0054883D02*
X0040145Y0051783D01*
X0040145Y0044883D02*
X0040145Y0041783D01*
X0050145Y0041783D02*
X0050145Y0044883D01*
X0060145Y0044883D02*
X0060145Y0041783D01*
X0060145Y0034883D02*
X0060145Y0031783D01*
X0050145Y0031783D02*
X0050145Y0034883D01*
X0040145Y0034883D02*
X0040145Y0031783D01*
X0026695Y0032708D02*
X0023595Y0032708D01*
X0023595Y0042708D02*
X0026695Y0042708D01*
X0026695Y0052708D02*
X0023595Y0052708D01*
X0023595Y0062708D02*
X0026695Y0062708D01*
X0026695Y0072708D02*
X0023595Y0072708D01*
X0023595Y0082708D02*
X0026695Y0082708D01*
X0209520Y0054883D02*
X0209520Y0051783D01*
X0219520Y0051783D02*
X0219520Y0054883D01*
D20*
X0138270Y0085208D03*
X0131395Y0085208D03*
X0124520Y0085208D03*
D21*
X0165770Y0080833D03*
X0186397Y0195517D03*
X0227647Y0195517D03*
X0387646Y0105214D03*
X0387646Y0095214D03*
X0387646Y0085214D03*
X0387646Y0075214D03*
X0387646Y0065214D03*
X0387646Y0055214D03*
D22*
X0040254Y0106504D02*
X0040254Y0109572D01*
X0022537Y0109572D02*
X0022537Y0106504D01*
X0022537Y0132094D02*
X0022537Y0135163D01*
X0040254Y0135163D02*
X0040254Y0132094D01*
D23*
X0382647Y0173955D03*
D24*
X0362647Y0173955D03*
D25*
X0025783Y0172263D03*
X0025783Y0162263D03*
D26*
X0093241Y0109888D02*
X0092729Y0108333D01*
X0096228Y0085745D02*
X0099863Y0083704D01*
X0099865Y0083727D01*
X0099870Y0083750D01*
X0099878Y0083773D01*
X0099889Y0083793D01*
X0099903Y0083812D01*
X0099920Y0083829D01*
X0099939Y0083843D01*
X0099959Y0083854D01*
X0099982Y0083862D01*
X0100005Y0083867D01*
X0100028Y0083869D01*
X0100028Y0083870D02*
X0105643Y0083870D01*
X0106007Y0083958D01*
X0029938Y0096583D02*
X0028871Y0095125D01*
X0028871Y0093944D01*
X0025328Y0090400D01*
X0022965Y0090400D01*
X0017650Y0085085D01*
X0017650Y0040203D01*
X0024737Y0033117D01*
X0025145Y0032708D01*
X0149210Y0195205D02*
X0149343Y0195518D01*
X0162335Y0208510D01*
X0287532Y0208510D01*
X0355770Y0123958D02*
X0355446Y0123471D01*
X0334776Y0102802D01*
X0334520Y0102708D01*
D27*
X0119986Y0105752D03*
X0096228Y0085745D03*
D28*
X0095770Y0067708D02*
X0090145Y0053333D01*
X0089547Y0040878D01*
X0090145Y0043333D01*
X0090145Y0033333D01*
X0080145Y0033333D02*
X0080145Y0043333D01*
X0080145Y0053333D01*
X0085770Y0067708D01*
X0075770Y0067708D02*
X0070791Y0055883D01*
X0070145Y0053333D01*
X0070145Y0043333D01*
X0070145Y0033333D01*
X0060145Y0033333D02*
X0060145Y0043333D01*
X0060145Y0053333D01*
X0065770Y0067708D01*
X0055770Y0067708D02*
X0050159Y0056508D01*
X0050145Y0053333D01*
X0050145Y0043333D01*
X0050145Y0033333D01*
X0100145Y0033333D02*
X0100145Y0043333D01*
X0100145Y0053333D01*
X0105770Y0067708D01*
X0115770Y0067708D02*
X0110145Y0053333D01*
X0110145Y0043333D01*
X0110145Y0033333D01*
X0120145Y0033333D02*
X0120145Y0043333D01*
X0120145Y0053333D01*
X0125770Y0067708D01*
X0139520Y0053333D02*
X0145770Y0067708D01*
X0155770Y0067708D02*
X0149520Y0053333D01*
X0149520Y0043333D01*
X0149520Y0033333D01*
X0139520Y0033333D02*
X0139520Y0043333D01*
X0139520Y0053333D01*
X0159520Y0053333D02*
X0159520Y0043333D01*
X0159520Y0033333D01*
X0169520Y0033333D02*
X0169520Y0043333D01*
X0169520Y0053333D01*
X0175770Y0067708D01*
X0165770Y0067708D02*
X0159520Y0053333D01*
X0179520Y0053333D02*
X0179520Y0043333D01*
X0179520Y0033333D01*
X0189520Y0033333D02*
X0189520Y0043333D01*
X0189520Y0053333D01*
X0195770Y0067708D01*
X0205770Y0067708D02*
X0199520Y0053333D01*
X0199520Y0043333D01*
X0200207Y0045255D01*
X0199520Y0033333D01*
X0209520Y0033333D02*
X0209520Y0043333D01*
X0209520Y0053333D01*
X0215770Y0067708D01*
X0219520Y0053333D02*
X0219520Y0043333D01*
X0219520Y0033333D01*
X0179520Y0053333D02*
X0185770Y0067708D01*
X0059208Y0109180D02*
X0055770Y0112617D01*
X0055770Y0127708D01*
X0287532Y0208510D02*
X0288236Y0207807D01*
X0301490Y0207807D01*
X0306708Y0202589D01*
X0313688Y0202589D01*
X0313688Y0206251D01*
X0318995Y0211558D01*
X0351506Y0211558D01*
X0359008Y0204055D01*
X0359008Y0186571D01*
X0362647Y0173955D01*
X0334520Y0202589D02*
X0321981Y0202589D01*
X0334520Y0202589D02*
X0334520Y0202708D01*
D29*
X0255850Y0188425D02*
X0252652Y0188425D01*
X0252647Y0188421D01*
X0255846Y0188421D01*
X0255850Y0188425D01*
X0252647Y0188421D02*
X0220669Y0188421D01*
X0211397Y0188421D01*
X0211085Y0188733D01*
X0166710Y0188733D01*
X0126434Y0150288D02*
X0071950Y0150288D01*
X0067619Y0154619D01*
X0057966Y0162709D01*
X0084436Y0108333D02*
X0085534Y0106297D01*
X0085534Y0098958D01*
D30*
X0084436Y0108333D02*
X0084970Y0109180D01*
X0069833Y0109180D01*
X0059208Y0109180D01*
X0040254Y0108038D02*
X0040254Y0100206D01*
X0036631Y0096583D01*
X0175770Y0135833D02*
X0175770Y0147108D01*
X0204584Y0175921D01*
X0252724Y0175921D01*
X0264290Y0187488D01*
X0316807Y0187488D01*
X0321496Y0192177D01*
X0333989Y0192177D01*
X0334520Y0192708D01*
X0346504Y0198429D02*
X0346504Y0185299D01*
X0335681Y0181548D02*
X0334520Y0182708D01*
X0326498Y0162792D02*
X0310242Y0177797D01*
X0265853Y0177797D01*
X0254600Y0166543D01*
X0207710Y0166543D01*
X0195770Y0154604D01*
X0195770Y0135833D01*
X0205770Y0135833D02*
X0205770Y0157727D01*
X0210836Y0162792D01*
X0256475Y0162792D01*
X0267104Y0173421D01*
X0273808Y0173421D01*
X0274520Y0172708D01*
X0290861Y0167794D02*
X0310868Y0167794D01*
X0325873Y0152789D01*
X0334440Y0152789D01*
X0334520Y0152708D01*
X0323997Y0145287D02*
X0323997Y0139035D01*
X0330249Y0132783D01*
X0334446Y0132783D01*
X0334520Y0132708D01*
X0318995Y0124030D02*
X0329624Y0113401D01*
X0333827Y0113401D01*
X0334520Y0112708D01*
X0318995Y0124030D02*
X0318995Y0143411D01*
X0315244Y0147787D01*
X0265853Y0147787D01*
X0260227Y0152789D01*
X0232092Y0152789D01*
X0225770Y0146467D01*
X0225770Y0127708D01*
X0215770Y0135833D02*
X0215770Y0150847D01*
X0222714Y0157791D01*
X0311493Y0157791D01*
X0323997Y0145287D01*
X0297113Y0137784D02*
X0267729Y0137784D01*
X0261477Y0144036D01*
X0240220Y0144036D01*
X0235770Y0139587D01*
X0235770Y0135833D01*
X0206459Y0171545D02*
X0185770Y0150856D01*
X0185770Y0135833D01*
X0206459Y0171545D02*
X0253974Y0171545D01*
X0265853Y0183424D01*
X0273805Y0183424D01*
X0274520Y0182708D01*
X0274520Y0192708D02*
X0266572Y0192708D01*
X0263978Y0195303D01*
X0263978Y0202708D01*
X0263978Y0202805D01*
X0263978Y0202708D01*
X0274520Y0202708D01*
X0326498Y0162792D02*
X0334437Y0162792D01*
X0334520Y0162708D01*
X0295238Y0077765D02*
X0295238Y0077765D01*
X0260226Y0050243D02*
X0245770Y0050243D01*
X0245770Y0067708D01*
X0245770Y0050243D02*
X0241658Y0050243D01*
X0241395Y0049980D01*
X0245770Y0050243D02*
X0260226Y0050243D01*
D31*
X0260539Y0050157D02*
X0269964Y0050157D01*
X0270048Y0050041D02*
X0270504Y0049586D01*
X0271025Y0049207D01*
X0271599Y0048915D01*
X0272212Y0048715D01*
X0272848Y0048615D01*
X0274127Y0048615D01*
X0274127Y0052315D01*
X0269088Y0052315D01*
X0269178Y0051750D01*
X0269377Y0051137D01*
X0269669Y0050563D01*
X0270048Y0050041D01*
X0270799Y0049371D02*
X0264289Y0049371D01*
X0264289Y0049586D02*
X0264289Y0047996D01*
X0264194Y0047642D01*
X0264011Y0047324D01*
X0263751Y0047065D01*
X0263433Y0046881D01*
X0263079Y0046786D01*
X0260539Y0046786D01*
X0260539Y0049586D01*
X0259752Y0049586D01*
X0259752Y0046786D01*
X0257212Y0046786D01*
X0256858Y0046881D01*
X0256540Y0047065D01*
X0256280Y0047324D01*
X0256097Y0047642D01*
X0256002Y0047996D01*
X0256002Y0049586D01*
X0259752Y0049586D01*
X0259752Y0050373D01*
X0256002Y0050373D01*
X0256002Y0051963D01*
X0256097Y0052318D01*
X0256280Y0052636D01*
X0256540Y0052895D01*
X0256858Y0053078D01*
X0257212Y0053173D01*
X0259752Y0053173D01*
X0259752Y0050374D01*
X0260539Y0050374D01*
X0260539Y0053173D01*
X0263079Y0053173D01*
X0263433Y0053078D01*
X0263751Y0052895D01*
X0264011Y0052636D01*
X0264194Y0052318D01*
X0264289Y0051963D01*
X0264289Y0050373D01*
X0260539Y0050373D01*
X0260539Y0049586D01*
X0264289Y0049586D01*
X0264289Y0048585D02*
X0330926Y0048585D01*
X0330526Y0048751D02*
X0332242Y0048040D01*
X0336799Y0048040D01*
X0338515Y0048751D01*
X0339828Y0050064D01*
X0340539Y0051780D01*
X0340539Y0053637D01*
X0339828Y0055353D01*
X0338515Y0056666D01*
X0336799Y0057377D01*
X0332999Y0057377D01*
X0332336Y0058040D01*
X0336799Y0058040D01*
X0338515Y0058751D01*
X0339828Y0060064D01*
X0340539Y0061780D01*
X0340539Y0063637D01*
X0339828Y0065353D01*
X0338515Y0066666D01*
X0336799Y0067377D01*
X0332242Y0067377D01*
X0330569Y0066684D01*
X0317803Y0079450D01*
X0317803Y0081590D01*
X0328854Y0070539D01*
X0329049Y0070458D01*
X0329213Y0070064D01*
X0330526Y0068751D01*
X0332242Y0068040D01*
X0336799Y0068040D01*
X0338515Y0068751D01*
X0339828Y0070064D01*
X0340539Y0071780D01*
X0340539Y0073637D01*
X0339828Y0075353D01*
X0338515Y0076666D01*
X0336799Y0077377D01*
X0332242Y0077377D01*
X0330526Y0076666D01*
X0330246Y0076386D01*
X0326482Y0080149D01*
X0329177Y0080149D01*
X0329213Y0080064D01*
X0330526Y0078751D01*
X0332242Y0078040D01*
X0336799Y0078040D01*
X0338515Y0078751D01*
X0339828Y0080064D01*
X0340539Y0081780D01*
X0340539Y0083637D01*
X0339828Y0085353D01*
X0338515Y0086666D01*
X0336799Y0087377D01*
X0332242Y0087377D01*
X0330526Y0086666D01*
X0329213Y0085353D01*
X0329177Y0085267D01*
X0326991Y0085267D01*
X0322109Y0090149D01*
X0329177Y0090149D01*
X0329213Y0090064D01*
X0330526Y0088751D01*
X0332242Y0088040D01*
X0336799Y0088040D01*
X0338515Y0088751D01*
X0339828Y0090064D01*
X0340539Y0091780D01*
X0340539Y0093637D01*
X0339828Y0095353D01*
X0338515Y0096666D01*
X0336799Y0097377D01*
X0332242Y0097377D01*
X0330526Y0096666D01*
X0329213Y0095353D01*
X0329177Y0095267D01*
X0321992Y0095267D01*
X0287309Y0129950D01*
X0286369Y0130340D01*
X0279943Y0130340D01*
X0280539Y0131780D01*
X0280539Y0133637D01*
X0279963Y0135028D01*
X0292570Y0135028D01*
X0292570Y0134394D01*
X0293723Y0133241D01*
X0300503Y0133241D01*
X0301657Y0134394D01*
X0301657Y0141174D01*
X0300503Y0142327D01*
X0293723Y0142327D01*
X0292570Y0141174D01*
X0292570Y0140540D01*
X0280025Y0140540D01*
X0280539Y0141780D01*
X0280539Y0143637D01*
X0279961Y0145031D01*
X0313977Y0145031D01*
X0316239Y0142391D01*
X0316239Y0123482D01*
X0316659Y0122469D01*
X0327287Y0111840D01*
X0328063Y0111065D01*
X0328950Y0110697D01*
X0329213Y0110064D01*
X0330526Y0108751D01*
X0332242Y0108040D01*
X0336799Y0108040D01*
X0338515Y0108751D01*
X0339828Y0110064D01*
X0340539Y0111780D01*
X0340539Y0113637D01*
X0339828Y0115353D01*
X0338515Y0116666D01*
X0336799Y0117377D01*
X0332242Y0117377D01*
X0330526Y0116666D01*
X0330391Y0116531D01*
X0321751Y0125171D01*
X0321751Y0137383D01*
X0328688Y0130446D01*
X0329130Y0130263D01*
X0329213Y0130064D01*
X0330526Y0128751D01*
X0332242Y0128040D01*
X0336799Y0128040D01*
X0338515Y0128751D01*
X0339828Y0130064D01*
X0340539Y0131780D01*
X0340539Y0133637D01*
X0339828Y0135353D01*
X0338515Y0136666D01*
X0336799Y0137377D01*
X0332242Y0137377D01*
X0330526Y0136666D01*
X0330394Y0136534D01*
X0326753Y0140176D01*
X0326753Y0145835D01*
X0326333Y0146848D01*
X0325558Y0147623D01*
X0313054Y0160127D01*
X0312041Y0160546D01*
X0280028Y0160546D01*
X0280539Y0161780D01*
X0280539Y0163637D01*
X0279828Y0165353D01*
X0278515Y0166666D01*
X0276799Y0167377D01*
X0272242Y0167377D01*
X0270526Y0166666D01*
X0269213Y0165353D01*
X0268502Y0163637D01*
X0268502Y0161780D01*
X0269013Y0160546D01*
X0258127Y0160546D01*
X0268245Y0170665D01*
X0268964Y0170665D01*
X0269213Y0170064D01*
X0270526Y0168751D01*
X0272242Y0168040D01*
X0276799Y0168040D01*
X0278515Y0168751D01*
X0279828Y0170064D01*
X0280539Y0171780D01*
X0280539Y0173637D01*
X0279957Y0175041D01*
X0309165Y0175041D01*
X0324588Y0160804D01*
X0324937Y0160456D01*
X0324989Y0160434D01*
X0325031Y0160395D01*
X0325494Y0160225D01*
X0325949Y0160036D01*
X0326007Y0160036D01*
X0326060Y0160017D01*
X0326553Y0160036D01*
X0329240Y0160036D01*
X0330526Y0158751D01*
X0332242Y0158040D01*
X0336799Y0158040D01*
X0338515Y0158751D01*
X0339828Y0160064D01*
X0340539Y0161780D01*
X0340539Y0163637D01*
X0339828Y0165353D01*
X0338515Y0166666D01*
X0336799Y0167377D01*
X0332242Y0167377D01*
X0330526Y0166666D01*
X0329408Y0165548D01*
X0327575Y0165548D01*
X0312152Y0179785D01*
X0311804Y0180133D01*
X0311751Y0180155D01*
X0311709Y0180194D01*
X0311246Y0180364D01*
X0310791Y0180553D01*
X0310734Y0180553D01*
X0310680Y0180573D01*
X0310187Y0180553D01*
X0280031Y0180553D01*
X0280539Y0181780D01*
X0280539Y0183637D01*
X0280086Y0184732D01*
X0317355Y0184732D01*
X0318368Y0185151D01*
X0322638Y0189421D01*
X0329856Y0189421D01*
X0330526Y0188751D01*
X0332242Y0188040D01*
X0336799Y0188040D01*
X0338515Y0188751D01*
X0339828Y0190064D01*
X0340539Y0191780D01*
X0340539Y0193637D01*
X0339828Y0195353D01*
X0338515Y0196666D01*
X0336799Y0197377D01*
X0332242Y0197377D01*
X0330526Y0196666D01*
X0329213Y0195353D01*
X0329039Y0194932D01*
X0320948Y0194932D01*
X0319935Y0194513D01*
X0319160Y0193738D01*
X0315666Y0190243D01*
X0279903Y0190243D01*
X0280539Y0191780D01*
X0280539Y0193637D01*
X0279828Y0195353D01*
X0278515Y0196666D01*
X0276799Y0197377D01*
X0272242Y0197377D01*
X0270526Y0196666D01*
X0269324Y0195464D01*
X0267713Y0195464D01*
X0266734Y0196444D01*
X0266734Y0198852D01*
X0266777Y0198852D01*
X0267878Y0199952D01*
X0269324Y0199952D01*
X0270526Y0198751D01*
X0272242Y0198040D01*
X0276799Y0198040D01*
X0278515Y0198751D01*
X0279828Y0200064D01*
X0280539Y0201780D01*
X0280539Y0203637D01*
X0279828Y0205353D01*
X0278515Y0206666D01*
X0276799Y0207377D01*
X0272242Y0207377D01*
X0270526Y0206666D01*
X0269324Y0205464D01*
X0267930Y0205464D01*
X0267930Y0205605D01*
X0266777Y0206758D01*
X0261178Y0206758D01*
X0260025Y0205605D01*
X0260025Y0200005D01*
X0261178Y0198852D01*
X0261222Y0198852D01*
X0261222Y0194754D01*
X0261641Y0193741D01*
X0262417Y0192966D01*
X0265011Y0190372D01*
X0265321Y0190243D01*
X0263742Y0190243D01*
X0262729Y0189824D01*
X0261954Y0189049D01*
X0251583Y0178677D01*
X0204036Y0178677D01*
X0203023Y0178258D01*
X0202247Y0177482D01*
X0173434Y0148669D01*
X0173015Y0147656D01*
X0173015Y0140144D01*
X0172917Y0140103D01*
X0171500Y0138687D01*
X0170733Y0136835D01*
X0170733Y0134831D01*
X0171500Y0132980D01*
X0172227Y0132253D01*
X0172227Y0132117D01*
X0171813Y0131703D01*
X0171102Y0129987D01*
X0171102Y0125430D01*
X0171813Y0123714D01*
X0173126Y0122401D01*
X0174842Y0121690D01*
X0176699Y0121690D01*
X0178415Y0122401D01*
X0179728Y0123714D01*
X0180439Y0125430D01*
X0180439Y0129987D01*
X0179728Y0131703D01*
X0179314Y0132117D01*
X0179314Y0132253D01*
X0180041Y0132980D01*
X0180770Y0134742D01*
X0181500Y0132980D01*
X0182227Y0132253D01*
X0182227Y0132117D01*
X0181813Y0131703D01*
X0181102Y0129987D01*
X0181102Y0125430D01*
X0181813Y0123714D01*
X0183126Y0122401D01*
X0184842Y0121690D01*
X0186699Y0121690D01*
X0188415Y0122401D01*
X0189728Y0123714D01*
X0190439Y0125430D01*
X0190439Y0129987D01*
X0189728Y0131703D01*
X0189314Y0132117D01*
X0189314Y0132253D01*
X0190041Y0132980D01*
X0190770Y0134742D01*
X0191500Y0132980D01*
X0192227Y0132253D01*
X0192227Y0132117D01*
X0191813Y0131703D01*
X0191102Y0129987D01*
X0191102Y0125430D01*
X0191813Y0123714D01*
X0193126Y0122401D01*
X0194842Y0121690D01*
X0196699Y0121690D01*
X0198415Y0122401D01*
X0199728Y0123714D01*
X0200439Y0125430D01*
X0200439Y0129987D01*
X0199728Y0131703D01*
X0199314Y0132117D01*
X0199314Y0132253D01*
X0200041Y0132980D01*
X0200770Y0134742D01*
X0201500Y0132980D01*
X0202227Y0132253D01*
X0202227Y0132117D01*
X0201813Y0131703D01*
X0201102Y0129987D01*
X0201102Y0125430D01*
X0201813Y0123714D01*
X0203126Y0122401D01*
X0204842Y0121690D01*
X0206699Y0121690D01*
X0208415Y0122401D01*
X0209728Y0123714D01*
X0210439Y0125430D01*
X0210439Y0129987D01*
X0209728Y0131703D01*
X0209314Y0132117D01*
X0209314Y0132253D01*
X0210041Y0132980D01*
X0210770Y0134742D01*
X0211500Y0132980D01*
X0212227Y0132253D01*
X0212227Y0132117D01*
X0211813Y0131703D01*
X0211102Y0129987D01*
X0211102Y0125430D01*
X0211813Y0123714D01*
X0213126Y0122401D01*
X0214842Y0121690D01*
X0216699Y0121690D01*
X0218415Y0122401D01*
X0219728Y0123714D01*
X0220439Y0125430D01*
X0220439Y0129987D01*
X0219728Y0131703D01*
X0219314Y0132117D01*
X0219314Y0132253D01*
X0220041Y0132980D01*
X0220770Y0134742D01*
X0221500Y0132980D01*
X0222227Y0132253D01*
X0222227Y0132117D01*
X0221813Y0131703D01*
X0221102Y0129987D01*
X0221102Y0125430D01*
X0221813Y0123714D01*
X0223126Y0122401D01*
X0224842Y0121690D01*
X0226699Y0121690D01*
X0228415Y0122401D01*
X0229728Y0123714D01*
X0230439Y0125430D01*
X0230439Y0129987D01*
X0229728Y0131703D01*
X0229314Y0132117D01*
X0229314Y0132253D01*
X0230041Y0132980D01*
X0230770Y0134742D01*
X0231500Y0132980D01*
X0232227Y0132253D01*
X0232227Y0132117D01*
X0231813Y0131703D01*
X0231102Y0129987D01*
X0231102Y0125430D01*
X0231813Y0123714D01*
X0233126Y0122401D01*
X0234842Y0121690D01*
X0236699Y0121690D01*
X0238415Y0122401D01*
X0239728Y0123714D01*
X0240439Y0125430D01*
X0240439Y0129987D01*
X0239728Y0131703D01*
X0239314Y0132117D01*
X0239314Y0132253D01*
X0240041Y0132980D01*
X0240770Y0134742D01*
X0241500Y0132980D01*
X0242227Y0132253D01*
X0242227Y0132117D01*
X0241813Y0131703D01*
X0241102Y0129987D01*
X0241102Y0125430D01*
X0241813Y0123714D01*
X0243126Y0122401D01*
X0244842Y0121690D01*
X0246699Y0121690D01*
X0248415Y0122401D01*
X0249728Y0123714D01*
X0250439Y0125430D01*
X0250439Y0129987D01*
X0249728Y0131703D01*
X0249314Y0132117D01*
X0249314Y0132253D01*
X0250041Y0132980D01*
X0250807Y0134831D01*
X0250807Y0136835D01*
X0250041Y0138687D01*
X0248624Y0140103D01*
X0246772Y0140870D01*
X0244769Y0140870D01*
X0242917Y0140103D01*
X0241500Y0138687D01*
X0240770Y0136925D01*
X0240041Y0138687D01*
X0239404Y0139323D01*
X0241362Y0141280D01*
X0260335Y0141280D01*
X0265393Y0136223D01*
X0266168Y0135448D01*
X0267181Y0135028D01*
X0269078Y0135028D01*
X0268502Y0133637D01*
X0268502Y0131780D01*
X0269098Y0130340D01*
X0263469Y0130340D01*
X0262528Y0129950D01*
X0261808Y0129231D01*
X0254165Y0121587D01*
X0141248Y0121587D01*
X0139425Y0123410D01*
X0139728Y0123714D01*
X0140439Y0125430D01*
X0140439Y0129987D01*
X0139728Y0131703D01*
X0139314Y0132117D01*
X0139314Y0132253D01*
X0140041Y0132980D01*
X0140807Y0134831D01*
X0140807Y0136835D01*
X0140041Y0138687D01*
X0138933Y0139794D01*
X0139772Y0139794D01*
X0141153Y0140366D01*
X0141166Y0140379D01*
X0140733Y0139335D01*
X0140733Y0137331D01*
X0141500Y0135480D01*
X0142227Y0134753D01*
X0142227Y0132117D01*
X0141813Y0131703D01*
X0141102Y0129987D01*
X0141102Y0125430D01*
X0141813Y0123714D01*
X0143126Y0122401D01*
X0144842Y0121690D01*
X0146699Y0121690D01*
X0148415Y0122401D01*
X0149728Y0123714D01*
X0150439Y0125430D01*
X0150439Y0129987D01*
X0149728Y0131703D01*
X0149314Y0132117D01*
X0149314Y0134753D01*
X0150041Y0135480D01*
X0150770Y0137242D01*
X0151500Y0135480D01*
X0152227Y0134753D01*
X0152227Y0132117D01*
X0151813Y0131703D01*
X0151102Y0129987D01*
X0151102Y0125430D01*
X0151813Y0123714D01*
X0153126Y0122401D01*
X0154842Y0121690D01*
X0156699Y0121690D01*
X0158415Y0122401D01*
X0159728Y0123714D01*
X0160439Y0125430D01*
X0160439Y0129987D01*
X0159728Y0131703D01*
X0159314Y0132117D01*
X0159314Y0134753D01*
X0160041Y0135480D01*
X0160770Y0137242D01*
X0161500Y0135480D01*
X0162227Y0134753D01*
X0162227Y0132117D01*
X0161813Y0131703D01*
X0161102Y0129987D01*
X0161102Y0125430D01*
X0161813Y0123714D01*
X0163126Y0122401D01*
X0164842Y0121690D01*
X0166699Y0121690D01*
X0168415Y0122401D01*
X0169728Y0123714D01*
X0170439Y0125430D01*
X0170439Y0129987D01*
X0169728Y0131703D01*
X0169314Y0132117D01*
X0169314Y0134753D01*
X0170041Y0135480D01*
X0170807Y0137331D01*
X0170807Y0139335D01*
X0170041Y0141187D01*
X0168624Y0142603D01*
X0166772Y0143370D01*
X0164769Y0143370D01*
X0162917Y0142603D01*
X0161500Y0141187D01*
X0160770Y0139425D01*
X0160041Y0141187D01*
X0158624Y0142603D01*
X0158330Y0142725D01*
X0158330Y0147979D01*
X0158340Y0148006D01*
X0158330Y0148487D01*
X0158330Y0148969D01*
X0158319Y0148995D01*
X0158318Y0149024D01*
X0158124Y0149465D01*
X0157940Y0149910D01*
X0157920Y0149930D01*
X0138745Y0193565D01*
X0139139Y0194516D01*
X0139139Y0196089D01*
X0138537Y0197542D01*
X0137426Y0198654D01*
X0135973Y0199255D01*
X0134400Y0199255D01*
X0132947Y0198654D01*
X0131836Y0197542D01*
X0131234Y0196089D01*
X0131234Y0194516D01*
X0131836Y0193063D01*
X0132947Y0191952D01*
X0134068Y0191488D01*
X0153211Y0147923D01*
X0153211Y0142725D01*
X0152917Y0142603D01*
X0151500Y0141187D01*
X0150770Y0139425D01*
X0150041Y0141187D01*
X0148624Y0142603D01*
X0146772Y0143370D01*
X0144769Y0143370D01*
X0142917Y0142603D01*
X0142544Y0142230D01*
X0142781Y0142803D01*
X0142781Y0144297D01*
X0142209Y0145677D01*
X0141153Y0146734D01*
X0139772Y0147306D01*
X0138278Y0147306D01*
X0136898Y0146734D01*
X0136273Y0146109D01*
X0073834Y0146109D01*
X0072894Y0145719D01*
X0067672Y0140498D01*
X0066772Y0140870D01*
X0064769Y0140870D01*
X0062917Y0140103D01*
X0061500Y0138687D01*
X0060733Y0136835D01*
X0060733Y0134831D01*
X0061500Y0132980D01*
X0062227Y0132253D01*
X0062227Y0132117D01*
X0061813Y0131703D01*
X0061102Y0129987D01*
X0061102Y0125430D01*
X0061813Y0123714D01*
X0063126Y0122401D01*
X0064842Y0121690D01*
X0066699Y0121690D01*
X0068415Y0122401D01*
X0069728Y0123714D01*
X0070439Y0125430D01*
X0070439Y0129987D01*
X0069728Y0131703D01*
X0069314Y0132117D01*
X0069314Y0132253D01*
X0070041Y0132980D01*
X0070770Y0134742D01*
X0071500Y0132980D01*
X0072227Y0132253D01*
X0072227Y0132117D01*
X0071813Y0131703D01*
X0071102Y0129987D01*
X0071102Y0125430D01*
X0071813Y0123714D01*
X0073126Y0122401D01*
X0074842Y0121690D01*
X0076699Y0121690D01*
X0078415Y0122401D01*
X0079728Y0123714D01*
X0080439Y0125430D01*
X0080439Y0129987D01*
X0079728Y0131703D01*
X0079314Y0132117D01*
X0079314Y0132253D01*
X0080041Y0132980D01*
X0080770Y0134742D01*
X0081500Y0132980D01*
X0082227Y0132253D01*
X0082227Y0132117D01*
X0081813Y0131703D01*
X0081102Y0129987D01*
X0081102Y0125430D01*
X0081813Y0123714D01*
X0083126Y0122401D01*
X0084842Y0121690D01*
X0086699Y0121690D01*
X0087808Y0122149D01*
X0094255Y0115703D01*
X0094975Y0114983D01*
X0095915Y0114593D01*
X0105367Y0114593D01*
X0110510Y0109451D01*
X0111230Y0108731D01*
X0112170Y0108341D01*
X0122207Y0108341D01*
X0127308Y0103241D01*
X0118028Y0103241D01*
X0116888Y0104381D01*
X0115948Y0104770D01*
X0101303Y0104770D01*
X0101184Y0104807D01*
X0100797Y0104770D01*
X0100409Y0104770D01*
X0100294Y0104723D01*
X0100170Y0104711D01*
X0099827Y0104529D01*
X0099469Y0104381D01*
X0099380Y0104293D01*
X0099270Y0104234D01*
X0099023Y0103935D01*
X0098749Y0103661D01*
X0098701Y0103546D01*
X0097529Y0102129D01*
X0097255Y0101855D01*
X0097207Y0101739D01*
X0097128Y0101643D01*
X0097014Y0101273D01*
X0096865Y0100914D01*
X0096865Y0100789D01*
X0096829Y0100670D01*
X0096865Y0100284D01*
X0096865Y0096780D01*
X0096425Y0097843D01*
X0095369Y0098899D01*
X0093988Y0099471D01*
X0092494Y0099471D01*
X0091833Y0099198D01*
X0091833Y0100955D01*
X0090680Y0102108D01*
X0088684Y0102108D01*
X0088684Y0105836D01*
X0088731Y0105994D01*
X0088684Y0106458D01*
X0088684Y0106924D01*
X0088621Y0107076D01*
X0088604Y0107241D01*
X0088383Y0107651D01*
X0088205Y0108080D01*
X0088205Y0111898D01*
X0087052Y0113051D01*
X0081821Y0113051D01*
X0080705Y0111936D01*
X0074411Y0111936D01*
X0073398Y0112948D01*
X0066268Y0112948D01*
X0065255Y0111936D01*
X0063786Y0111936D01*
X0062773Y0112948D01*
X0061007Y0112948D01*
X0059707Y0114248D01*
X0059707Y0123693D01*
X0059728Y0123714D01*
X0060439Y0125430D01*
X0060439Y0129987D01*
X0059728Y0131703D01*
X0058415Y0133016D01*
X0056699Y0133727D01*
X0054842Y0133727D01*
X0053126Y0133016D01*
X0051813Y0131703D01*
X0051102Y0129987D01*
X0051102Y0125430D01*
X0051813Y0123714D01*
X0051833Y0123693D01*
X0051833Y0122051D01*
X0051673Y0122546D01*
X0051354Y0123172D01*
X0050941Y0123740D01*
X0050444Y0124237D01*
X0049876Y0124650D01*
X0049250Y0124969D01*
X0048582Y0125186D01*
X0047931Y0125289D01*
X0047931Y0121227D01*
X0047144Y0121227D01*
X0047144Y0125289D01*
X0046492Y0125186D01*
X0045824Y0124969D01*
X0045199Y0124650D01*
X0044630Y0124237D01*
X0044134Y0123740D01*
X0043721Y0123172D01*
X0043402Y0122546D01*
X0043185Y0121878D01*
X0043082Y0121227D01*
X0047143Y0121227D01*
X0047143Y0120440D01*
X0043082Y0120440D01*
X0043185Y0119788D01*
X0043402Y0119120D01*
X0043721Y0118495D01*
X0044134Y0117926D01*
X0044630Y0117430D01*
X0045199Y0117017D01*
X0045824Y0116698D01*
X0046492Y0116481D01*
X0047144Y0116378D01*
X0047144Y0120440D01*
X0047931Y0120440D01*
X0047931Y0116378D01*
X0048582Y0116481D01*
X0049250Y0116698D01*
X0049876Y0117017D01*
X0050444Y0117430D01*
X0050941Y0117926D01*
X0051354Y0118495D01*
X0051673Y0119120D01*
X0051833Y0119616D01*
X0051833Y0111834D01*
X0052433Y0110387D01*
X0053540Y0109280D01*
X0053540Y0109280D01*
X0054489Y0108331D01*
X0054489Y0106564D01*
X0055221Y0105833D01*
X0054489Y0105102D01*
X0054489Y0099871D01*
X0055643Y0098718D01*
X0058655Y0098718D01*
X0074328Y0083045D01*
X0075048Y0082325D01*
X0075989Y0081936D01*
X0079261Y0081936D01*
X0080388Y0080809D01*
X0088265Y0080809D01*
X0093122Y0077049D01*
X0049374Y0077049D01*
X0048942Y0077075D01*
X0048867Y0077049D01*
X0048789Y0077049D01*
X0048389Y0076883D01*
X0047980Y0076742D01*
X0047921Y0076690D01*
X0047848Y0076659D01*
X0047542Y0076354D01*
X0047218Y0076066D01*
X0047184Y0075995D01*
X0047128Y0075940D01*
X0047084Y0075833D01*
X0030738Y0075833D01*
X0029567Y0077005D01*
X0027869Y0077708D01*
X0029567Y0078411D01*
X0030992Y0079837D01*
X0031764Y0081700D01*
X0031764Y0083717D01*
X0030992Y0085579D01*
X0029567Y0087005D01*
X0027704Y0087777D01*
X0022587Y0087777D01*
X0020724Y0087005D01*
X0019299Y0085579D01*
X0018527Y0083717D01*
X0018527Y0081700D01*
X0019299Y0079837D01*
X0020724Y0078411D01*
X0022422Y0077708D01*
X0020724Y0077005D01*
X0019299Y0075579D01*
X0018527Y0073717D01*
X0018527Y0071700D01*
X0019299Y0069837D01*
X0020724Y0068411D01*
X0022422Y0067708D01*
X0020724Y0067005D01*
X0019299Y0065579D01*
X0018527Y0063717D01*
X0018527Y0061700D01*
X0019299Y0059837D01*
X0020724Y0058411D01*
X0022422Y0057708D01*
X0020724Y0057005D01*
X0019299Y0055579D01*
X0018527Y0053717D01*
X0018527Y0051700D01*
X0019299Y0049837D01*
X0020724Y0048411D01*
X0022422Y0047708D01*
X0020724Y0047005D01*
X0019299Y0045579D01*
X0018527Y0043717D01*
X0018527Y0041700D01*
X0019299Y0039837D01*
X0020724Y0038411D01*
X0022587Y0037640D01*
X0027704Y0037640D01*
X0029567Y0038411D01*
X0030992Y0039837D01*
X0031764Y0041700D01*
X0031764Y0043717D01*
X0030992Y0045579D01*
X0029567Y0047005D01*
X0027869Y0047708D01*
X0029567Y0048411D01*
X0030992Y0049837D01*
X0031764Y0051700D01*
X0031764Y0053717D01*
X0030992Y0055579D01*
X0029567Y0057005D01*
X0027869Y0057708D01*
X0029567Y0058411D01*
X0030992Y0059837D01*
X0031764Y0061700D01*
X0031764Y0063717D01*
X0030992Y0065579D01*
X0029567Y0067005D01*
X0027869Y0067708D01*
X0029567Y0068411D01*
X0030992Y0069837D01*
X0031356Y0070715D01*
X0048631Y0070715D01*
X0049063Y0070689D01*
X0049137Y0070715D01*
X0049216Y0070715D01*
X0049616Y0070881D01*
X0050025Y0071022D01*
X0050084Y0071075D01*
X0050157Y0071105D01*
X0050463Y0071411D01*
X0050787Y0071698D01*
X0050821Y0071769D01*
X0050877Y0071825D01*
X0050921Y0071931D01*
X0052041Y0071931D01*
X0051813Y0071703D01*
X0051102Y0069987D01*
X0051102Y0067179D01*
X0046929Y0058849D01*
X0046831Y0058753D01*
X0046820Y0058726D01*
X0045849Y0057754D01*
X0045077Y0055892D01*
X0045077Y0050775D01*
X0045849Y0048912D01*
X0046208Y0048552D01*
X0046208Y0048114D01*
X0045849Y0047754D01*
X0045077Y0045892D01*
X0045077Y0040775D01*
X0045849Y0038912D01*
X0046208Y0038552D01*
X0046208Y0038114D01*
X0045849Y0037754D01*
X0045077Y0035892D01*
X0045077Y0030775D01*
X0045849Y0028912D01*
X0047274Y0027486D01*
X0049137Y0026715D01*
X0051154Y0026715D01*
X0053017Y0027486D01*
X0054442Y0028912D01*
X0055145Y0030610D01*
X0055849Y0028912D01*
X0057274Y0027486D01*
X0059137Y0026715D01*
X0061154Y0026715D01*
X0063017Y0027486D01*
X0064442Y0028912D01*
X0065145Y0030610D01*
X0065849Y0028912D01*
X0067274Y0027486D01*
X0069137Y0026715D01*
X0071154Y0026715D01*
X0073017Y0027486D01*
X0074442Y0028912D01*
X0075145Y0030610D01*
X0075849Y0028912D01*
X0077274Y0027486D01*
X0079137Y0026715D01*
X0081154Y0026715D01*
X0083017Y0027486D01*
X0084442Y0028912D01*
X0085145Y0030610D01*
X0085849Y0028912D01*
X0087274Y0027486D01*
X0089137Y0026715D01*
X0091154Y0026715D01*
X0093017Y0027486D01*
X0094442Y0028912D01*
X0095145Y0030610D01*
X0095849Y0028912D01*
X0097274Y0027486D01*
X0099137Y0026715D01*
X0101154Y0026715D01*
X0103017Y0027486D01*
X0104442Y0028912D01*
X0105145Y0030610D01*
X0105849Y0028912D01*
X0107274Y0027486D01*
X0109137Y0026715D01*
X0111154Y0026715D01*
X0113017Y0027486D01*
X0114442Y0028912D01*
X0115145Y0030610D01*
X0115849Y0028912D01*
X0117274Y0027486D01*
X0119137Y0026715D01*
X0121154Y0026715D01*
X0123017Y0027486D01*
X0124442Y0028912D01*
X0125214Y0030775D01*
X0125214Y0035892D01*
X0124442Y0037754D01*
X0124082Y0038114D01*
X0124082Y0038552D01*
X0124442Y0038912D01*
X0125214Y0040775D01*
X0125214Y0045892D01*
X0124442Y0047754D01*
X0124082Y0048114D01*
X0124082Y0048552D01*
X0124442Y0048912D01*
X0125214Y0050775D01*
X0125214Y0055482D01*
X0127826Y0062156D01*
X0128415Y0062401D01*
X0129728Y0063714D01*
X0130439Y0065430D01*
X0130439Y0069987D01*
X0129728Y0071703D01*
X0129500Y0071931D01*
X0132041Y0071931D01*
X0131813Y0071703D01*
X0131102Y0069987D01*
X0131102Y0065430D01*
X0131813Y0063714D01*
X0133126Y0062401D01*
X0134842Y0061690D01*
X0136699Y0061690D01*
X0138415Y0062401D01*
X0139728Y0063714D01*
X0140439Y0065430D01*
X0140439Y0069987D01*
X0139728Y0071703D01*
X0139500Y0071931D01*
X0142041Y0071931D01*
X0141813Y0071703D01*
X0141102Y0069987D01*
X0141102Y0066845D01*
X0138016Y0059746D01*
X0136649Y0059180D01*
X0135224Y0057754D01*
X0134452Y0055892D01*
X0134452Y0050775D01*
X0135224Y0048912D01*
X0135583Y0048552D01*
X0135583Y0048114D01*
X0135224Y0047754D01*
X0134452Y0045892D01*
X0134452Y0040775D01*
X0135224Y0038912D01*
X0135583Y0038552D01*
X0135583Y0038114D01*
X0135224Y0037754D01*
X0134452Y0035892D01*
X0134452Y0030775D01*
X0135224Y0028912D01*
X0136649Y0027486D01*
X0138512Y0026715D01*
X0140529Y0026715D01*
X0142392Y0027486D01*
X0143817Y0028912D01*
X0144520Y0030610D01*
X0145224Y0028912D01*
X0146649Y0027486D01*
X0148512Y0026715D01*
X0150529Y0026715D01*
X0152392Y0027486D01*
X0153817Y0028912D01*
X0154520Y0030610D01*
X0155224Y0028912D01*
X0156649Y0027486D01*
X0158512Y0026715D01*
X0160529Y0026715D01*
X0162392Y0027486D01*
X0163817Y0028912D01*
X0164520Y0030610D01*
X0165224Y0028912D01*
X0166649Y0027486D01*
X0168512Y0026715D01*
X0170529Y0026715D01*
X0172392Y0027486D01*
X0173817Y0028912D01*
X0174520Y0030610D01*
X0175224Y0028912D01*
X0176649Y0027486D01*
X0178512Y0026715D01*
X0180529Y0026715D01*
X0182392Y0027486D01*
X0183817Y0028912D01*
X0184520Y0030610D01*
X0185224Y0028912D01*
X0186649Y0027486D01*
X0188512Y0026715D01*
X0190529Y0026715D01*
X0192392Y0027486D01*
X0193817Y0028912D01*
X0194520Y0030610D01*
X0195224Y0028912D01*
X0196649Y0027486D01*
X0198512Y0026715D01*
X0200529Y0026715D01*
X0202392Y0027486D01*
X0203817Y0028912D01*
X0204520Y0030610D01*
X0205224Y0028912D01*
X0206649Y0027486D01*
X0208512Y0026715D01*
X0210529Y0026715D01*
X0212392Y0027486D01*
X0213817Y0028912D01*
X0214520Y0030610D01*
X0215224Y0028912D01*
X0216649Y0027486D01*
X0218512Y0026715D01*
X0220529Y0026715D01*
X0222392Y0027486D01*
X0223817Y0028912D01*
X0224589Y0030775D01*
X0224589Y0035892D01*
X0223817Y0037754D01*
X0223457Y0038114D01*
X0223457Y0038552D01*
X0223817Y0038912D01*
X0224589Y0040775D01*
X0224589Y0045892D01*
X0223817Y0047754D01*
X0223457Y0048114D01*
X0223457Y0048552D01*
X0223817Y0048912D01*
X0224589Y0050775D01*
X0224589Y0055892D01*
X0223817Y0057754D01*
X0222392Y0059180D01*
X0220529Y0059952D01*
X0218512Y0059952D01*
X0216649Y0059180D01*
X0216130Y0058660D01*
X0217611Y0062068D01*
X0218415Y0062401D01*
X0219728Y0063714D01*
X0220439Y0065430D01*
X0220439Y0069987D01*
X0219728Y0071703D01*
X0218415Y0073016D01*
X0216699Y0073727D01*
X0214842Y0073727D01*
X0213126Y0073016D01*
X0211813Y0071703D01*
X0211102Y0069987D01*
X0211102Y0066845D01*
X0208016Y0059746D01*
X0206649Y0059180D01*
X0206130Y0058660D01*
X0207611Y0062068D01*
X0208415Y0062401D01*
X0209728Y0063714D01*
X0210439Y0065430D01*
X0210439Y0069987D01*
X0209728Y0071703D01*
X0208415Y0073016D01*
X0206699Y0073727D01*
X0204842Y0073727D01*
X0203126Y0073016D01*
X0201813Y0071703D01*
X0201102Y0069987D01*
X0201102Y0066845D01*
X0198016Y0059746D01*
X0196649Y0059180D01*
X0196130Y0058660D01*
X0197611Y0062068D01*
X0198415Y0062401D01*
X0199728Y0063714D01*
X0200439Y0065430D01*
X0200439Y0069987D01*
X0199728Y0071703D01*
X0198415Y0073016D01*
X0196699Y0073727D01*
X0194842Y0073727D01*
X0193304Y0073090D01*
X0189126Y0077268D01*
X0188957Y0077677D01*
X0165522Y0101111D01*
X0172456Y0101111D01*
X0190591Y0082976D01*
X0191004Y0082564D01*
X0191311Y0082256D01*
X0192252Y0081866D01*
X0236345Y0081866D01*
X0245112Y0073099D01*
X0244812Y0073051D01*
X0244199Y0072852D01*
X0243625Y0072560D01*
X0243104Y0072181D01*
X0242648Y0071725D01*
X0242269Y0071204D01*
X0241977Y0070630D01*
X0241778Y0070017D01*
X0241677Y0069381D01*
X0241677Y0068102D01*
X0245377Y0068102D01*
X0245377Y0072834D01*
X0246164Y0072047D01*
X0246164Y0068102D01*
X0245377Y0068102D01*
X0245377Y0067315D01*
X0241677Y0067315D01*
X0241677Y0066036D01*
X0241778Y0065400D01*
X0241977Y0064787D01*
X0242269Y0064213D01*
X0242648Y0063691D01*
X0243104Y0063236D01*
X0243625Y0062857D01*
X0244199Y0062565D01*
X0244812Y0062365D01*
X0245377Y0062276D01*
X0245377Y0067315D01*
X0246164Y0067315D01*
X0246164Y0068102D01*
X0249864Y0068102D01*
X0249864Y0068347D01*
X0257146Y0061065D01*
X0258086Y0060676D01*
X0268959Y0060676D01*
X0269213Y0060064D01*
X0270526Y0058751D01*
X0272242Y0058040D01*
X0276799Y0058040D01*
X0278515Y0058751D01*
X0279828Y0060064D01*
X0280539Y0061780D01*
X0280539Y0063637D01*
X0279828Y0065353D01*
X0278515Y0066666D01*
X0276799Y0067377D01*
X0272242Y0067377D01*
X0270526Y0066666D01*
X0269654Y0065794D01*
X0259655Y0065794D01*
X0239192Y0086257D01*
X0238854Y0086595D01*
X0237914Y0086984D01*
X0193821Y0086984D01*
X0176840Y0103965D01*
X0200968Y0103965D01*
X0200666Y0103662D01*
X0200666Y0096882D01*
X0201819Y0095729D01*
X0208599Y0095729D01*
X0209752Y0096882D01*
X0209752Y0097713D01*
X0241661Y0097713D01*
X0263059Y0076315D01*
X0263779Y0075595D01*
X0264719Y0075206D01*
X0269152Y0075206D01*
X0268502Y0073637D01*
X0268502Y0071780D01*
X0269213Y0070064D01*
X0270526Y0068751D01*
X0272242Y0068040D01*
X0276799Y0068040D01*
X0278515Y0068751D01*
X0279828Y0070064D01*
X0280539Y0071780D01*
X0280539Y0073637D01*
X0279889Y0075206D01*
X0290694Y0075206D01*
X0290694Y0074375D01*
X0291848Y0073222D01*
X0298628Y0073222D01*
X0299781Y0074375D01*
X0299781Y0081155D01*
X0298628Y0082308D01*
X0291848Y0082308D01*
X0290694Y0081155D01*
X0290694Y0080324D01*
X0279936Y0080324D01*
X0280539Y0081780D01*
X0280539Y0083637D01*
X0279888Y0085209D01*
X0303556Y0085209D01*
X0309559Y0079206D01*
X0309559Y0074130D01*
X0309949Y0073189D01*
X0310669Y0072469D01*
X0328795Y0054343D01*
X0328502Y0053637D01*
X0328502Y0051780D01*
X0329213Y0050064D01*
X0330526Y0048751D01*
X0329906Y0049371D02*
X0278241Y0049371D01*
X0278016Y0049207D02*
X0278537Y0049586D01*
X0278993Y0050041D01*
X0279372Y0050563D01*
X0279664Y0051137D01*
X0279863Y0051750D01*
X0279953Y0052315D01*
X0274914Y0052315D01*
X0274914Y0053102D01*
X0274127Y0053102D01*
X0274127Y0056802D01*
X0272848Y0056802D01*
X0272212Y0056701D01*
X0271599Y0056502D01*
X0271025Y0056210D01*
X0270504Y0055831D01*
X0270048Y0055375D01*
X0269669Y0054854D01*
X0269377Y0054280D01*
X0269178Y0053667D01*
X0269088Y0053102D01*
X0274127Y0053102D01*
X0274127Y0052315D01*
X0274914Y0052315D01*
X0274914Y0048615D01*
X0276193Y0048615D01*
X0276829Y0048715D01*
X0277442Y0048915D01*
X0278016Y0049207D01*
X0279077Y0050157D02*
X0329174Y0050157D01*
X0328849Y0050943D02*
X0279565Y0050943D01*
X0279857Y0051729D02*
X0328523Y0051729D01*
X0328502Y0052515D02*
X0274914Y0052515D01*
X0274914Y0053102D02*
X0279953Y0053102D01*
X0279863Y0053667D01*
X0279664Y0054280D01*
X0279372Y0054854D01*
X0278993Y0055375D01*
X0278537Y0055831D01*
X0278016Y0056210D01*
X0277442Y0056502D01*
X0276829Y0056701D01*
X0276193Y0056802D01*
X0274914Y0056802D01*
X0274914Y0053102D01*
X0274914Y0053300D02*
X0274127Y0053300D01*
X0274127Y0052515D02*
X0264081Y0052515D01*
X0264289Y0051729D02*
X0269184Y0051729D01*
X0269476Y0050943D02*
X0264289Y0050943D01*
X0264236Y0047799D02*
X0396389Y0047799D01*
X0396389Y0047013D02*
X0337290Y0047013D01*
X0337374Y0046978D02*
X0335522Y0047745D01*
X0333519Y0047745D01*
X0331667Y0046978D01*
X0330250Y0045562D01*
X0329483Y0043710D01*
X0329483Y0041706D01*
X0330250Y0039855D01*
X0331667Y0038438D01*
X0333519Y0037671D01*
X0335522Y0037671D01*
X0337374Y0038438D01*
X0338791Y0039855D01*
X0339557Y0041706D01*
X0339557Y0043710D01*
X0338791Y0045562D01*
X0337374Y0046978D01*
X0338125Y0046227D02*
X0396389Y0046227D01*
X0396389Y0045441D02*
X0338840Y0045441D01*
X0339166Y0044655D02*
X0396389Y0044655D01*
X0396389Y0043869D02*
X0339492Y0043869D01*
X0339557Y0043084D02*
X0396389Y0043084D01*
X0396389Y0042298D02*
X0339557Y0042298D01*
X0339477Y0041512D02*
X0396389Y0041512D01*
X0396389Y0040726D02*
X0387844Y0040726D01*
X0387621Y0040818D02*
X0384163Y0040818D01*
X0380968Y0039495D01*
X0378522Y0037049D01*
X0377199Y0033854D01*
X0377199Y0030396D01*
X0378522Y0027201D01*
X0380968Y0024756D01*
X0384163Y0023432D01*
X0387621Y0023432D01*
X0390816Y0024756D01*
X0393261Y0027201D01*
X0394585Y0030396D01*
X0394585Y0033854D01*
X0393261Y0037049D01*
X0390816Y0039495D01*
X0387621Y0040818D01*
X0389741Y0039940D02*
X0396389Y0039940D01*
X0396389Y0039154D02*
X0391157Y0039154D01*
X0391943Y0038368D02*
X0396389Y0038368D01*
X0396389Y0037582D02*
X0392728Y0037582D01*
X0393366Y0036796D02*
X0396389Y0036796D01*
X0396389Y0036010D02*
X0393692Y0036010D01*
X0394017Y0035224D02*
X0396389Y0035224D01*
X0396389Y0034439D02*
X0394343Y0034439D01*
X0394585Y0033653D02*
X0396389Y0033653D01*
X0396389Y0032867D02*
X0394585Y0032867D01*
X0394585Y0032081D02*
X0396389Y0032081D01*
X0396389Y0031295D02*
X0394585Y0031295D01*
X0394585Y0030509D02*
X0396389Y0030509D01*
X0396389Y0029723D02*
X0394306Y0029723D01*
X0393980Y0028937D02*
X0396389Y0028937D01*
X0396389Y0028151D02*
X0393655Y0028151D01*
X0393329Y0027365D02*
X0396389Y0027365D01*
X0396389Y0026579D02*
X0392639Y0026579D01*
X0391853Y0025793D02*
X0396389Y0025793D01*
X0396389Y0025008D02*
X0391068Y0025008D01*
X0389526Y0024222D02*
X0396389Y0024222D01*
X0396389Y0023436D02*
X0387629Y0023436D01*
X0384155Y0023436D02*
X0009532Y0023436D01*
X0009532Y0024222D02*
X0382257Y0024222D01*
X0380716Y0025008D02*
X0270897Y0025008D01*
X0270420Y0024530D02*
X0271573Y0025683D01*
X0271573Y0044820D01*
X0270420Y0045973D01*
X0228776Y0045973D01*
X0227623Y0044820D01*
X0227623Y0025683D01*
X0228776Y0024530D01*
X0270420Y0024530D01*
X0271573Y0025793D02*
X0379930Y0025793D01*
X0379144Y0026579D02*
X0271573Y0026579D01*
X0271573Y0027365D02*
X0378454Y0027365D01*
X0378129Y0028151D02*
X0271573Y0028151D01*
X0271573Y0028937D02*
X0377803Y0028937D01*
X0377478Y0029723D02*
X0271573Y0029723D01*
X0271573Y0030509D02*
X0377199Y0030509D01*
X0377199Y0031295D02*
X0271573Y0031295D01*
X0271573Y0032081D02*
X0377199Y0032081D01*
X0377199Y0032867D02*
X0271573Y0032867D01*
X0271573Y0033653D02*
X0377199Y0033653D01*
X0377441Y0034439D02*
X0271573Y0034439D01*
X0271573Y0035224D02*
X0377766Y0035224D01*
X0378092Y0036010D02*
X0271573Y0036010D01*
X0271573Y0036796D02*
X0378417Y0036796D01*
X0379055Y0037582D02*
X0271573Y0037582D01*
X0271573Y0038368D02*
X0331836Y0038368D01*
X0330951Y0039154D02*
X0271573Y0039154D01*
X0271573Y0039940D02*
X0330215Y0039940D01*
X0329890Y0040726D02*
X0271573Y0040726D01*
X0271573Y0041512D02*
X0329564Y0041512D01*
X0329483Y0042298D02*
X0271573Y0042298D01*
X0271573Y0043084D02*
X0329483Y0043084D01*
X0329549Y0043869D02*
X0271573Y0043869D01*
X0271573Y0044655D02*
X0329875Y0044655D01*
X0330201Y0045441D02*
X0270951Y0045441D01*
X0274127Y0049371D02*
X0274914Y0049371D01*
X0274914Y0050157D02*
X0274127Y0050157D01*
X0274127Y0050943D02*
X0274914Y0050943D01*
X0274914Y0051729D02*
X0274127Y0051729D01*
X0274127Y0054086D02*
X0274914Y0054086D01*
X0274914Y0054872D02*
X0274127Y0054872D01*
X0274127Y0055658D02*
X0274914Y0055658D01*
X0274914Y0056444D02*
X0274127Y0056444D01*
X0271485Y0056444D02*
X0224360Y0056444D01*
X0224589Y0055658D02*
X0270331Y0055658D01*
X0269683Y0054872D02*
X0224589Y0054872D01*
X0224589Y0054086D02*
X0269314Y0054086D01*
X0269120Y0053300D02*
X0224589Y0053300D01*
X0224589Y0052515D02*
X0237460Y0052515D01*
X0237530Y0052636D02*
X0237347Y0052318D01*
X0237252Y0051963D01*
X0237252Y0050373D01*
X0241002Y0050373D01*
X0241002Y0049586D01*
X0241789Y0049586D01*
X0241789Y0046786D01*
X0244329Y0046786D01*
X0244683Y0046881D01*
X0245001Y0047065D01*
X0245261Y0047324D01*
X0245444Y0047642D01*
X0245539Y0047996D01*
X0245539Y0049586D01*
X0241789Y0049586D01*
X0241789Y0050373D01*
X0245539Y0050373D01*
X0245539Y0051963D01*
X0245444Y0052318D01*
X0245261Y0052636D01*
X0245001Y0052895D01*
X0244683Y0053078D01*
X0244329Y0053173D01*
X0241789Y0053173D01*
X0241789Y0050374D01*
X0241002Y0050374D01*
X0241002Y0053173D01*
X0238462Y0053173D01*
X0238108Y0053078D01*
X0237790Y0052895D01*
X0237530Y0052636D01*
X0237252Y0051729D02*
X0224589Y0051729D01*
X0224589Y0050943D02*
X0237252Y0050943D01*
X0237252Y0049586D02*
X0237252Y0047996D01*
X0237347Y0047642D01*
X0237530Y0047324D01*
X0237790Y0047065D01*
X0238108Y0046881D01*
X0238462Y0046786D01*
X0241002Y0046786D01*
X0241002Y0049586D01*
X0237252Y0049586D01*
X0237252Y0049371D02*
X0224007Y0049371D01*
X0224333Y0050157D02*
X0241002Y0050157D01*
X0241002Y0050943D02*
X0241789Y0050943D01*
X0241789Y0051729D02*
X0241002Y0051729D01*
X0241002Y0052515D02*
X0241789Y0052515D01*
X0241789Y0050157D02*
X0259752Y0050157D01*
X0259752Y0050943D02*
X0260539Y0050943D01*
X0260539Y0051729D02*
X0259752Y0051729D01*
X0259752Y0052515D02*
X0260539Y0052515D01*
X0256210Y0052515D02*
X0245331Y0052515D01*
X0245539Y0051729D02*
X0256002Y0051729D01*
X0256002Y0050943D02*
X0245539Y0050943D01*
X0245539Y0049371D02*
X0256002Y0049371D01*
X0256002Y0048585D02*
X0245539Y0048585D01*
X0245486Y0047799D02*
X0256055Y0047799D01*
X0256629Y0047013D02*
X0244912Y0047013D01*
X0241789Y0047013D02*
X0241002Y0047013D01*
X0241002Y0047799D02*
X0241789Y0047799D01*
X0241789Y0048585D02*
X0241002Y0048585D01*
X0241002Y0049371D02*
X0241789Y0049371D01*
X0237879Y0047013D02*
X0224124Y0047013D01*
X0224450Y0046227D02*
X0330916Y0046227D01*
X0331751Y0047013D02*
X0263662Y0047013D01*
X0260539Y0047013D02*
X0259752Y0047013D01*
X0259752Y0047799D02*
X0260539Y0047799D01*
X0260539Y0048585D02*
X0259752Y0048585D01*
X0259752Y0049371D02*
X0260539Y0049371D01*
X0270475Y0058802D02*
X0222770Y0058802D01*
X0223556Y0058016D02*
X0325122Y0058016D01*
X0324336Y0058802D02*
X0278566Y0058802D01*
X0279352Y0059588D02*
X0323550Y0059588D01*
X0322764Y0060374D02*
X0279957Y0060374D01*
X0280282Y0061160D02*
X0321978Y0061160D01*
X0321192Y0061945D02*
X0280539Y0061945D01*
X0280539Y0062731D02*
X0320407Y0062731D01*
X0319621Y0063517D02*
X0280539Y0063517D01*
X0280263Y0064303D02*
X0318835Y0064303D01*
X0318049Y0065089D02*
X0279937Y0065089D01*
X0279306Y0065875D02*
X0317263Y0065875D01*
X0316477Y0066661D02*
X0278520Y0066661D01*
X0277265Y0068233D02*
X0314905Y0068233D01*
X0314119Y0069019D02*
X0278783Y0069019D01*
X0279569Y0069805D02*
X0313333Y0069805D01*
X0312547Y0070591D02*
X0280046Y0070591D01*
X0280372Y0071376D02*
X0311762Y0071376D01*
X0310976Y0072162D02*
X0280539Y0072162D01*
X0280539Y0072948D02*
X0310190Y0072948D01*
X0309723Y0073734D02*
X0299140Y0073734D01*
X0299781Y0074520D02*
X0309559Y0074520D01*
X0309559Y0075306D02*
X0299781Y0075306D01*
X0299781Y0076092D02*
X0309559Y0076092D01*
X0309559Y0076878D02*
X0299781Y0076878D01*
X0299781Y0077664D02*
X0309559Y0077664D01*
X0309559Y0078450D02*
X0299781Y0078450D01*
X0299781Y0079236D02*
X0309529Y0079236D01*
X0308743Y0080021D02*
X0299781Y0080021D01*
X0299781Y0080807D02*
X0307957Y0080807D01*
X0307171Y0081593D02*
X0299343Y0081593D01*
X0304028Y0084737D02*
X0280083Y0084737D01*
X0280409Y0083951D02*
X0304814Y0083951D01*
X0305600Y0083165D02*
X0280539Y0083165D01*
X0280539Y0082379D02*
X0306386Y0082379D01*
X0317803Y0080807D02*
X0318586Y0080807D01*
X0317803Y0080021D02*
X0319372Y0080021D01*
X0320158Y0079236D02*
X0318018Y0079236D01*
X0318804Y0078450D02*
X0320944Y0078450D01*
X0321729Y0077664D02*
X0319590Y0077664D01*
X0320375Y0076878D02*
X0322515Y0076878D01*
X0323301Y0076092D02*
X0321161Y0076092D01*
X0321947Y0075306D02*
X0324087Y0075306D01*
X0324873Y0074520D02*
X0322733Y0074520D01*
X0323519Y0073734D02*
X0325659Y0073734D01*
X0326445Y0072948D02*
X0324305Y0072948D01*
X0325091Y0072162D02*
X0327231Y0072162D01*
X0328017Y0071376D02*
X0325877Y0071376D01*
X0326663Y0070591D02*
X0328803Y0070591D01*
X0329472Y0069805D02*
X0327449Y0069805D01*
X0328235Y0069019D02*
X0330258Y0069019D01*
X0329020Y0068233D02*
X0331776Y0068233D01*
X0329806Y0067447D02*
X0383545Y0067447D01*
X0383710Y0067844D02*
X0383003Y0066138D01*
X0383003Y0064291D01*
X0383710Y0062584D01*
X0385016Y0061278D01*
X0386723Y0060571D01*
X0388570Y0060571D01*
X0390277Y0061278D01*
X0391583Y0062584D01*
X0392290Y0064291D01*
X0392290Y0066138D01*
X0391583Y0067844D01*
X0390277Y0069151D01*
X0388570Y0069857D01*
X0386723Y0069857D01*
X0385016Y0069151D01*
X0383710Y0067844D01*
X0384098Y0068233D02*
X0337265Y0068233D01*
X0338783Y0069019D02*
X0384884Y0069019D01*
X0386595Y0069805D02*
X0339569Y0069805D01*
X0340046Y0070591D02*
X0386675Y0070591D01*
X0386723Y0070571D02*
X0388570Y0070571D01*
X0390277Y0071278D01*
X0391583Y0072584D01*
X0392290Y0074291D01*
X0392290Y0076138D01*
X0391583Y0077844D01*
X0390277Y0079151D01*
X0388570Y0079857D01*
X0386723Y0079857D01*
X0385016Y0079151D01*
X0383710Y0077844D01*
X0383003Y0076138D01*
X0383003Y0074291D01*
X0383710Y0072584D01*
X0385016Y0071278D01*
X0386723Y0070571D01*
X0388617Y0070591D02*
X0396389Y0070591D01*
X0396389Y0071376D02*
X0390375Y0071376D01*
X0391161Y0072162D02*
X0396389Y0072162D01*
X0396389Y0072948D02*
X0391734Y0072948D01*
X0392059Y0073734D02*
X0396389Y0073734D01*
X0396389Y0074520D02*
X0392290Y0074520D01*
X0392290Y0075306D02*
X0396389Y0075306D01*
X0396389Y0076092D02*
X0392290Y0076092D01*
X0391983Y0076878D02*
X0396389Y0076878D01*
X0396389Y0077664D02*
X0391658Y0077664D01*
X0390977Y0078450D02*
X0396389Y0078450D01*
X0396389Y0079236D02*
X0390071Y0079236D01*
X0389141Y0080807D02*
X0396389Y0080807D01*
X0396389Y0080021D02*
X0339786Y0080021D01*
X0340136Y0080807D02*
X0386152Y0080807D01*
X0386723Y0080571D02*
X0388570Y0080571D01*
X0390277Y0081278D01*
X0391583Y0082584D01*
X0392290Y0084291D01*
X0392290Y0086138D01*
X0391583Y0087844D01*
X0390277Y0089151D01*
X0388570Y0089857D01*
X0386723Y0089857D01*
X0385016Y0089151D01*
X0383710Y0087844D01*
X0383003Y0086138D01*
X0383003Y0084291D01*
X0383710Y0082584D01*
X0385016Y0081278D01*
X0386723Y0080571D01*
X0385221Y0079236D02*
X0339000Y0079236D01*
X0337788Y0078450D02*
X0384315Y0078450D01*
X0383635Y0077664D02*
X0328968Y0077664D01*
X0329753Y0076878D02*
X0331037Y0076878D01*
X0331252Y0078450D02*
X0328182Y0078450D01*
X0327396Y0079236D02*
X0330041Y0079236D01*
X0329255Y0080021D02*
X0326610Y0080021D01*
X0326735Y0085523D02*
X0329383Y0085523D01*
X0330169Y0086309D02*
X0325949Y0086309D01*
X0325163Y0087095D02*
X0331561Y0087095D01*
X0330729Y0088667D02*
X0323592Y0088667D01*
X0322806Y0089452D02*
X0329824Y0089452D01*
X0324377Y0087881D02*
X0383746Y0087881D01*
X0383399Y0087095D02*
X0337480Y0087095D01*
X0338872Y0086309D02*
X0383074Y0086309D01*
X0383003Y0085523D02*
X0339658Y0085523D01*
X0340083Y0084737D02*
X0383003Y0084737D01*
X0383144Y0083951D02*
X0340409Y0083951D01*
X0340539Y0083165D02*
X0383469Y0083165D01*
X0383915Y0082379D02*
X0340539Y0082379D01*
X0340462Y0081593D02*
X0384700Y0081593D01*
X0390592Y0081593D02*
X0396389Y0081593D01*
X0396389Y0082379D02*
X0391378Y0082379D01*
X0391823Y0083165D02*
X0396389Y0083165D01*
X0396389Y0083951D02*
X0392149Y0083951D01*
X0392290Y0084737D02*
X0396389Y0084737D01*
X0396389Y0085523D02*
X0392290Y0085523D01*
X0392219Y0086309D02*
X0396389Y0086309D01*
X0396389Y0087095D02*
X0391893Y0087095D01*
X0391546Y0087881D02*
X0396389Y0087881D01*
X0396389Y0088667D02*
X0390761Y0088667D01*
X0389548Y0089452D02*
X0396389Y0089452D01*
X0396389Y0090238D02*
X0339901Y0090238D01*
X0340226Y0091024D02*
X0385628Y0091024D01*
X0385016Y0091278D02*
X0386723Y0090571D01*
X0388570Y0090571D01*
X0390277Y0091278D01*
X0391583Y0092584D01*
X0392290Y0094291D01*
X0392290Y0096138D01*
X0391583Y0097844D01*
X0390277Y0099151D01*
X0388570Y0099857D01*
X0386723Y0099857D01*
X0385016Y0099151D01*
X0383710Y0097844D01*
X0383003Y0096138D01*
X0383003Y0094291D01*
X0383710Y0092584D01*
X0385016Y0091278D01*
X0384484Y0091810D02*
X0340539Y0091810D01*
X0340539Y0092596D02*
X0383705Y0092596D01*
X0383379Y0093382D02*
X0340539Y0093382D01*
X0340319Y0094168D02*
X0383054Y0094168D01*
X0383003Y0094954D02*
X0339994Y0094954D01*
X0339441Y0095740D02*
X0383003Y0095740D01*
X0383164Y0096526D02*
X0338655Y0096526D01*
X0336957Y0097312D02*
X0383489Y0097312D01*
X0383963Y0098097D02*
X0319162Y0098097D01*
X0319948Y0097312D02*
X0332084Y0097312D01*
X0332212Y0098715D02*
X0332848Y0098615D01*
X0334127Y0098615D01*
X0334127Y0102315D01*
X0329088Y0102315D01*
X0329178Y0101750D01*
X0329377Y0101137D01*
X0329669Y0100563D01*
X0330048Y0100041D01*
X0330504Y0099586D01*
X0331025Y0099207D01*
X0331599Y0098915D01*
X0332212Y0098715D01*
X0331695Y0098883D02*
X0318376Y0098883D01*
X0317590Y0099669D02*
X0330420Y0099669D01*
X0329747Y0100455D02*
X0316804Y0100455D01*
X0316019Y0101241D02*
X0329343Y0101241D01*
X0329134Y0102027D02*
X0315233Y0102027D01*
X0314447Y0102813D02*
X0334127Y0102813D01*
X0334127Y0103102D02*
X0334127Y0102315D01*
X0334914Y0102315D01*
X0334914Y0103102D01*
X0334127Y0103102D01*
X0334127Y0106802D01*
X0332848Y0106802D01*
X0332212Y0106701D01*
X0331599Y0106502D01*
X0331025Y0106210D01*
X0330504Y0105831D01*
X0330048Y0105375D01*
X0329669Y0104854D01*
X0329377Y0104280D01*
X0329178Y0103667D01*
X0329088Y0103102D01*
X0334127Y0103102D01*
X0334127Y0103599D02*
X0334914Y0103599D01*
X0334914Y0103102D02*
X0334914Y0106802D01*
X0336193Y0106802D01*
X0336829Y0106701D01*
X0337442Y0106502D01*
X0338016Y0106210D01*
X0338537Y0105831D01*
X0338993Y0105375D01*
X0339372Y0104854D01*
X0339664Y0104280D01*
X0339863Y0103667D01*
X0339953Y0103102D01*
X0334914Y0103102D01*
X0334914Y0102813D02*
X0383615Y0102813D01*
X0383710Y0102584D02*
X0385016Y0101278D01*
X0386723Y0100571D01*
X0388570Y0100571D01*
X0390277Y0101278D01*
X0391583Y0102584D01*
X0392290Y0104291D01*
X0392290Y0106138D01*
X0391583Y0107844D01*
X0390277Y0109151D01*
X0388570Y0109857D01*
X0386723Y0109857D01*
X0385016Y0109151D01*
X0383710Y0107844D01*
X0383003Y0106138D01*
X0383003Y0104291D01*
X0383710Y0102584D01*
X0384267Y0102027D02*
X0339907Y0102027D01*
X0339863Y0101750D02*
X0339664Y0101137D01*
X0339372Y0100563D01*
X0338993Y0100041D01*
X0338537Y0099586D01*
X0338016Y0099207D01*
X0337442Y0098915D01*
X0336829Y0098715D01*
X0336193Y0098615D01*
X0334914Y0098615D01*
X0334914Y0102315D01*
X0339953Y0102315D01*
X0339863Y0101750D01*
X0339698Y0101241D02*
X0385104Y0101241D01*
X0386269Y0099669D02*
X0338621Y0099669D01*
X0339294Y0100455D02*
X0396389Y0100455D01*
X0396389Y0099669D02*
X0389024Y0099669D01*
X0390544Y0098883D02*
X0396389Y0098883D01*
X0396389Y0098097D02*
X0391330Y0098097D01*
X0391803Y0097312D02*
X0396389Y0097312D01*
X0396389Y0096526D02*
X0392129Y0096526D01*
X0392290Y0095740D02*
X0396389Y0095740D01*
X0396389Y0094954D02*
X0392290Y0094954D01*
X0392239Y0094168D02*
X0396389Y0094168D01*
X0396389Y0093382D02*
X0391913Y0093382D01*
X0391588Y0092596D02*
X0396389Y0092596D01*
X0396389Y0091810D02*
X0390809Y0091810D01*
X0389665Y0091024D02*
X0396389Y0091024D01*
X0385745Y0089452D02*
X0339217Y0089452D01*
X0338312Y0088667D02*
X0384532Y0088667D01*
X0384749Y0098883D02*
X0337346Y0098883D01*
X0334914Y0098883D02*
X0334127Y0098883D01*
X0334127Y0099669D02*
X0334914Y0099669D01*
X0334914Y0100455D02*
X0334127Y0100455D01*
X0334127Y0101241D02*
X0334914Y0101241D01*
X0334914Y0102027D02*
X0334127Y0102027D01*
X0334127Y0104385D02*
X0334914Y0104385D01*
X0334914Y0105171D02*
X0334127Y0105171D01*
X0334127Y0105957D02*
X0334914Y0105957D01*
X0334914Y0106743D02*
X0334127Y0106743D01*
X0332473Y0106743D02*
X0310517Y0106743D01*
X0309731Y0107528D02*
X0383579Y0107528D01*
X0383254Y0106743D02*
X0336568Y0106743D01*
X0337462Y0108314D02*
X0384180Y0108314D01*
X0384966Y0109100D02*
X0338865Y0109100D01*
X0339651Y0109886D02*
X0396389Y0109886D01*
X0396389Y0109100D02*
X0390327Y0109100D01*
X0391113Y0108314D02*
X0396389Y0108314D01*
X0396389Y0107528D02*
X0391714Y0107528D01*
X0392039Y0106743D02*
X0396389Y0106743D01*
X0396389Y0105957D02*
X0392290Y0105957D01*
X0392290Y0105171D02*
X0396389Y0105171D01*
X0396389Y0104385D02*
X0392290Y0104385D01*
X0392003Y0103599D02*
X0396389Y0103599D01*
X0396389Y0102813D02*
X0391678Y0102813D01*
X0391026Y0102027D02*
X0396389Y0102027D01*
X0396389Y0101241D02*
X0390188Y0101241D01*
X0383289Y0103599D02*
X0339874Y0103599D01*
X0339611Y0104385D02*
X0383003Y0104385D01*
X0383003Y0105171D02*
X0339142Y0105171D01*
X0338364Y0105957D02*
X0383003Y0105957D01*
X0396389Y0110672D02*
X0340080Y0110672D01*
X0340406Y0111458D02*
X0396389Y0111458D01*
X0396389Y0112244D02*
X0340539Y0112244D01*
X0340539Y0113030D02*
X0396389Y0113030D01*
X0396389Y0113816D02*
X0340465Y0113816D01*
X0340139Y0114602D02*
X0396389Y0114602D01*
X0396389Y0115388D02*
X0339794Y0115388D01*
X0339008Y0116173D02*
X0396389Y0116173D01*
X0396389Y0116959D02*
X0337807Y0116959D01*
X0336799Y0118040D02*
X0338515Y0118751D01*
X0339828Y0120064D01*
X0340539Y0121780D01*
X0340539Y0123637D01*
X0339828Y0125353D01*
X0338515Y0126666D01*
X0336799Y0127377D01*
X0332242Y0127377D01*
X0330526Y0126666D01*
X0329213Y0125353D01*
X0328502Y0123637D01*
X0328502Y0121780D01*
X0329213Y0120064D01*
X0330526Y0118751D01*
X0332242Y0118040D01*
X0336799Y0118040D01*
X0337985Y0118531D02*
X0396389Y0118531D01*
X0396389Y0117745D02*
X0329177Y0117745D01*
X0329963Y0116959D02*
X0331234Y0116959D01*
X0331056Y0118531D02*
X0328391Y0118531D01*
X0327605Y0119317D02*
X0329959Y0119317D01*
X0329196Y0120103D02*
X0326819Y0120103D01*
X0326034Y0120889D02*
X0328871Y0120889D01*
X0328545Y0121675D02*
X0325248Y0121675D01*
X0324462Y0122461D02*
X0328502Y0122461D01*
X0328502Y0123247D02*
X0323676Y0123247D01*
X0322890Y0124033D02*
X0328666Y0124033D01*
X0328991Y0124819D02*
X0322104Y0124819D01*
X0321751Y0125604D02*
X0329464Y0125604D01*
X0330250Y0126390D02*
X0321751Y0126390D01*
X0321751Y0127176D02*
X0331758Y0127176D01*
X0330532Y0128748D02*
X0321751Y0128748D01*
X0321751Y0127962D02*
X0353985Y0127962D01*
X0354075Y0128052D02*
X0351677Y0125654D01*
X0351677Y0124352D01*
X0355377Y0124352D01*
X0355377Y0128052D01*
X0354075Y0128052D01*
X0353199Y0127176D02*
X0337283Y0127176D01*
X0338791Y0126390D02*
X0352413Y0126390D01*
X0351677Y0125604D02*
X0339577Y0125604D01*
X0340050Y0124819D02*
X0351677Y0124819D01*
X0351677Y0123565D02*
X0351677Y0122263D01*
X0354075Y0119865D01*
X0355377Y0119865D01*
X0355377Y0123565D01*
X0351677Y0123565D01*
X0351677Y0123247D02*
X0340539Y0123247D01*
X0340539Y0122461D02*
X0351677Y0122461D01*
X0352265Y0121675D02*
X0340496Y0121675D01*
X0340170Y0120889D02*
X0353051Y0120889D01*
X0353836Y0120103D02*
X0339844Y0120103D01*
X0339082Y0119317D02*
X0373809Y0119317D01*
X0373837Y0119290D02*
X0377704Y0119290D01*
X0380439Y0122025D01*
X0380439Y0125892D01*
X0377704Y0128627D01*
X0373837Y0128627D01*
X0371102Y0125892D01*
X0371102Y0122025D01*
X0373837Y0119290D01*
X0373024Y0120103D02*
X0357705Y0120103D01*
X0357466Y0119865D02*
X0359864Y0122263D01*
X0359864Y0123565D01*
X0356164Y0123565D01*
X0356164Y0124352D01*
X0355377Y0124352D01*
X0355377Y0123565D01*
X0356164Y0123565D01*
X0356164Y0119865D01*
X0357466Y0119865D01*
X0356164Y0120103D02*
X0355377Y0120103D01*
X0355377Y0120889D02*
X0356164Y0120889D01*
X0356164Y0121675D02*
X0355377Y0121675D01*
X0355377Y0122461D02*
X0356164Y0122461D01*
X0356164Y0123247D02*
X0355377Y0123247D01*
X0355377Y0124033D02*
X0340375Y0124033D01*
X0338509Y0128748D02*
X0396389Y0128748D01*
X0396389Y0127962D02*
X0378369Y0127962D01*
X0379155Y0127176D02*
X0396389Y0127176D01*
X0396389Y0126390D02*
X0379941Y0126390D01*
X0380439Y0125604D02*
X0396389Y0125604D01*
X0396389Y0124819D02*
X0380439Y0124819D01*
X0380439Y0124033D02*
X0396389Y0124033D01*
X0396389Y0123247D02*
X0380439Y0123247D01*
X0380439Y0122461D02*
X0396389Y0122461D01*
X0396389Y0121675D02*
X0380089Y0121675D01*
X0379303Y0120889D02*
X0396389Y0120889D01*
X0396389Y0120103D02*
X0378517Y0120103D01*
X0377732Y0119317D02*
X0396389Y0119317D01*
X0396389Y0129534D02*
X0339298Y0129534D01*
X0339934Y0130320D02*
X0396389Y0130320D01*
X0396389Y0131106D02*
X0340260Y0131106D01*
X0340539Y0131892D02*
X0396389Y0131892D01*
X0396389Y0132678D02*
X0340539Y0132678D01*
X0340539Y0133464D02*
X0396389Y0133464D01*
X0396389Y0134249D02*
X0340285Y0134249D01*
X0339960Y0135035D02*
X0396389Y0135035D01*
X0396389Y0135821D02*
X0339360Y0135821D01*
X0338574Y0136607D02*
X0396389Y0136607D01*
X0396389Y0137393D02*
X0329536Y0137393D01*
X0330322Y0136607D02*
X0330467Y0136607D01*
X0331906Y0138179D02*
X0328750Y0138179D01*
X0327964Y0138965D02*
X0330312Y0138965D01*
X0330526Y0138751D02*
X0329213Y0140064D01*
X0328502Y0141780D01*
X0328502Y0143637D01*
X0329213Y0145353D01*
X0330526Y0146666D01*
X0332242Y0147377D01*
X0336799Y0147377D01*
X0338515Y0146666D01*
X0339828Y0145353D01*
X0340539Y0143637D01*
X0340539Y0141780D01*
X0339828Y0140064D01*
X0338515Y0138751D01*
X0336799Y0138040D01*
X0332242Y0138040D01*
X0330526Y0138751D01*
X0329526Y0139751D02*
X0327178Y0139751D01*
X0326753Y0140537D02*
X0329017Y0140537D01*
X0328691Y0141323D02*
X0326753Y0141323D01*
X0326753Y0142109D02*
X0328502Y0142109D01*
X0328502Y0142895D02*
X0326753Y0142895D01*
X0326753Y0143680D02*
X0328520Y0143680D01*
X0328846Y0144466D02*
X0326753Y0144466D01*
X0326753Y0145252D02*
X0329171Y0145252D01*
X0329898Y0146038D02*
X0326669Y0146038D01*
X0326343Y0146824D02*
X0330907Y0146824D01*
X0331382Y0148396D02*
X0324785Y0148396D01*
X0323999Y0149182D02*
X0330095Y0149182D01*
X0330526Y0148751D02*
X0329244Y0150033D01*
X0325324Y0150033D01*
X0324311Y0150453D01*
X0323536Y0151228D01*
X0309726Y0165038D01*
X0294814Y0165038D01*
X0294814Y0164994D01*
X0293661Y0163841D01*
X0288062Y0163841D01*
X0286909Y0164994D01*
X0286909Y0170593D01*
X0288062Y0171746D01*
X0293661Y0171746D01*
X0294814Y0170593D01*
X0294814Y0170550D01*
X0311416Y0170550D01*
X0312429Y0170130D01*
X0327014Y0155545D01*
X0329405Y0155545D01*
X0330526Y0156666D01*
X0332242Y0157377D01*
X0336799Y0157377D01*
X0338515Y0156666D01*
X0339828Y0155353D01*
X0340539Y0153637D01*
X0340539Y0151780D01*
X0339828Y0150064D01*
X0338515Y0148751D01*
X0336799Y0148040D01*
X0332242Y0148040D01*
X0330526Y0148751D01*
X0329309Y0149968D02*
X0323213Y0149968D01*
X0322427Y0150754D02*
X0324010Y0150754D01*
X0323224Y0151540D02*
X0321641Y0151540D01*
X0320855Y0152325D02*
X0322439Y0152325D01*
X0321653Y0153111D02*
X0320069Y0153111D01*
X0319284Y0153897D02*
X0320867Y0153897D01*
X0320081Y0154683D02*
X0318498Y0154683D01*
X0317712Y0155469D02*
X0319295Y0155469D01*
X0318509Y0156255D02*
X0316926Y0156255D01*
X0316140Y0157041D02*
X0317723Y0157041D01*
X0316937Y0157827D02*
X0315354Y0157827D01*
X0314568Y0158613D02*
X0316151Y0158613D01*
X0315365Y0159399D02*
X0313782Y0159399D01*
X0314579Y0160185D02*
X0312915Y0160185D01*
X0313793Y0160970D02*
X0280204Y0160970D01*
X0280529Y0161756D02*
X0313008Y0161756D01*
X0312222Y0162542D02*
X0280539Y0162542D01*
X0280539Y0163328D02*
X0311436Y0163328D01*
X0310650Y0164114D02*
X0293934Y0164114D01*
X0294720Y0164900D02*
X0309864Y0164900D01*
X0313729Y0168830D02*
X0315894Y0168830D01*
X0315043Y0169616D02*
X0312943Y0169616D01*
X0311774Y0170401D02*
X0314191Y0170401D01*
X0313340Y0171187D02*
X0294220Y0171187D01*
X0287503Y0171187D02*
X0280294Y0171187D01*
X0280539Y0171973D02*
X0312488Y0171973D01*
X0311637Y0172759D02*
X0280539Y0172759D01*
X0280539Y0173545D02*
X0310786Y0173545D01*
X0309934Y0174331D02*
X0280252Y0174331D01*
X0279968Y0170401D02*
X0286909Y0170401D01*
X0286909Y0169616D02*
X0279380Y0169616D01*
X0278594Y0168830D02*
X0286909Y0168830D01*
X0286909Y0168044D02*
X0276808Y0168044D01*
X0277086Y0167258D02*
X0286909Y0167258D01*
X0286909Y0166472D02*
X0278709Y0166472D01*
X0279495Y0165686D02*
X0286909Y0165686D01*
X0287003Y0164900D02*
X0280016Y0164900D01*
X0280341Y0164114D02*
X0287788Y0164114D01*
X0272232Y0168044D02*
X0265624Y0168044D01*
X0266410Y0168830D02*
X0270447Y0168830D01*
X0269661Y0169616D02*
X0267196Y0169616D01*
X0267982Y0170401D02*
X0269073Y0170401D01*
X0271955Y0167258D02*
X0264838Y0167258D01*
X0264052Y0166472D02*
X0270332Y0166472D01*
X0269546Y0165686D02*
X0263267Y0165686D01*
X0262481Y0164900D02*
X0269025Y0164900D01*
X0268700Y0164114D02*
X0261695Y0164114D01*
X0260909Y0163328D02*
X0268502Y0163328D01*
X0268502Y0162542D02*
X0260123Y0162542D01*
X0259337Y0161756D02*
X0268512Y0161756D01*
X0268837Y0160970D02*
X0258551Y0160970D01*
X0280195Y0144466D02*
X0314461Y0144466D01*
X0315135Y0143680D02*
X0280521Y0143680D01*
X0280539Y0142895D02*
X0315808Y0142895D01*
X0316239Y0142109D02*
X0300722Y0142109D01*
X0301508Y0141323D02*
X0316239Y0141323D01*
X0316239Y0140537D02*
X0301657Y0140537D01*
X0301657Y0139751D02*
X0316239Y0139751D01*
X0316239Y0138965D02*
X0301657Y0138965D01*
X0301657Y0138179D02*
X0316239Y0138179D01*
X0316239Y0137393D02*
X0301657Y0137393D01*
X0301657Y0136607D02*
X0316239Y0136607D01*
X0316239Y0135821D02*
X0301657Y0135821D01*
X0301657Y0135035D02*
X0316239Y0135035D01*
X0316239Y0134249D02*
X0301512Y0134249D01*
X0300726Y0133464D02*
X0316239Y0133464D01*
X0316239Y0132678D02*
X0280539Y0132678D01*
X0280539Y0133464D02*
X0293500Y0133464D01*
X0292714Y0134249D02*
X0280285Y0134249D01*
X0280539Y0131892D02*
X0316239Y0131892D01*
X0316239Y0131106D02*
X0280260Y0131106D01*
X0286417Y0130320D02*
X0316239Y0130320D01*
X0316239Y0129534D02*
X0287726Y0129534D01*
X0288512Y0128748D02*
X0316239Y0128748D01*
X0316239Y0127962D02*
X0289298Y0127962D01*
X0290083Y0127176D02*
X0316239Y0127176D01*
X0316239Y0126390D02*
X0290869Y0126390D01*
X0291655Y0125604D02*
X0316239Y0125604D01*
X0316239Y0124819D02*
X0292441Y0124819D01*
X0293227Y0124033D02*
X0316239Y0124033D01*
X0316337Y0123247D02*
X0294013Y0123247D01*
X0294799Y0122461D02*
X0316667Y0122461D01*
X0317453Y0121675D02*
X0295585Y0121675D01*
X0296371Y0120889D02*
X0318239Y0120889D01*
X0319025Y0120103D02*
X0297157Y0120103D01*
X0297943Y0119317D02*
X0319810Y0119317D01*
X0320596Y0118531D02*
X0298728Y0118531D01*
X0299514Y0117745D02*
X0321382Y0117745D01*
X0322168Y0116959D02*
X0300300Y0116959D01*
X0301086Y0116173D02*
X0322954Y0116173D01*
X0323740Y0115388D02*
X0301872Y0115388D01*
X0302658Y0114602D02*
X0324526Y0114602D01*
X0325312Y0113816D02*
X0303444Y0113816D01*
X0304230Y0113030D02*
X0326098Y0113030D01*
X0326884Y0112244D02*
X0305016Y0112244D01*
X0305802Y0111458D02*
X0327670Y0111458D01*
X0328961Y0110672D02*
X0306588Y0110672D01*
X0307373Y0109886D02*
X0329390Y0109886D01*
X0330176Y0109100D02*
X0308159Y0109100D01*
X0308945Y0108314D02*
X0331579Y0108314D01*
X0330677Y0105957D02*
X0311303Y0105957D01*
X0312089Y0105171D02*
X0329899Y0105171D01*
X0329430Y0104385D02*
X0312875Y0104385D01*
X0313661Y0103599D02*
X0329167Y0103599D01*
X0330386Y0096526D02*
X0320734Y0096526D01*
X0321520Y0095740D02*
X0329600Y0095740D01*
X0338004Y0076878D02*
X0383310Y0076878D01*
X0383003Y0076092D02*
X0339089Y0076092D01*
X0339848Y0075306D02*
X0383003Y0075306D01*
X0383003Y0074520D02*
X0340173Y0074520D01*
X0340499Y0073734D02*
X0383233Y0073734D01*
X0383559Y0072948D02*
X0340539Y0072948D01*
X0340539Y0072162D02*
X0384131Y0072162D01*
X0384917Y0071376D02*
X0340372Y0071376D01*
X0338520Y0066661D02*
X0383220Y0066661D01*
X0383003Y0065875D02*
X0339306Y0065875D01*
X0339937Y0065089D02*
X0383003Y0065089D01*
X0383003Y0064303D02*
X0340263Y0064303D01*
X0340539Y0063517D02*
X0383323Y0063517D01*
X0383649Y0062731D02*
X0340539Y0062731D01*
X0340539Y0061945D02*
X0384348Y0061945D01*
X0385301Y0061160D02*
X0340282Y0061160D01*
X0339957Y0060374D02*
X0396389Y0060374D01*
X0396389Y0061160D02*
X0389991Y0061160D01*
X0390944Y0061945D02*
X0396389Y0061945D01*
X0396389Y0062731D02*
X0391644Y0062731D01*
X0391969Y0063517D02*
X0396389Y0063517D01*
X0396389Y0064303D02*
X0392290Y0064303D01*
X0392290Y0065089D02*
X0396389Y0065089D01*
X0396389Y0065875D02*
X0392290Y0065875D01*
X0392073Y0066661D02*
X0396389Y0066661D01*
X0396389Y0067447D02*
X0391747Y0067447D01*
X0391194Y0068233D02*
X0396389Y0068233D01*
X0396389Y0069019D02*
X0390408Y0069019D01*
X0388697Y0069805D02*
X0396389Y0069805D01*
X0396389Y0059588D02*
X0389221Y0059588D01*
X0388570Y0059857D02*
X0386723Y0059857D01*
X0385016Y0059151D01*
X0383710Y0057844D01*
X0383003Y0056138D01*
X0383003Y0054291D01*
X0383710Y0052584D01*
X0385016Y0051278D01*
X0386723Y0050571D01*
X0388570Y0050571D01*
X0390277Y0051278D01*
X0391583Y0052584D01*
X0392290Y0054291D01*
X0392290Y0056138D01*
X0391583Y0057844D01*
X0390277Y0059151D01*
X0388570Y0059857D01*
X0390625Y0058802D02*
X0396389Y0058802D01*
X0396389Y0058016D02*
X0391411Y0058016D01*
X0391837Y0057230D02*
X0396389Y0057230D01*
X0396389Y0056444D02*
X0392163Y0056444D01*
X0392290Y0055658D02*
X0396389Y0055658D01*
X0396389Y0054872D02*
X0392290Y0054872D01*
X0392205Y0054086D02*
X0396389Y0054086D01*
X0396389Y0053300D02*
X0391879Y0053300D01*
X0391513Y0052515D02*
X0396389Y0052515D01*
X0396389Y0051729D02*
X0390727Y0051729D01*
X0389468Y0050943D02*
X0396389Y0050943D01*
X0396389Y0050157D02*
X0339867Y0050157D01*
X0340192Y0050943D02*
X0385825Y0050943D01*
X0384565Y0051729D02*
X0340518Y0051729D01*
X0340539Y0052515D02*
X0383779Y0052515D01*
X0383413Y0053300D02*
X0340539Y0053300D01*
X0340353Y0054086D02*
X0383088Y0054086D01*
X0383003Y0054872D02*
X0340027Y0054872D01*
X0339523Y0055658D02*
X0383003Y0055658D01*
X0383130Y0056444D02*
X0338737Y0056444D01*
X0337154Y0057230D02*
X0383455Y0057230D01*
X0383881Y0058016D02*
X0332360Y0058016D01*
X0328266Y0054872D02*
X0279358Y0054872D01*
X0279727Y0054086D02*
X0328688Y0054086D01*
X0328502Y0053300D02*
X0279921Y0053300D01*
X0278710Y0055658D02*
X0327480Y0055658D01*
X0326694Y0056444D02*
X0277556Y0056444D01*
X0269689Y0059588D02*
X0221408Y0059588D01*
X0223126Y0062401D02*
X0224842Y0061690D01*
X0226699Y0061690D01*
X0228415Y0062401D01*
X0229728Y0063714D01*
X0230439Y0065430D01*
X0230439Y0069987D01*
X0229728Y0071703D01*
X0228415Y0073016D01*
X0226699Y0073727D01*
X0224842Y0073727D01*
X0223126Y0073016D01*
X0221813Y0071703D01*
X0221102Y0069987D01*
X0221102Y0065430D01*
X0221813Y0063714D01*
X0223126Y0062401D01*
X0222795Y0062731D02*
X0218746Y0062731D01*
X0219532Y0063517D02*
X0222009Y0063517D01*
X0221569Y0064303D02*
X0219972Y0064303D01*
X0220298Y0065089D02*
X0221243Y0065089D01*
X0221102Y0065875D02*
X0220439Y0065875D01*
X0220439Y0066661D02*
X0221102Y0066661D01*
X0221102Y0067447D02*
X0220439Y0067447D01*
X0220439Y0068233D02*
X0221102Y0068233D01*
X0221102Y0069019D02*
X0220439Y0069019D01*
X0220439Y0069805D02*
X0221102Y0069805D01*
X0221352Y0070591D02*
X0220189Y0070591D01*
X0219863Y0071376D02*
X0221678Y0071376D01*
X0222272Y0072162D02*
X0219269Y0072162D01*
X0218483Y0072948D02*
X0223058Y0072948D01*
X0228483Y0072948D02*
X0233058Y0072948D01*
X0233126Y0073016D02*
X0231813Y0071703D01*
X0231102Y0069987D01*
X0231102Y0065430D01*
X0231813Y0063714D01*
X0233126Y0062401D01*
X0234842Y0061690D01*
X0236699Y0061690D01*
X0238415Y0062401D01*
X0239728Y0063714D01*
X0240439Y0065430D01*
X0240439Y0069987D01*
X0239728Y0071703D01*
X0238415Y0073016D01*
X0236699Y0073727D01*
X0234842Y0073727D01*
X0233126Y0073016D01*
X0232272Y0072162D02*
X0229269Y0072162D01*
X0229863Y0071376D02*
X0231678Y0071376D01*
X0231352Y0070591D02*
X0230189Y0070591D01*
X0230439Y0069805D02*
X0231102Y0069805D01*
X0231102Y0069019D02*
X0230439Y0069019D01*
X0230439Y0068233D02*
X0231102Y0068233D01*
X0231102Y0067447D02*
X0230439Y0067447D01*
X0230439Y0066661D02*
X0231102Y0066661D01*
X0231102Y0065875D02*
X0230439Y0065875D01*
X0230298Y0065089D02*
X0231243Y0065089D01*
X0231569Y0064303D02*
X0229972Y0064303D01*
X0229532Y0063517D02*
X0232009Y0063517D01*
X0232795Y0062731D02*
X0228746Y0062731D01*
X0227316Y0061945D02*
X0234225Y0061945D01*
X0237316Y0061945D02*
X0256266Y0061945D01*
X0257052Y0061160D02*
X0217216Y0061160D01*
X0217558Y0061945D02*
X0224225Y0061945D01*
X0217633Y0059588D02*
X0216533Y0059588D01*
X0216271Y0058802D02*
X0216191Y0058802D01*
X0216875Y0060374D02*
X0269084Y0060374D01*
X0269735Y0065875D02*
X0259574Y0065875D01*
X0258788Y0066661D02*
X0270521Y0066661D01*
X0271776Y0068233D02*
X0257216Y0068233D01*
X0256431Y0069019D02*
X0270258Y0069019D01*
X0269472Y0069805D02*
X0255645Y0069805D01*
X0254859Y0070591D02*
X0268995Y0070591D01*
X0268669Y0071376D02*
X0254073Y0071376D01*
X0253287Y0072162D02*
X0268502Y0072162D01*
X0268502Y0072948D02*
X0252501Y0072948D01*
X0251715Y0073734D02*
X0268542Y0073734D01*
X0268868Y0074520D02*
X0250929Y0074520D01*
X0250143Y0075306D02*
X0264477Y0075306D01*
X0263282Y0076092D02*
X0249357Y0076092D01*
X0248571Y0076878D02*
X0262496Y0076878D01*
X0261710Y0077664D02*
X0247785Y0077664D01*
X0247000Y0078450D02*
X0260924Y0078450D01*
X0260138Y0079236D02*
X0246214Y0079236D01*
X0245428Y0080021D02*
X0259352Y0080021D01*
X0258567Y0080807D02*
X0244642Y0080807D01*
X0243856Y0081593D02*
X0257781Y0081593D01*
X0256995Y0082379D02*
X0243070Y0082379D01*
X0242284Y0083165D02*
X0256209Y0083165D01*
X0255423Y0083951D02*
X0241498Y0083951D01*
X0240712Y0084737D02*
X0254637Y0084737D01*
X0253851Y0085523D02*
X0239926Y0085523D01*
X0239140Y0086309D02*
X0253065Y0086309D01*
X0252279Y0087095D02*
X0193711Y0087095D01*
X0192925Y0087881D02*
X0251493Y0087881D01*
X0250707Y0088667D02*
X0192139Y0088667D01*
X0191353Y0089452D02*
X0249922Y0089452D01*
X0249136Y0090238D02*
X0190567Y0090238D01*
X0189781Y0091024D02*
X0248350Y0091024D01*
X0247564Y0091810D02*
X0188995Y0091810D01*
X0188209Y0092596D02*
X0246778Y0092596D01*
X0245992Y0093382D02*
X0187423Y0093382D01*
X0186637Y0094168D02*
X0245206Y0094168D01*
X0244420Y0094954D02*
X0185851Y0094954D01*
X0185066Y0095740D02*
X0201808Y0095740D01*
X0201022Y0096526D02*
X0184280Y0096526D01*
X0183494Y0097312D02*
X0200666Y0097312D01*
X0200666Y0098097D02*
X0182708Y0098097D01*
X0181922Y0098883D02*
X0200666Y0098883D01*
X0200666Y0099669D02*
X0181136Y0099669D01*
X0180350Y0100455D02*
X0200666Y0100455D01*
X0200666Y0101241D02*
X0179564Y0101241D01*
X0178778Y0102027D02*
X0200666Y0102027D01*
X0200666Y0102813D02*
X0177992Y0102813D01*
X0177206Y0103599D02*
X0200666Y0103599D01*
X0209752Y0097312D02*
X0242062Y0097312D01*
X0242848Y0096526D02*
X0209396Y0096526D01*
X0208610Y0095740D02*
X0243634Y0095740D01*
X0236618Y0081593D02*
X0185040Y0081593D01*
X0184254Y0082379D02*
X0191188Y0082379D01*
X0190402Y0083165D02*
X0183468Y0083165D01*
X0182683Y0083951D02*
X0189616Y0083951D01*
X0188830Y0084737D02*
X0181897Y0084737D01*
X0181111Y0085523D02*
X0188044Y0085523D01*
X0187258Y0086309D02*
X0180325Y0086309D01*
X0179539Y0087095D02*
X0186473Y0087095D01*
X0185687Y0087881D02*
X0178753Y0087881D01*
X0177967Y0088667D02*
X0184901Y0088667D01*
X0184115Y0089452D02*
X0177181Y0089452D01*
X0176395Y0090238D02*
X0183329Y0090238D01*
X0182543Y0091024D02*
X0175609Y0091024D01*
X0174823Y0091810D02*
X0181757Y0091810D01*
X0180971Y0092596D02*
X0174038Y0092596D01*
X0173252Y0093382D02*
X0180185Y0093382D01*
X0179399Y0094168D02*
X0172466Y0094168D01*
X0171680Y0094954D02*
X0178613Y0094954D01*
X0177827Y0095740D02*
X0170894Y0095740D01*
X0170108Y0096526D02*
X0177042Y0096526D01*
X0176256Y0097312D02*
X0169322Y0097312D01*
X0168536Y0098097D02*
X0175470Y0098097D01*
X0174684Y0098883D02*
X0167750Y0098883D01*
X0166964Y0099669D02*
X0173898Y0099669D01*
X0173112Y0100455D02*
X0166178Y0100455D01*
X0168475Y0122461D02*
X0173066Y0122461D01*
X0172280Y0123247D02*
X0169261Y0123247D01*
X0169860Y0124033D02*
X0171681Y0124033D01*
X0171355Y0124819D02*
X0170186Y0124819D01*
X0170439Y0125604D02*
X0171102Y0125604D01*
X0171102Y0126390D02*
X0170439Y0126390D01*
X0170439Y0127176D02*
X0171102Y0127176D01*
X0171102Y0127962D02*
X0170439Y0127962D01*
X0170439Y0128748D02*
X0171102Y0128748D01*
X0171102Y0129534D02*
X0170439Y0129534D01*
X0170301Y0130320D02*
X0171240Y0130320D01*
X0171565Y0131106D02*
X0169976Y0131106D01*
X0169539Y0131892D02*
X0172002Y0131892D01*
X0171803Y0132678D02*
X0169314Y0132678D01*
X0169314Y0133464D02*
X0171300Y0133464D01*
X0170975Y0134249D02*
X0169314Y0134249D01*
X0169596Y0135035D02*
X0170733Y0135035D01*
X0170733Y0135821D02*
X0170182Y0135821D01*
X0170508Y0136607D02*
X0170733Y0136607D01*
X0170807Y0137393D02*
X0170965Y0137393D01*
X0170807Y0138179D02*
X0171290Y0138179D01*
X0170807Y0138965D02*
X0171779Y0138965D01*
X0172565Y0139751D02*
X0170635Y0139751D01*
X0170310Y0140537D02*
X0173015Y0140537D01*
X0173015Y0141323D02*
X0169905Y0141323D01*
X0169119Y0142109D02*
X0173015Y0142109D01*
X0173015Y0142895D02*
X0167921Y0142895D01*
X0163620Y0142895D02*
X0158330Y0142895D01*
X0158330Y0143680D02*
X0173015Y0143680D01*
X0173015Y0144466D02*
X0158330Y0144466D01*
X0158330Y0145252D02*
X0173015Y0145252D01*
X0173015Y0146038D02*
X0158330Y0146038D01*
X0158330Y0146824D02*
X0173015Y0146824D01*
X0173015Y0147610D02*
X0158330Y0147610D01*
X0158331Y0148396D02*
X0173321Y0148396D01*
X0173947Y0149182D02*
X0158249Y0149182D01*
X0157903Y0149968D02*
X0174733Y0149968D01*
X0175519Y0150754D02*
X0157558Y0150754D01*
X0157213Y0151540D02*
X0176304Y0151540D01*
X0177090Y0152325D02*
X0156867Y0152325D01*
X0156522Y0153111D02*
X0177876Y0153111D01*
X0178662Y0153897D02*
X0156176Y0153897D01*
X0155831Y0154683D02*
X0179448Y0154683D01*
X0180234Y0155469D02*
X0155486Y0155469D01*
X0155140Y0156255D02*
X0181020Y0156255D01*
X0181806Y0157041D02*
X0154795Y0157041D01*
X0154450Y0157827D02*
X0182592Y0157827D01*
X0183378Y0158613D02*
X0154104Y0158613D01*
X0153759Y0159399D02*
X0184164Y0159399D01*
X0184950Y0160185D02*
X0153414Y0160185D01*
X0153068Y0160970D02*
X0185735Y0160970D01*
X0186521Y0161756D02*
X0152723Y0161756D01*
X0152378Y0162542D02*
X0187307Y0162542D01*
X0188093Y0163328D02*
X0152032Y0163328D01*
X0151687Y0164114D02*
X0188879Y0164114D01*
X0189665Y0164900D02*
X0151341Y0164900D01*
X0150996Y0165686D02*
X0190451Y0165686D01*
X0191237Y0166472D02*
X0150651Y0166472D01*
X0150305Y0167258D02*
X0192023Y0167258D01*
X0192809Y0168044D02*
X0149960Y0168044D01*
X0149615Y0168830D02*
X0193595Y0168830D01*
X0194380Y0169616D02*
X0149269Y0169616D01*
X0148924Y0170401D02*
X0195166Y0170401D01*
X0195952Y0171187D02*
X0148579Y0171187D01*
X0148233Y0171973D02*
X0196738Y0171973D01*
X0197524Y0172759D02*
X0147888Y0172759D01*
X0147543Y0173545D02*
X0198310Y0173545D01*
X0199096Y0174331D02*
X0147197Y0174331D01*
X0146852Y0175117D02*
X0199882Y0175117D01*
X0200668Y0175903D02*
X0146507Y0175903D01*
X0146161Y0176689D02*
X0201454Y0176689D01*
X0202240Y0177475D02*
X0145816Y0177475D01*
X0145470Y0178261D02*
X0203030Y0178261D01*
X0207832Y0184652D02*
X0214963Y0184652D01*
X0215582Y0185271D01*
X0217067Y0185271D01*
X0217870Y0184468D01*
X0223469Y0184468D01*
X0224272Y0185271D01*
X0248463Y0185271D01*
X0249082Y0184652D01*
X0256213Y0184652D01*
X0257086Y0185526D01*
X0257630Y0185751D01*
X0257634Y0185755D01*
X0258520Y0186641D01*
X0259000Y0187799D01*
X0259000Y0189052D01*
X0258520Y0190209D01*
X0257634Y0191095D01*
X0257075Y0191327D01*
X0256635Y0191767D01*
X0257366Y0192498D01*
X0257366Y0197729D01*
X0256213Y0198882D01*
X0249082Y0198882D01*
X0248733Y0198534D01*
X0247081Y0200186D01*
X0243214Y0200186D01*
X0240479Y0197451D01*
X0240479Y0193583D01*
X0242492Y0191570D01*
X0237803Y0191570D01*
X0239816Y0193583D01*
X0239816Y0197451D01*
X0237081Y0200186D01*
X0233214Y0200186D01*
X0231380Y0198352D01*
X0230278Y0199454D01*
X0228571Y0200161D01*
X0226724Y0200161D01*
X0225017Y0199454D01*
X0223711Y0198147D01*
X0223004Y0196441D01*
X0223004Y0194594D01*
X0223711Y0192887D01*
X0225017Y0191581D01*
X0225043Y0191570D01*
X0224272Y0191570D01*
X0223469Y0192374D01*
X0217870Y0192374D01*
X0217067Y0191570D01*
X0215582Y0191570D01*
X0215385Y0191767D01*
X0216116Y0192498D01*
X0216116Y0197729D01*
X0214963Y0198882D01*
X0207832Y0198882D01*
X0207483Y0198534D01*
X0205831Y0200186D01*
X0201964Y0200186D01*
X0199229Y0197451D01*
X0199229Y0193583D01*
X0200930Y0191883D01*
X0196865Y0191883D01*
X0198566Y0193583D01*
X0198566Y0197451D01*
X0195831Y0200186D01*
X0191964Y0200186D01*
X0190130Y0198352D01*
X0189028Y0199454D01*
X0187321Y0200161D01*
X0185474Y0200161D01*
X0183767Y0199454D01*
X0182461Y0198147D01*
X0181754Y0196441D01*
X0181754Y0194594D01*
X0182461Y0192887D01*
X0183465Y0191883D01*
X0170894Y0191883D01*
X0170697Y0192080D01*
X0171428Y0192811D01*
X0171428Y0198042D01*
X0170275Y0199195D01*
X0163145Y0199195D01*
X0162483Y0198534D01*
X0161144Y0199873D01*
X0157276Y0199873D01*
X0154541Y0197138D01*
X0154541Y0193271D01*
X0157276Y0190536D01*
X0161144Y0190536D01*
X0162705Y0192097D01*
X0162723Y0192080D01*
X0161991Y0191349D01*
X0161991Y0186118D01*
X0163145Y0184965D01*
X0170275Y0184965D01*
X0170894Y0185584D01*
X0206901Y0185584D01*
X0207832Y0184652D01*
X0207151Y0185334D02*
X0170644Y0185334D01*
X0162776Y0185334D02*
X0142362Y0185334D01*
X0142017Y0186120D02*
X0161991Y0186120D01*
X0161991Y0186906D02*
X0141672Y0186906D01*
X0141326Y0187692D02*
X0161991Y0187692D01*
X0161991Y0188477D02*
X0140981Y0188477D01*
X0140636Y0189263D02*
X0161991Y0189263D01*
X0161991Y0190049D02*
X0140290Y0190049D01*
X0139945Y0190835D02*
X0156977Y0190835D01*
X0156191Y0191621D02*
X0151416Y0191621D01*
X0150906Y0191111D02*
X0153304Y0193509D01*
X0153304Y0194811D01*
X0149604Y0194811D01*
X0149604Y0195598D01*
X0153304Y0195598D01*
X0153304Y0196900D01*
X0150906Y0199298D01*
X0149604Y0199298D01*
X0149604Y0195598D01*
X0148816Y0195598D01*
X0148816Y0194811D01*
X0145116Y0194811D01*
X0145116Y0193509D01*
X0147514Y0191111D01*
X0148816Y0191111D01*
X0148816Y0194811D01*
X0149604Y0194811D01*
X0149604Y0191111D01*
X0150906Y0191111D01*
X0149604Y0191621D02*
X0148816Y0191621D01*
X0148816Y0192407D02*
X0149604Y0192407D01*
X0149604Y0193193D02*
X0148816Y0193193D01*
X0148816Y0193979D02*
X0149604Y0193979D01*
X0149604Y0194765D02*
X0148816Y0194765D01*
X0148816Y0195551D02*
X0139139Y0195551D01*
X0139139Y0194765D02*
X0145116Y0194765D01*
X0145116Y0193979D02*
X0138917Y0193979D01*
X0138909Y0193193D02*
X0145432Y0193193D01*
X0146218Y0192407D02*
X0139254Y0192407D01*
X0139599Y0191621D02*
X0147004Y0191621D01*
X0152202Y0192407D02*
X0155405Y0192407D01*
X0154620Y0193193D02*
X0152988Y0193193D01*
X0153304Y0193979D02*
X0154541Y0193979D01*
X0154541Y0194765D02*
X0153304Y0194765D01*
X0154541Y0195551D02*
X0149604Y0195551D01*
X0149604Y0196337D02*
X0148816Y0196337D01*
X0148816Y0195598D02*
X0148816Y0199298D01*
X0147514Y0199298D01*
X0145116Y0196900D01*
X0145116Y0195598D01*
X0148816Y0195598D01*
X0148816Y0197122D02*
X0149604Y0197122D01*
X0149604Y0197908D02*
X0148816Y0197908D01*
X0148816Y0198694D02*
X0149604Y0198694D01*
X0151510Y0198694D02*
X0156097Y0198694D01*
X0155311Y0197908D02*
X0152296Y0197908D01*
X0153082Y0197122D02*
X0154541Y0197122D01*
X0154541Y0196337D02*
X0153304Y0196337D01*
X0156883Y0199480D02*
X0028807Y0199480D01*
X0028481Y0198694D02*
X0133046Y0198694D01*
X0132202Y0197908D02*
X0028156Y0197908D01*
X0028144Y0197881D02*
X0029468Y0201076D01*
X0029468Y0204534D01*
X0028144Y0207729D01*
X0025699Y0210174D01*
X0022504Y0211498D01*
X0019046Y0211498D01*
X0015851Y0210174D01*
X0013405Y0207729D01*
X0012082Y0204534D01*
X0012082Y0201076D01*
X0013405Y0197881D01*
X0015851Y0195435D01*
X0019046Y0194112D01*
X0022504Y0194112D01*
X0025699Y0195435D01*
X0028144Y0197881D01*
X0027386Y0197122D02*
X0131662Y0197122D01*
X0131336Y0196337D02*
X0026600Y0196337D01*
X0025814Y0195551D02*
X0131234Y0195551D01*
X0131234Y0194765D02*
X0024080Y0194765D01*
X0017470Y0194765D02*
X0009532Y0194765D01*
X0009532Y0195551D02*
X0015736Y0195551D01*
X0014950Y0196337D02*
X0009532Y0196337D01*
X0009532Y0197122D02*
X0014164Y0197122D01*
X0013394Y0197908D02*
X0009532Y0197908D01*
X0009532Y0198694D02*
X0013068Y0198694D01*
X0012743Y0199480D02*
X0009532Y0199480D01*
X0009532Y0200266D02*
X0012417Y0200266D01*
X0012092Y0201052D02*
X0009532Y0201052D01*
X0009532Y0201838D02*
X0012082Y0201838D01*
X0012082Y0202624D02*
X0009532Y0202624D01*
X0009532Y0203410D02*
X0012082Y0203410D01*
X0012082Y0204196D02*
X0009532Y0204196D01*
X0009532Y0204982D02*
X0012267Y0204982D01*
X0012593Y0205768D02*
X0009532Y0205768D01*
X0009532Y0206553D02*
X0012918Y0206553D01*
X0013244Y0207339D02*
X0009532Y0207339D01*
X0009532Y0208125D02*
X0013802Y0208125D01*
X0014588Y0208911D02*
X0009532Y0208911D01*
X0009532Y0209697D02*
X0015373Y0209697D01*
X0016596Y0210483D02*
X0009532Y0210483D01*
X0009532Y0211269D02*
X0018493Y0211269D01*
X0023057Y0211269D02*
X0066206Y0211269D01*
X0066206Y0211731D02*
X0066206Y0206839D01*
X0065885Y0206839D01*
X0064941Y0206448D01*
X0064218Y0205726D01*
X0063827Y0204782D01*
X0063827Y0203760D01*
X0064218Y0202816D01*
X0064941Y0202093D01*
X0065885Y0201702D01*
X0133781Y0201702D01*
X0134725Y0202093D01*
X0135448Y0202816D01*
X0135839Y0203760D01*
X0135839Y0210719D01*
X0135448Y0211663D01*
X0134725Y0212386D01*
X0133781Y0212777D01*
X0132760Y0212777D01*
X0131896Y0212419D01*
X0131197Y0213118D01*
X0127824Y0213118D01*
X0126833Y0213118D01*
X0126037Y0212322D01*
X0125240Y0213118D01*
X0122648Y0213118D01*
X0121677Y0213118D01*
X0121677Y0213118D01*
X0121677Y0213118D01*
X0121281Y0212722D01*
X0120884Y0213118D01*
X0117511Y0213118D01*
X0116520Y0213118D01*
X0115720Y0212318D01*
X0115720Y0212318D01*
X0114332Y0210930D01*
X0114332Y0209929D01*
X0114332Y0208968D01*
X0114332Y0207728D01*
X0114332Y0207728D01*
X0114332Y0207137D01*
X0114332Y0206839D01*
X0111959Y0206839D01*
X0111959Y0211731D01*
X0110572Y0213118D01*
X0107199Y0213118D01*
X0106207Y0213118D01*
X0105407Y0212318D01*
X0104606Y0211517D01*
X0103453Y0211517D01*
X0102833Y0210897D01*
X0102213Y0211517D01*
X0100250Y0211517D01*
X0098863Y0210130D01*
X0098863Y0206839D01*
X0096490Y0206839D01*
X0096490Y0206927D01*
X0096490Y0211731D01*
X0095102Y0213118D01*
X0093140Y0213118D01*
X0092520Y0212498D01*
X0091900Y0213118D01*
X0089938Y0213118D01*
X0088550Y0211731D01*
X0088550Y0211517D01*
X0088154Y0211517D01*
X0087183Y0211517D01*
X0085582Y0211517D01*
X0084785Y0210721D01*
X0083989Y0211517D01*
X0082998Y0211517D01*
X0082027Y0211517D01*
X0079633Y0211517D01*
X0078833Y0212318D01*
X0076870Y0212318D01*
X0076133Y0211580D01*
X0075395Y0212318D01*
X0074594Y0213118D01*
X0072758Y0213118D01*
X0072758Y0213118D01*
X0070796Y0213118D01*
X0070176Y0212498D01*
X0069555Y0213118D01*
X0067593Y0213118D01*
X0066206Y0211731D01*
X0066530Y0212055D02*
X0009532Y0212055D01*
X0009532Y0212841D02*
X0067316Y0212841D01*
X0069833Y0212841D02*
X0070518Y0212841D01*
X0074872Y0212841D02*
X0089660Y0212841D01*
X0088874Y0212055D02*
X0079095Y0212055D01*
X0076608Y0212055D02*
X0075658Y0212055D01*
X0075395Y0212318D02*
X0075395Y0212318D01*
X0082027Y0211517D02*
X0082027Y0211517D01*
X0084237Y0211269D02*
X0085334Y0211269D01*
X0087183Y0211517D02*
X0087183Y0211517D01*
X0092177Y0212841D02*
X0092863Y0212841D01*
X0095380Y0212841D02*
X0105930Y0212841D01*
X0106207Y0213118D02*
X0106207Y0213118D01*
X0106207Y0213118D01*
X0105407Y0212318D02*
X0105407Y0212318D01*
X0105144Y0212055D02*
X0096166Y0212055D01*
X0096490Y0211269D02*
X0100002Y0211269D01*
X0099216Y0210483D02*
X0096490Y0210483D01*
X0096490Y0209697D02*
X0098863Y0209697D01*
X0098863Y0208911D02*
X0096490Y0208911D01*
X0096490Y0208125D02*
X0098863Y0208125D01*
X0098863Y0207339D02*
X0096490Y0207339D01*
X0102461Y0211269D02*
X0103205Y0211269D01*
X0110849Y0212841D02*
X0116243Y0212841D01*
X0116520Y0213118D02*
X0116520Y0213118D01*
X0116520Y0213118D01*
X0115457Y0212055D02*
X0111635Y0212055D01*
X0111959Y0211269D02*
X0114671Y0211269D01*
X0114332Y0210483D02*
X0111959Y0210483D01*
X0111959Y0209697D02*
X0114332Y0209697D01*
X0114332Y0208968D02*
X0114332Y0208968D01*
X0114332Y0208911D02*
X0111959Y0208911D01*
X0111959Y0208125D02*
X0114332Y0208125D01*
X0114332Y0207339D02*
X0111959Y0207339D01*
X0121162Y0212841D02*
X0121399Y0212841D01*
X0125518Y0212841D02*
X0126555Y0212841D01*
X0126833Y0213118D02*
X0126833Y0213118D01*
X0126833Y0213118D01*
X0131475Y0212841D02*
X0396389Y0212841D01*
X0396389Y0213627D02*
X0009532Y0213627D01*
X0009532Y0213764D02*
X0396389Y0213764D01*
X0396389Y0021824D01*
X0009532Y0021824D01*
X0009532Y0213764D01*
X0024954Y0210483D02*
X0066206Y0210483D01*
X0066206Y0209697D02*
X0026176Y0209697D01*
X0026962Y0208911D02*
X0066206Y0208911D01*
X0066206Y0208125D02*
X0027748Y0208125D01*
X0028306Y0207339D02*
X0066206Y0207339D01*
X0065194Y0206553D02*
X0028631Y0206553D01*
X0028957Y0205768D02*
X0064260Y0205768D01*
X0063910Y0204982D02*
X0029282Y0204982D01*
X0029468Y0204196D02*
X0063827Y0204196D01*
X0063972Y0203410D02*
X0029468Y0203410D01*
X0029468Y0202624D02*
X0064410Y0202624D01*
X0065557Y0201838D02*
X0029468Y0201838D01*
X0029458Y0201052D02*
X0260025Y0201052D01*
X0260025Y0200266D02*
X0029132Y0200266D01*
X0009532Y0193979D02*
X0131456Y0193979D01*
X0131782Y0193193D02*
X0009532Y0193193D01*
X0009532Y0192407D02*
X0132492Y0192407D01*
X0133745Y0191621D02*
X0009532Y0191621D01*
X0009532Y0190835D02*
X0134354Y0190835D01*
X0134700Y0190049D02*
X0009532Y0190049D01*
X0009532Y0189263D02*
X0135045Y0189263D01*
X0135390Y0188477D02*
X0009532Y0188477D01*
X0009532Y0187692D02*
X0135736Y0187692D01*
X0136081Y0186906D02*
X0060372Y0186906D01*
X0059900Y0187378D02*
X0056032Y0187378D01*
X0053298Y0184643D01*
X0053298Y0180775D01*
X0056032Y0178041D01*
X0059900Y0178041D01*
X0062635Y0180775D01*
X0062635Y0184643D01*
X0059900Y0187378D01*
X0061158Y0186120D02*
X0136426Y0186120D01*
X0136772Y0185334D02*
X0061944Y0185334D01*
X0062635Y0184548D02*
X0137117Y0184548D01*
X0137463Y0183762D02*
X0062635Y0183762D01*
X0062635Y0182976D02*
X0137808Y0182976D01*
X0138153Y0182190D02*
X0062635Y0182190D01*
X0062635Y0181404D02*
X0138499Y0181404D01*
X0138844Y0180618D02*
X0062478Y0180618D01*
X0061692Y0179832D02*
X0139189Y0179832D01*
X0139535Y0179046D02*
X0060906Y0179046D01*
X0060120Y0178261D02*
X0139880Y0178261D01*
X0140225Y0177475D02*
X0027604Y0177475D01*
X0026879Y0177775D02*
X0024687Y0177775D01*
X0022661Y0176936D01*
X0021110Y0175385D01*
X0020271Y0173359D01*
X0020271Y0171167D01*
X0021110Y0169141D01*
X0022661Y0167590D01*
X0024218Y0166945D01*
X0023888Y0166838D01*
X0023195Y0166485D01*
X0022567Y0166029D01*
X0022017Y0165479D01*
X0021560Y0164850D01*
X0021208Y0164158D01*
X0020967Y0163419D01*
X0020847Y0162657D01*
X0025389Y0162657D01*
X0025389Y0161869D01*
X0026177Y0161869D01*
X0026177Y0162657D01*
X0030719Y0162657D01*
X0030598Y0163419D01*
X0030358Y0164158D01*
X0030005Y0164850D01*
X0029549Y0165479D01*
X0028999Y0166029D01*
X0028370Y0166485D01*
X0027678Y0166838D01*
X0027348Y0166945D01*
X0028905Y0167590D01*
X0030456Y0169141D01*
X0031295Y0171167D01*
X0031295Y0173359D01*
X0030456Y0175385D01*
X0028905Y0176936D01*
X0026879Y0177775D01*
X0029152Y0176689D02*
X0140571Y0176689D01*
X0140916Y0175903D02*
X0029938Y0175903D01*
X0030567Y0175117D02*
X0141261Y0175117D01*
X0141607Y0174331D02*
X0030892Y0174331D01*
X0031218Y0173545D02*
X0141952Y0173545D01*
X0142298Y0172759D02*
X0031295Y0172759D01*
X0031295Y0171973D02*
X0142643Y0171973D01*
X0142988Y0171187D02*
X0031295Y0171187D01*
X0030978Y0170401D02*
X0143334Y0170401D01*
X0143679Y0169616D02*
X0030652Y0169616D01*
X0030144Y0168830D02*
X0144024Y0168830D01*
X0144370Y0168044D02*
X0029359Y0168044D01*
X0028103Y0167258D02*
X0144715Y0167258D01*
X0145060Y0166472D02*
X0059993Y0166472D01*
X0059662Y0166803D02*
X0058360Y0166803D01*
X0058360Y0163103D01*
X0057572Y0163103D01*
X0057572Y0162315D01*
X0053872Y0162315D01*
X0053872Y0161013D01*
X0056270Y0158615D01*
X0057572Y0158615D01*
X0057572Y0162315D01*
X0058360Y0162315D01*
X0058360Y0158615D01*
X0059662Y0158615D01*
X0062060Y0161013D01*
X0062060Y0162315D01*
X0058360Y0162315D01*
X0058360Y0163103D01*
X0062060Y0163103D01*
X0062060Y0164405D01*
X0059662Y0166803D01*
X0058360Y0166472D02*
X0057572Y0166472D01*
X0057572Y0166803D02*
X0056270Y0166803D01*
X0053872Y0164405D01*
X0053872Y0163103D01*
X0057572Y0163103D01*
X0057572Y0166803D01*
X0057572Y0165686D02*
X0058360Y0165686D01*
X0058360Y0164900D02*
X0057572Y0164900D01*
X0057572Y0164114D02*
X0058360Y0164114D01*
X0058360Y0163328D02*
X0057572Y0163328D01*
X0057572Y0162542D02*
X0026177Y0162542D01*
X0026177Y0161869D02*
X0030719Y0161869D01*
X0030598Y0161107D01*
X0030358Y0160368D01*
X0030005Y0159675D01*
X0029549Y0159047D01*
X0028999Y0158497D01*
X0028370Y0158040D01*
X0027678Y0157688D01*
X0026939Y0157447D01*
X0026177Y0157327D01*
X0026177Y0161869D01*
X0026177Y0161756D02*
X0025389Y0161756D01*
X0025389Y0161869D02*
X0025389Y0157327D01*
X0024627Y0157447D01*
X0023888Y0157688D01*
X0023195Y0158040D01*
X0022567Y0158497D01*
X0022017Y0159047D01*
X0021560Y0159675D01*
X0021208Y0160368D01*
X0020967Y0161107D01*
X0020847Y0161869D01*
X0025389Y0161869D01*
X0025389Y0162542D02*
X0009532Y0162542D01*
X0009532Y0161756D02*
X0020865Y0161756D01*
X0021012Y0160970D02*
X0009532Y0160970D01*
X0009532Y0160185D02*
X0021301Y0160185D01*
X0021761Y0159399D02*
X0009532Y0159399D01*
X0009532Y0158613D02*
X0022451Y0158613D01*
X0023614Y0157827D02*
X0009532Y0157827D01*
X0009532Y0157041D02*
X0149205Y0157041D01*
X0149550Y0156255D02*
X0009532Y0156255D01*
X0009532Y0155469D02*
X0149895Y0155469D01*
X0150241Y0154683D02*
X0009532Y0154683D01*
X0009532Y0153897D02*
X0150586Y0153897D01*
X0150931Y0153111D02*
X0009532Y0153111D01*
X0009532Y0152325D02*
X0151277Y0152325D01*
X0151622Y0151540D02*
X0009532Y0151540D01*
X0009532Y0150754D02*
X0151967Y0150754D01*
X0152313Y0149968D02*
X0009532Y0149968D01*
X0009532Y0149182D02*
X0152658Y0149182D01*
X0153003Y0148396D02*
X0009532Y0148396D01*
X0009532Y0147610D02*
X0153211Y0147610D01*
X0153211Y0146824D02*
X0140935Y0146824D01*
X0141849Y0146038D02*
X0153211Y0146038D01*
X0153211Y0145252D02*
X0142385Y0145252D01*
X0142711Y0144466D02*
X0153211Y0144466D01*
X0153211Y0143680D02*
X0142781Y0143680D01*
X0142781Y0142895D02*
X0143620Y0142895D01*
X0147921Y0142895D02*
X0153211Y0142895D01*
X0152422Y0142109D02*
X0149119Y0142109D01*
X0149905Y0141323D02*
X0151636Y0141323D01*
X0151231Y0140537D02*
X0150310Y0140537D01*
X0150635Y0139751D02*
X0150906Y0139751D01*
X0151033Y0136607D02*
X0150508Y0136607D01*
X0150182Y0135821D02*
X0151359Y0135821D01*
X0151945Y0135035D02*
X0149596Y0135035D01*
X0149314Y0134249D02*
X0152227Y0134249D01*
X0152227Y0133464D02*
X0149314Y0133464D01*
X0149314Y0132678D02*
X0152227Y0132678D01*
X0152002Y0131892D02*
X0149539Y0131892D01*
X0149976Y0131106D02*
X0151565Y0131106D01*
X0151240Y0130320D02*
X0150301Y0130320D01*
X0150439Y0129534D02*
X0151102Y0129534D01*
X0151102Y0128748D02*
X0150439Y0128748D01*
X0150439Y0127962D02*
X0151102Y0127962D01*
X0151102Y0127176D02*
X0150439Y0127176D01*
X0150439Y0126390D02*
X0151102Y0126390D01*
X0151102Y0125604D02*
X0150439Y0125604D01*
X0150186Y0124819D02*
X0151355Y0124819D01*
X0151681Y0124033D02*
X0149860Y0124033D01*
X0149261Y0123247D02*
X0152280Y0123247D01*
X0153066Y0122461D02*
X0148475Y0122461D01*
X0143066Y0122461D02*
X0140374Y0122461D01*
X0139589Y0123247D02*
X0142280Y0123247D01*
X0141681Y0124033D02*
X0139860Y0124033D01*
X0140186Y0124819D02*
X0141355Y0124819D01*
X0141102Y0125604D02*
X0140439Y0125604D01*
X0140439Y0126390D02*
X0141102Y0126390D01*
X0141102Y0127176D02*
X0140439Y0127176D01*
X0140439Y0127962D02*
X0141102Y0127962D01*
X0141102Y0128748D02*
X0140439Y0128748D01*
X0140439Y0129534D02*
X0141102Y0129534D01*
X0141240Y0130320D02*
X0140301Y0130320D01*
X0139976Y0131106D02*
X0141565Y0131106D01*
X0142002Y0131892D02*
X0139539Y0131892D01*
X0139738Y0132678D02*
X0142227Y0132678D01*
X0142227Y0133464D02*
X0140241Y0133464D01*
X0140566Y0134249D02*
X0142227Y0134249D01*
X0141945Y0135035D02*
X0140807Y0135035D01*
X0140807Y0135821D02*
X0141359Y0135821D01*
X0141033Y0136607D02*
X0140807Y0136607D01*
X0140733Y0137393D02*
X0140576Y0137393D01*
X0140733Y0138179D02*
X0140251Y0138179D01*
X0140733Y0138965D02*
X0139762Y0138965D01*
X0138976Y0139751D02*
X0140906Y0139751D01*
X0137115Y0146824D02*
X0009532Y0146824D01*
X0009532Y0146038D02*
X0073663Y0146038D01*
X0072427Y0145252D02*
X0009532Y0145252D01*
X0009532Y0144466D02*
X0071641Y0144466D01*
X0070855Y0143680D02*
X0009532Y0143680D01*
X0009532Y0142895D02*
X0070069Y0142895D01*
X0069283Y0142109D02*
X0009532Y0142109D01*
X0009532Y0141323D02*
X0068497Y0141323D01*
X0067711Y0140537D02*
X0067578Y0140537D01*
X0063963Y0140537D02*
X0009532Y0140537D01*
X0009532Y0139751D02*
X0020451Y0139751D01*
X0019684Y0139433D02*
X0018267Y0138016D01*
X0017500Y0136165D01*
X0017500Y0131092D01*
X0018267Y0129241D01*
X0019684Y0127824D01*
X0021535Y0127057D01*
X0023539Y0127057D01*
X0025390Y0127824D01*
X0026807Y0129241D01*
X0027574Y0131092D01*
X0027574Y0136165D01*
X0026807Y0138016D01*
X0025390Y0139433D01*
X0023539Y0140200D01*
X0021535Y0140200D01*
X0019684Y0139433D01*
X0019216Y0138965D02*
X0009532Y0138965D01*
X0009532Y0138179D02*
X0018430Y0138179D01*
X0018009Y0137393D02*
X0009532Y0137393D01*
X0009532Y0136607D02*
X0017683Y0136607D01*
X0017500Y0135821D02*
X0009532Y0135821D01*
X0009532Y0135035D02*
X0017500Y0135035D01*
X0017500Y0134249D02*
X0009532Y0134249D01*
X0009532Y0133464D02*
X0017500Y0133464D01*
X0017500Y0132678D02*
X0009532Y0132678D01*
X0009532Y0131892D02*
X0017500Y0131892D01*
X0017500Y0131106D02*
X0009532Y0131106D01*
X0009532Y0130320D02*
X0017820Y0130320D01*
X0018146Y0129534D02*
X0009532Y0129534D01*
X0009532Y0128748D02*
X0018760Y0128748D01*
X0019546Y0127962D02*
X0009532Y0127962D01*
X0009532Y0127176D02*
X0021248Y0127176D01*
X0023826Y0127176D02*
X0038965Y0127176D01*
X0039252Y0127057D02*
X0037401Y0127824D01*
X0035984Y0129241D01*
X0035217Y0131092D01*
X0035217Y0136165D01*
X0035984Y0138016D01*
X0037401Y0139433D01*
X0039252Y0140200D01*
X0041256Y0140200D01*
X0043107Y0139433D01*
X0044524Y0138016D01*
X0045291Y0136165D01*
X0045291Y0131092D01*
X0044524Y0129241D01*
X0043107Y0127824D01*
X0041256Y0127057D01*
X0039252Y0127057D01*
X0037263Y0127962D02*
X0025528Y0127962D01*
X0026314Y0128748D02*
X0036477Y0128748D01*
X0035862Y0129534D02*
X0026929Y0129534D01*
X0027254Y0130320D02*
X0035537Y0130320D01*
X0035217Y0131106D02*
X0027574Y0131106D01*
X0027574Y0131892D02*
X0035217Y0131892D01*
X0035217Y0132678D02*
X0027574Y0132678D01*
X0027574Y0133464D02*
X0035217Y0133464D01*
X0035217Y0134249D02*
X0027574Y0134249D01*
X0027574Y0135035D02*
X0035217Y0135035D01*
X0035217Y0135821D02*
X0027574Y0135821D01*
X0027391Y0136607D02*
X0035400Y0136607D01*
X0035726Y0137393D02*
X0027065Y0137393D01*
X0026644Y0138179D02*
X0036147Y0138179D01*
X0036932Y0138965D02*
X0025859Y0138965D01*
X0024623Y0139751D02*
X0038168Y0139751D01*
X0042340Y0139751D02*
X0062565Y0139751D01*
X0061779Y0138965D02*
X0043575Y0138965D01*
X0044361Y0138179D02*
X0061290Y0138179D01*
X0060965Y0137393D02*
X0044782Y0137393D01*
X0045108Y0136607D02*
X0060733Y0136607D01*
X0060733Y0135821D02*
X0045291Y0135821D01*
X0045291Y0135035D02*
X0060733Y0135035D01*
X0060975Y0134249D02*
X0045291Y0134249D01*
X0045291Y0133464D02*
X0054206Y0133464D01*
X0052788Y0132678D02*
X0045291Y0132678D01*
X0045291Y0131892D02*
X0052002Y0131892D01*
X0051565Y0131106D02*
X0045291Y0131106D01*
X0044971Y0130320D02*
X0051240Y0130320D01*
X0051102Y0129534D02*
X0044645Y0129534D01*
X0044031Y0128748D02*
X0051102Y0128748D01*
X0051102Y0127962D02*
X0043245Y0127962D01*
X0041543Y0127176D02*
X0051102Y0127176D01*
X0051102Y0126390D02*
X0009532Y0126390D01*
X0009532Y0125604D02*
X0051102Y0125604D01*
X0051355Y0124819D02*
X0049545Y0124819D01*
X0050648Y0124033D02*
X0051681Y0124033D01*
X0051833Y0123247D02*
X0051299Y0123247D01*
X0051700Y0122461D02*
X0051833Y0122461D01*
X0051833Y0119317D02*
X0051736Y0119317D01*
X0051833Y0118531D02*
X0051372Y0118531D01*
X0051833Y0117745D02*
X0050760Y0117745D01*
X0049763Y0116959D02*
X0051833Y0116959D01*
X0051833Y0116173D02*
X0009532Y0116173D01*
X0009532Y0115388D02*
X0051833Y0115388D01*
X0051833Y0114602D02*
X0041274Y0114602D01*
X0041256Y0114609D02*
X0039252Y0114609D01*
X0037401Y0113842D01*
X0035984Y0112426D01*
X0035217Y0110574D01*
X0035217Y0105502D01*
X0035984Y0103651D01*
X0037401Y0102234D01*
X0037498Y0102193D01*
X0037498Y0101347D01*
X0037452Y0101302D01*
X0034016Y0101302D01*
X0032872Y0100158D01*
X0032854Y0100189D01*
X0032594Y0100449D01*
X0032276Y0100632D01*
X0031922Y0100727D01*
X0030332Y0100727D01*
X0030332Y0096977D01*
X0029545Y0096977D01*
X0029545Y0100727D01*
X0027955Y0100727D01*
X0027600Y0100632D01*
X0027283Y0100449D01*
X0027023Y0100189D01*
X0026840Y0099871D01*
X0026745Y0099517D01*
X0026745Y0096977D01*
X0029545Y0096977D01*
X0029545Y0096190D01*
X0026745Y0096190D01*
X0026745Y0093650D01*
X0026840Y0093295D01*
X0027023Y0092978D01*
X0027283Y0092718D01*
X0027600Y0092535D01*
X0027955Y0092440D01*
X0029545Y0092440D01*
X0029545Y0096190D01*
X0030332Y0096190D01*
X0030332Y0092440D01*
X0031922Y0092440D01*
X0032276Y0092535D01*
X0032594Y0092718D01*
X0032854Y0092978D01*
X0032872Y0093009D01*
X0034016Y0091865D01*
X0039247Y0091865D01*
X0040400Y0093018D01*
X0040400Y0096454D01*
X0041815Y0097869D01*
X0042590Y0098645D01*
X0043010Y0099658D01*
X0043010Y0102193D01*
X0043107Y0102234D01*
X0044524Y0103651D01*
X0045291Y0105502D01*
X0045291Y0110574D01*
X0044524Y0112426D01*
X0043107Y0113842D01*
X0041256Y0114609D01*
X0039233Y0114602D02*
X0023558Y0114602D01*
X0023539Y0114609D02*
X0021535Y0114609D01*
X0019684Y0113842D01*
X0018267Y0112426D01*
X0017500Y0110574D01*
X0017500Y0105502D01*
X0018267Y0103651D01*
X0019684Y0102234D01*
X0021535Y0101467D01*
X0023539Y0101467D01*
X0025390Y0102234D01*
X0026807Y0103651D01*
X0027574Y0105502D01*
X0027574Y0110574D01*
X0026807Y0112426D01*
X0025390Y0113842D01*
X0023539Y0114609D01*
X0021517Y0114602D02*
X0009532Y0114602D01*
X0009532Y0113816D02*
X0019657Y0113816D01*
X0018871Y0113030D02*
X0009532Y0113030D01*
X0009532Y0112244D02*
X0018192Y0112244D01*
X0017866Y0111458D02*
X0009532Y0111458D01*
X0009532Y0110672D02*
X0017541Y0110672D01*
X0017500Y0109886D02*
X0009532Y0109886D01*
X0009532Y0109100D02*
X0017500Y0109100D01*
X0017500Y0108314D02*
X0009532Y0108314D01*
X0009532Y0107528D02*
X0017500Y0107528D01*
X0017500Y0106743D02*
X0009532Y0106743D01*
X0009532Y0105957D02*
X0017500Y0105957D01*
X0017637Y0105171D02*
X0009532Y0105171D01*
X0009532Y0104385D02*
X0017963Y0104385D01*
X0018319Y0103599D02*
X0009532Y0103599D01*
X0009532Y0102813D02*
X0019105Y0102813D01*
X0020183Y0102027D02*
X0009532Y0102027D01*
X0009532Y0101241D02*
X0033955Y0101241D01*
X0033169Y0100455D02*
X0032583Y0100455D01*
X0030332Y0100455D02*
X0029545Y0100455D01*
X0029545Y0099669D02*
X0030332Y0099669D01*
X0030332Y0098883D02*
X0029545Y0098883D01*
X0029545Y0098097D02*
X0030332Y0098097D01*
X0030332Y0097312D02*
X0029545Y0097312D01*
X0029545Y0096526D02*
X0009532Y0096526D01*
X0009532Y0097312D02*
X0026745Y0097312D01*
X0026745Y0098097D02*
X0009532Y0098097D01*
X0009532Y0098883D02*
X0026745Y0098883D01*
X0026786Y0099669D02*
X0009532Y0099669D01*
X0009532Y0100455D02*
X0027294Y0100455D01*
X0025970Y0102813D02*
X0036821Y0102813D01*
X0037498Y0102027D02*
X0024892Y0102027D01*
X0026756Y0103599D02*
X0036035Y0103599D01*
X0035679Y0104385D02*
X0027111Y0104385D01*
X0027437Y0105171D02*
X0035354Y0105171D01*
X0035217Y0105957D02*
X0027574Y0105957D01*
X0027574Y0106743D02*
X0035217Y0106743D01*
X0035217Y0107528D02*
X0027574Y0107528D01*
X0027574Y0108314D02*
X0035217Y0108314D01*
X0035217Y0109100D02*
X0027574Y0109100D01*
X0027574Y0109886D02*
X0035217Y0109886D01*
X0035257Y0110672D02*
X0027534Y0110672D01*
X0027208Y0111458D02*
X0035583Y0111458D01*
X0035908Y0112244D02*
X0026883Y0112244D01*
X0026203Y0113030D02*
X0036588Y0113030D01*
X0037374Y0113816D02*
X0025417Y0113816D01*
X0009532Y0116959D02*
X0045311Y0116959D01*
X0044315Y0117745D02*
X0009532Y0117745D01*
X0009532Y0118531D02*
X0043702Y0118531D01*
X0043338Y0119317D02*
X0009532Y0119317D01*
X0009532Y0120103D02*
X0043135Y0120103D01*
X0043153Y0121675D02*
X0009532Y0121675D01*
X0009532Y0122461D02*
X0043374Y0122461D01*
X0043775Y0123247D02*
X0009532Y0123247D01*
X0009532Y0124033D02*
X0044426Y0124033D01*
X0045530Y0124819D02*
X0009532Y0124819D01*
X0009532Y0120889D02*
X0047143Y0120889D01*
X0047144Y0121675D02*
X0047931Y0121675D01*
X0047931Y0122461D02*
X0047144Y0122461D01*
X0047144Y0123247D02*
X0047931Y0123247D01*
X0047931Y0124033D02*
X0047144Y0124033D01*
X0047144Y0124819D02*
X0047931Y0124819D01*
X0047931Y0120103D02*
X0047144Y0120103D01*
X0047144Y0119317D02*
X0047931Y0119317D01*
X0047931Y0118531D02*
X0047144Y0118531D01*
X0047144Y0117745D02*
X0047931Y0117745D01*
X0047931Y0116959D02*
X0047144Y0116959D01*
X0043920Y0113030D02*
X0051833Y0113030D01*
X0051833Y0113816D02*
X0043134Y0113816D01*
X0044599Y0112244D02*
X0051833Y0112244D01*
X0051989Y0111458D02*
X0044925Y0111458D01*
X0045250Y0110672D02*
X0052315Y0110672D01*
X0052934Y0109886D02*
X0045291Y0109886D01*
X0045291Y0109100D02*
X0053720Y0109100D01*
X0054489Y0108314D02*
X0045291Y0108314D01*
X0045291Y0107528D02*
X0054489Y0107528D01*
X0054489Y0106743D02*
X0045291Y0106743D01*
X0045291Y0105957D02*
X0055097Y0105957D01*
X0054558Y0105171D02*
X0045154Y0105171D01*
X0044828Y0104385D02*
X0054489Y0104385D01*
X0054489Y0103599D02*
X0044472Y0103599D01*
X0043686Y0102813D02*
X0054489Y0102813D01*
X0054489Y0102027D02*
X0043010Y0102027D01*
X0043010Y0101241D02*
X0054489Y0101241D01*
X0054489Y0100455D02*
X0043010Y0100455D01*
X0043010Y0099669D02*
X0054692Y0099669D01*
X0055478Y0098883D02*
X0042689Y0098883D01*
X0042043Y0098097D02*
X0059276Y0098097D01*
X0060062Y0097312D02*
X0041257Y0097312D01*
X0040471Y0096526D02*
X0060848Y0096526D01*
X0061634Y0095740D02*
X0040400Y0095740D01*
X0040400Y0094954D02*
X0062420Y0094954D01*
X0063205Y0094168D02*
X0040400Y0094168D01*
X0040400Y0093382D02*
X0063991Y0093382D01*
X0064777Y0092596D02*
X0039978Y0092596D01*
X0033285Y0092596D02*
X0032383Y0092596D01*
X0030332Y0092596D02*
X0029545Y0092596D01*
X0029545Y0093382D02*
X0030332Y0093382D01*
X0030332Y0094168D02*
X0029545Y0094168D01*
X0029545Y0094954D02*
X0030332Y0094954D01*
X0030332Y0095740D02*
X0029545Y0095740D01*
X0026745Y0095740D02*
X0009532Y0095740D01*
X0009532Y0094954D02*
X0026745Y0094954D01*
X0026745Y0094168D02*
X0009532Y0094168D01*
X0009532Y0093382D02*
X0026817Y0093382D01*
X0027494Y0092596D02*
X0009532Y0092596D01*
X0009532Y0091810D02*
X0065563Y0091810D01*
X0066349Y0091024D02*
X0009532Y0091024D01*
X0009532Y0090238D02*
X0067135Y0090238D01*
X0067921Y0089452D02*
X0009532Y0089452D01*
X0009532Y0088667D02*
X0068707Y0088667D01*
X0069493Y0087881D02*
X0009532Y0087881D01*
X0009532Y0087095D02*
X0020940Y0087095D01*
X0020028Y0086309D02*
X0009532Y0086309D01*
X0009532Y0085523D02*
X0019275Y0085523D01*
X0018950Y0084737D02*
X0009532Y0084737D01*
X0009532Y0083951D02*
X0018624Y0083951D01*
X0018527Y0083165D02*
X0009532Y0083165D01*
X0009532Y0082379D02*
X0018527Y0082379D01*
X0018571Y0081593D02*
X0009532Y0081593D01*
X0009532Y0080807D02*
X0018897Y0080807D01*
X0019222Y0080021D02*
X0009532Y0080021D01*
X0009532Y0079236D02*
X0019900Y0079236D01*
X0020686Y0078450D02*
X0009532Y0078450D01*
X0009532Y0077664D02*
X0022314Y0077664D01*
X0020597Y0076878D02*
X0009532Y0076878D01*
X0009532Y0076092D02*
X0019811Y0076092D01*
X0019185Y0075306D02*
X0009532Y0075306D01*
X0009532Y0074520D02*
X0018860Y0074520D01*
X0018534Y0073734D02*
X0009532Y0073734D01*
X0009532Y0072948D02*
X0018527Y0072948D01*
X0018527Y0072162D02*
X0009532Y0072162D01*
X0009532Y0071376D02*
X0018661Y0071376D01*
X0018987Y0070591D02*
X0009532Y0070591D01*
X0009532Y0069805D02*
X0019331Y0069805D01*
X0020117Y0069019D02*
X0009532Y0069019D01*
X0009532Y0068233D02*
X0021156Y0068233D01*
X0021791Y0067447D02*
X0009532Y0067447D01*
X0009532Y0066661D02*
X0020380Y0066661D01*
X0019594Y0065875D02*
X0009532Y0065875D01*
X0009532Y0065089D02*
X0019096Y0065089D01*
X0018770Y0064303D02*
X0009532Y0064303D01*
X0009532Y0063517D02*
X0018527Y0063517D01*
X0018527Y0062731D02*
X0009532Y0062731D01*
X0009532Y0061945D02*
X0018527Y0061945D01*
X0018751Y0061160D02*
X0009532Y0061160D01*
X0009532Y0060374D02*
X0019076Y0060374D01*
X0019548Y0059588D02*
X0009532Y0059588D01*
X0009532Y0058802D02*
X0020334Y0058802D01*
X0021679Y0058016D02*
X0009532Y0058016D01*
X0009532Y0057230D02*
X0021267Y0057230D01*
X0020163Y0056444D02*
X0009532Y0056444D01*
X0009532Y0055658D02*
X0019377Y0055658D01*
X0019006Y0054872D02*
X0009532Y0054872D01*
X0009532Y0054086D02*
X0018680Y0054086D01*
X0018527Y0053300D02*
X0009532Y0053300D01*
X0009532Y0052515D02*
X0018527Y0052515D01*
X0018527Y0051729D02*
X0009532Y0051729D01*
X0009532Y0050943D02*
X0018841Y0050943D01*
X0019166Y0050157D02*
X0009532Y0050157D01*
X0009532Y0049371D02*
X0019765Y0049371D01*
X0020551Y0048585D02*
X0009532Y0048585D01*
X0009532Y0047799D02*
X0022203Y0047799D01*
X0020744Y0047013D02*
X0009532Y0047013D01*
X0009532Y0046227D02*
X0019946Y0046227D01*
X0019241Y0045441D02*
X0009532Y0045441D01*
X0009532Y0044655D02*
X0018916Y0044655D01*
X0018590Y0043869D02*
X0009532Y0043869D01*
X0009532Y0043084D02*
X0018527Y0043084D01*
X0018527Y0042298D02*
X0009532Y0042298D01*
X0009532Y0041512D02*
X0018605Y0041512D01*
X0018931Y0040726D02*
X0009532Y0040726D01*
X0009532Y0039940D02*
X0019256Y0039940D01*
X0019982Y0039154D02*
X0009532Y0039154D01*
X0009532Y0038368D02*
X0020829Y0038368D01*
X0021720Y0036796D02*
X0009532Y0036796D01*
X0009532Y0036010D02*
X0020542Y0036010D01*
X0020668Y0036136D02*
X0020168Y0035636D01*
X0019752Y0035064D01*
X0019431Y0034433D01*
X0019212Y0033761D01*
X0019108Y0033102D01*
X0024752Y0033102D01*
X0024752Y0037202D01*
X0023242Y0037202D01*
X0022543Y0037091D01*
X0021871Y0036873D01*
X0021240Y0036552D01*
X0020668Y0036136D01*
X0019869Y0035224D02*
X0009532Y0035224D01*
X0009532Y0034439D02*
X0019434Y0034439D01*
X0019195Y0033653D02*
X0009532Y0033653D01*
X0009532Y0032867D02*
X0024752Y0032867D01*
X0024752Y0033102D02*
X0024752Y0032315D01*
X0019108Y0032315D01*
X0019212Y0031656D01*
X0019431Y0030983D01*
X0019752Y0030353D01*
X0020168Y0029781D01*
X0020668Y0029281D01*
X0021240Y0028865D01*
X0021871Y0028544D01*
X0022543Y0028325D01*
X0023242Y0028215D01*
X0024752Y0028215D01*
X0024752Y0032315D01*
X0025539Y0032315D01*
X0025539Y0033102D01*
X0024752Y0033102D01*
X0024752Y0033653D02*
X0025539Y0033653D01*
X0025539Y0033102D02*
X0025539Y0037202D01*
X0027049Y0037202D01*
X0027748Y0037091D01*
X0028420Y0036873D01*
X0029051Y0036552D01*
X0029623Y0036136D01*
X0030123Y0035636D01*
X0030539Y0035064D01*
X0030860Y0034433D01*
X0031079Y0033761D01*
X0031183Y0033102D01*
X0025539Y0033102D01*
X0025539Y0032867D02*
X0035652Y0032867D01*
X0035652Y0032940D02*
X0035652Y0031430D01*
X0035762Y0030731D01*
X0035981Y0030058D01*
X0036302Y0029428D01*
X0036718Y0028856D01*
X0037218Y0028356D01*
X0037790Y0027940D01*
X0038421Y0027619D01*
X0039093Y0027400D01*
X0039752Y0027296D01*
X0039752Y0032940D01*
X0035652Y0032940D01*
X0035652Y0033727D02*
X0039752Y0033727D01*
X0039752Y0042940D01*
X0035652Y0042940D01*
X0035652Y0041430D01*
X0035762Y0040731D01*
X0035981Y0040058D01*
X0036302Y0039428D01*
X0036718Y0038856D01*
X0037218Y0038356D01*
X0037249Y0038333D01*
X0037218Y0038311D01*
X0036718Y0037811D01*
X0036302Y0037239D01*
X0035981Y0036608D01*
X0035762Y0035936D01*
X0035652Y0035237D01*
X0035652Y0033727D01*
X0035652Y0034439D02*
X0030857Y0034439D01*
X0031096Y0033653D02*
X0039752Y0033653D01*
X0039752Y0033727D02*
X0039752Y0032940D01*
X0040539Y0032940D01*
X0040539Y0033727D01*
X0039752Y0033727D01*
X0039752Y0034439D02*
X0040539Y0034439D01*
X0040539Y0033727D02*
X0040539Y0039371D01*
X0040539Y0042940D01*
X0040539Y0043727D01*
X0039752Y0043727D01*
X0039752Y0049371D01*
X0040539Y0049371D01*
X0040539Y0050157D02*
X0039752Y0050157D01*
X0039752Y0050943D02*
X0040539Y0050943D01*
X0040539Y0051729D02*
X0039752Y0051729D01*
X0039752Y0052515D02*
X0040539Y0052515D01*
X0040539Y0052940D02*
X0040539Y0043727D01*
X0044639Y0043727D01*
X0044639Y0045237D01*
X0044529Y0045936D01*
X0044310Y0046608D01*
X0043989Y0047239D01*
X0043573Y0047811D01*
X0043073Y0048311D01*
X0043042Y0048333D01*
X0043073Y0048356D01*
X0043573Y0048856D01*
X0043989Y0049428D01*
X0044310Y0050058D01*
X0044529Y0050731D01*
X0044639Y0051430D01*
X0044639Y0052940D01*
X0040539Y0052940D01*
X0040539Y0053727D01*
X0039752Y0053727D01*
X0039752Y0059371D01*
X0039093Y0059266D01*
X0038421Y0059048D01*
X0037790Y0058727D01*
X0037218Y0058311D01*
X0036718Y0057811D01*
X0036302Y0057239D01*
X0035981Y0056608D01*
X0035762Y0055936D01*
X0035652Y0055237D01*
X0035652Y0053727D01*
X0039752Y0053727D01*
X0039752Y0052940D01*
X0035652Y0052940D01*
X0035652Y0051430D01*
X0035762Y0050731D01*
X0035981Y0050058D01*
X0036302Y0049428D01*
X0036718Y0048856D01*
X0037218Y0048356D01*
X0037249Y0048333D01*
X0037218Y0048311D01*
X0036718Y0047811D01*
X0036302Y0047239D01*
X0035981Y0046608D01*
X0035762Y0045936D01*
X0035652Y0045237D01*
X0035652Y0043727D01*
X0039752Y0043727D01*
X0039752Y0042940D01*
X0040539Y0042940D01*
X0044639Y0042940D01*
X0044639Y0041430D01*
X0044529Y0040731D01*
X0044310Y0040058D01*
X0043989Y0039428D01*
X0043573Y0038856D01*
X0043073Y0038356D01*
X0043042Y0038333D01*
X0043073Y0038311D01*
X0043573Y0037811D01*
X0043989Y0037239D01*
X0044310Y0036608D01*
X0044529Y0035936D01*
X0044639Y0035237D01*
X0044639Y0033727D01*
X0040539Y0033727D01*
X0040539Y0033653D02*
X0045077Y0033653D01*
X0045077Y0034439D02*
X0044639Y0034439D01*
X0044639Y0035224D02*
X0045077Y0035224D01*
X0045126Y0036010D02*
X0044504Y0036010D01*
X0044214Y0036796D02*
X0045452Y0036796D01*
X0045777Y0037582D02*
X0043739Y0037582D01*
X0043085Y0038368D02*
X0046208Y0038368D01*
X0045748Y0039154D02*
X0043790Y0039154D01*
X0044250Y0039940D02*
X0045423Y0039940D01*
X0045097Y0040726D02*
X0044527Y0040726D01*
X0044639Y0041512D02*
X0045077Y0041512D01*
X0045077Y0042298D02*
X0044639Y0042298D01*
X0045077Y0043084D02*
X0040539Y0043084D01*
X0040539Y0043869D02*
X0039752Y0043869D01*
X0039752Y0043084D02*
X0031764Y0043084D01*
X0031764Y0042298D02*
X0035652Y0042298D01*
X0035652Y0041512D02*
X0031686Y0041512D01*
X0031360Y0040726D02*
X0035764Y0040726D01*
X0036041Y0039940D02*
X0031035Y0039940D01*
X0030309Y0039154D02*
X0036501Y0039154D01*
X0037206Y0038368D02*
X0029462Y0038368D01*
X0028571Y0036796D02*
X0036077Y0036796D01*
X0035787Y0036010D02*
X0029749Y0036010D01*
X0030422Y0035224D02*
X0035652Y0035224D01*
X0036552Y0037582D02*
X0009532Y0037582D01*
X0009532Y0032081D02*
X0019145Y0032081D01*
X0019330Y0031295D02*
X0009532Y0031295D01*
X0009532Y0030509D02*
X0019673Y0030509D01*
X0020226Y0029723D02*
X0009532Y0029723D01*
X0009532Y0028937D02*
X0021141Y0028937D01*
X0024752Y0028937D02*
X0025539Y0028937D01*
X0025539Y0028215D02*
X0027049Y0028215D01*
X0027748Y0028325D01*
X0028420Y0028544D01*
X0029051Y0028865D01*
X0029623Y0029281D01*
X0030123Y0029781D01*
X0030539Y0030353D01*
X0030860Y0030983D01*
X0031079Y0031656D01*
X0031183Y0032315D01*
X0025539Y0032315D01*
X0025539Y0028215D01*
X0025539Y0029723D02*
X0024752Y0029723D01*
X0024752Y0030509D02*
X0025539Y0030509D01*
X0025539Y0031295D02*
X0024752Y0031295D01*
X0024752Y0032081D02*
X0025539Y0032081D01*
X0025539Y0034439D02*
X0024752Y0034439D01*
X0024752Y0035224D02*
X0025539Y0035224D01*
X0025539Y0036010D02*
X0024752Y0036010D01*
X0024752Y0036796D02*
X0025539Y0036796D01*
X0031146Y0032081D02*
X0035652Y0032081D01*
X0035673Y0031295D02*
X0030961Y0031295D01*
X0030618Y0030509D02*
X0035835Y0030509D01*
X0036152Y0029723D02*
X0030065Y0029723D01*
X0029150Y0028937D02*
X0036659Y0028937D01*
X0037500Y0028151D02*
X0009532Y0028151D01*
X0009532Y0027365D02*
X0039314Y0027365D01*
X0039752Y0027365D02*
X0040539Y0027365D01*
X0040539Y0027296D02*
X0041198Y0027400D01*
X0041870Y0027619D01*
X0042501Y0027940D01*
X0043073Y0028356D01*
X0043573Y0028856D01*
X0043989Y0029428D01*
X0044310Y0030058D01*
X0044529Y0030731D01*
X0044639Y0031430D01*
X0044639Y0032940D01*
X0040539Y0032940D01*
X0040539Y0027296D01*
X0040977Y0027365D02*
X0047567Y0027365D01*
X0046610Y0028151D02*
X0042791Y0028151D01*
X0043632Y0028937D02*
X0045838Y0028937D01*
X0045513Y0029723D02*
X0044139Y0029723D01*
X0044456Y0030509D02*
X0045187Y0030509D01*
X0045077Y0031295D02*
X0044618Y0031295D01*
X0044639Y0032081D02*
X0045077Y0032081D01*
X0045077Y0032867D02*
X0044639Y0032867D01*
X0040539Y0032867D02*
X0039752Y0032867D01*
X0039752Y0032081D02*
X0040539Y0032081D01*
X0040539Y0031295D02*
X0039752Y0031295D01*
X0039752Y0030509D02*
X0040539Y0030509D01*
X0040539Y0029723D02*
X0039752Y0029723D01*
X0039752Y0028937D02*
X0040539Y0028937D01*
X0040539Y0028151D02*
X0039752Y0028151D01*
X0039752Y0035224D02*
X0040539Y0035224D01*
X0040539Y0036010D02*
X0039752Y0036010D01*
X0039752Y0036796D02*
X0040539Y0036796D01*
X0040539Y0037582D02*
X0039752Y0037582D01*
X0039752Y0038368D02*
X0040539Y0038368D01*
X0040539Y0039154D02*
X0039752Y0039154D01*
X0039752Y0039940D02*
X0040539Y0039940D01*
X0040539Y0040726D02*
X0039752Y0040726D01*
X0039752Y0041512D02*
X0040539Y0041512D01*
X0040539Y0042298D02*
X0039752Y0042298D01*
X0039752Y0044655D02*
X0040539Y0044655D01*
X0040539Y0045441D02*
X0039752Y0045441D01*
X0039752Y0046227D02*
X0040539Y0046227D01*
X0040539Y0047013D02*
X0039752Y0047013D01*
X0039752Y0047799D02*
X0040539Y0047799D01*
X0040539Y0048585D02*
X0039752Y0048585D01*
X0039752Y0049371D02*
X0039752Y0052940D01*
X0040539Y0052940D01*
X0040539Y0053300D02*
X0045077Y0053300D01*
X0044639Y0053727D02*
X0044639Y0055237D01*
X0044529Y0055936D01*
X0044310Y0056608D01*
X0043989Y0057239D01*
X0043573Y0057811D01*
X0043073Y0058311D01*
X0042501Y0058727D01*
X0041870Y0059048D01*
X0041198Y0059266D01*
X0040539Y0059371D01*
X0040539Y0053727D01*
X0044639Y0053727D01*
X0044639Y0054086D02*
X0045077Y0054086D01*
X0045077Y0054872D02*
X0044639Y0054872D01*
X0044572Y0055658D02*
X0045077Y0055658D01*
X0045306Y0056444D02*
X0044363Y0056444D01*
X0043993Y0057230D02*
X0045631Y0057230D01*
X0046110Y0058016D02*
X0043368Y0058016D01*
X0042353Y0058802D02*
X0046881Y0058802D01*
X0047299Y0059588D02*
X0030743Y0059588D01*
X0031215Y0060374D02*
X0047692Y0060374D01*
X0048086Y0061160D02*
X0031540Y0061160D01*
X0031764Y0061945D02*
X0048480Y0061945D01*
X0048874Y0062731D02*
X0031764Y0062731D01*
X0031764Y0063517D02*
X0049267Y0063517D01*
X0049661Y0064303D02*
X0031521Y0064303D01*
X0031195Y0065089D02*
X0050055Y0065089D01*
X0050449Y0065875D02*
X0030697Y0065875D01*
X0029911Y0066661D02*
X0050842Y0066661D01*
X0051102Y0067447D02*
X0028500Y0067447D01*
X0029135Y0068233D02*
X0051102Y0068233D01*
X0051102Y0069019D02*
X0030174Y0069019D01*
X0030960Y0069805D02*
X0051102Y0069805D01*
X0051352Y0070591D02*
X0031304Y0070591D01*
X0030480Y0076092D02*
X0047247Y0076092D01*
X0048373Y0076878D02*
X0029694Y0076878D01*
X0029605Y0078450D02*
X0091313Y0078450D01*
X0090298Y0079236D02*
X0030391Y0079236D01*
X0031069Y0080021D02*
X0089282Y0080021D01*
X0088267Y0080807D02*
X0031394Y0080807D01*
X0031720Y0081593D02*
X0079604Y0081593D01*
X0074994Y0082379D02*
X0031764Y0082379D01*
X0031764Y0083165D02*
X0074208Y0083165D01*
X0073422Y0083951D02*
X0031667Y0083951D01*
X0031341Y0084737D02*
X0072636Y0084737D01*
X0071850Y0085523D02*
X0031016Y0085523D01*
X0030263Y0086309D02*
X0071065Y0086309D01*
X0070279Y0087095D02*
X0029351Y0087095D01*
X0027977Y0077664D02*
X0092328Y0077664D01*
X0096628Y0080807D02*
X0119294Y0080807D01*
X0120064Y0080036D02*
X0097624Y0080036D01*
X0091833Y0084519D01*
X0091833Y0085955D01*
X0091330Y0086458D01*
X0091532Y0086660D01*
X0093507Y0086660D01*
X0094447Y0087050D01*
X0099708Y0092310D01*
X0099708Y0091962D01*
X0100211Y0091458D01*
X0099708Y0090955D01*
X0099708Y0086962D01*
X0100617Y0086052D01*
X0100561Y0085995D01*
X0100377Y0085677D01*
X0100282Y0085323D01*
X0100282Y0084155D01*
X0105810Y0084155D01*
X0105810Y0083761D01*
X0106204Y0083761D01*
X0106204Y0084155D01*
X0111731Y0084155D01*
X0111731Y0085323D01*
X0111636Y0085677D01*
X0111453Y0085995D01*
X0111396Y0086052D01*
X0111414Y0086070D01*
X0114031Y0086070D01*
X0120064Y0080036D01*
X0118508Y0081593D02*
X0111074Y0081593D01*
X0111193Y0081662D02*
X0111453Y0081921D01*
X0111636Y0082239D01*
X0111731Y0082594D01*
X0111731Y0083761D01*
X0106204Y0083761D01*
X0106204Y0081384D01*
X0110521Y0081384D01*
X0110875Y0081479D01*
X0111193Y0081662D01*
X0111674Y0082379D02*
X0117722Y0082379D01*
X0116936Y0083165D02*
X0111731Y0083165D01*
X0111731Y0084737D02*
X0115364Y0084737D01*
X0114578Y0085523D02*
X0111678Y0085523D01*
X0116150Y0083951D02*
X0106204Y0083951D01*
X0105810Y0083951D02*
X0092567Y0083951D01*
X0091833Y0084737D02*
X0100282Y0084737D01*
X0100336Y0085523D02*
X0091833Y0085523D01*
X0091480Y0086309D02*
X0100361Y0086309D01*
X0099708Y0087095D02*
X0094492Y0087095D01*
X0095278Y0087881D02*
X0099708Y0087881D01*
X0099708Y0088667D02*
X0096064Y0088667D01*
X0096850Y0089452D02*
X0099708Y0089452D01*
X0099708Y0090238D02*
X0097636Y0090238D01*
X0098422Y0091024D02*
X0099777Y0091024D01*
X0099859Y0091810D02*
X0099208Y0091810D01*
X0096865Y0097312D02*
X0096645Y0097312D01*
X0096865Y0098097D02*
X0096170Y0098097D01*
X0096865Y0098883D02*
X0095384Y0098883D01*
X0096865Y0099669D02*
X0091833Y0099669D01*
X0091833Y0100455D02*
X0096849Y0100455D01*
X0097001Y0101241D02*
X0091547Y0101241D01*
X0090761Y0102027D02*
X0097427Y0102027D01*
X0098095Y0102813D02*
X0088684Y0102813D01*
X0088684Y0103599D02*
X0098723Y0103599D01*
X0099478Y0104385D02*
X0095241Y0104385D01*
X0095385Y0104468D02*
X0095644Y0104727D01*
X0095828Y0105045D01*
X0095923Y0105399D01*
X0095923Y0107939D01*
X0093123Y0107939D01*
X0093123Y0104189D01*
X0094713Y0104189D01*
X0095067Y0104284D01*
X0095385Y0104468D01*
X0095862Y0105171D02*
X0125378Y0105171D01*
X0124592Y0105957D02*
X0095923Y0105957D01*
X0095923Y0106743D02*
X0123806Y0106743D01*
X0123020Y0107528D02*
X0095923Y0107528D01*
X0095923Y0108727D02*
X0095923Y0111266D01*
X0095828Y0111621D01*
X0095644Y0111939D01*
X0095385Y0112198D01*
X0095067Y0112382D01*
X0094713Y0112477D01*
X0093123Y0112477D01*
X0093123Y0108727D01*
X0092335Y0108727D01*
X0092335Y0107939D01*
X0089535Y0107939D01*
X0089535Y0105399D01*
X0089630Y0105045D01*
X0089814Y0104727D01*
X0090073Y0104468D01*
X0090391Y0104284D01*
X0090746Y0104189D01*
X0092335Y0104189D01*
X0092335Y0107939D01*
X0093123Y0107939D01*
X0093123Y0108727D01*
X0095923Y0108727D01*
X0095923Y0109100D02*
X0110861Y0109100D01*
X0110075Y0109886D02*
X0095923Y0109886D01*
X0095923Y0110672D02*
X0109289Y0110672D01*
X0108503Y0111458D02*
X0095872Y0111458D01*
X0095306Y0112244D02*
X0107717Y0112244D01*
X0106931Y0113030D02*
X0087073Y0113030D01*
X0087859Y0112244D02*
X0090153Y0112244D01*
X0090073Y0112198D02*
X0089814Y0111939D01*
X0089630Y0111621D01*
X0089535Y0111266D01*
X0089535Y0108727D01*
X0092335Y0108727D01*
X0092335Y0112477D01*
X0090746Y0112477D01*
X0090391Y0112382D01*
X0090073Y0112198D01*
X0089587Y0111458D02*
X0088205Y0111458D01*
X0088205Y0110672D02*
X0089535Y0110672D01*
X0089535Y0109886D02*
X0088205Y0109886D01*
X0088205Y0109100D02*
X0089535Y0109100D01*
X0088205Y0108314D02*
X0092335Y0108314D01*
X0092335Y0107528D02*
X0093123Y0107528D01*
X0093123Y0106743D02*
X0092335Y0106743D01*
X0092335Y0105957D02*
X0093123Y0105957D01*
X0093123Y0105171D02*
X0092335Y0105171D01*
X0092335Y0104385D02*
X0093123Y0104385D01*
X0090217Y0104385D02*
X0088684Y0104385D01*
X0088684Y0105171D02*
X0089597Y0105171D01*
X0089535Y0105957D02*
X0088720Y0105957D01*
X0088684Y0106743D02*
X0089535Y0106743D01*
X0089535Y0107528D02*
X0088449Y0107528D01*
X0092335Y0109100D02*
X0093123Y0109100D01*
X0093123Y0108314D02*
X0122234Y0108314D01*
X0126164Y0104385D02*
X0116878Y0104385D01*
X0117670Y0103599D02*
X0126950Y0103599D01*
X0106145Y0113816D02*
X0060140Y0113816D01*
X0059707Y0114602D02*
X0095895Y0114602D01*
X0094570Y0115388D02*
X0059707Y0115388D01*
X0059707Y0116173D02*
X0093784Y0116173D01*
X0092998Y0116959D02*
X0059707Y0116959D01*
X0059707Y0117745D02*
X0092212Y0117745D01*
X0091426Y0118531D02*
X0059707Y0118531D01*
X0059707Y0119317D02*
X0090640Y0119317D01*
X0089855Y0120103D02*
X0059707Y0120103D01*
X0059707Y0120889D02*
X0089069Y0120889D01*
X0088283Y0121675D02*
X0059707Y0121675D01*
X0059707Y0122461D02*
X0063066Y0122461D01*
X0062280Y0123247D02*
X0059707Y0123247D01*
X0059860Y0124033D02*
X0061681Y0124033D01*
X0061355Y0124819D02*
X0060186Y0124819D01*
X0060439Y0125604D02*
X0061102Y0125604D01*
X0061102Y0126390D02*
X0060439Y0126390D01*
X0060439Y0127176D02*
X0061102Y0127176D01*
X0061102Y0127962D02*
X0060439Y0127962D01*
X0060439Y0128748D02*
X0061102Y0128748D01*
X0061102Y0129534D02*
X0060439Y0129534D01*
X0060301Y0130320D02*
X0061240Y0130320D01*
X0061565Y0131106D02*
X0059976Y0131106D01*
X0059539Y0131892D02*
X0062002Y0131892D01*
X0061803Y0132678D02*
X0058753Y0132678D01*
X0057335Y0133464D02*
X0061300Y0133464D01*
X0069539Y0131892D02*
X0072002Y0131892D01*
X0071803Y0132678D02*
X0069738Y0132678D01*
X0070241Y0133464D02*
X0071300Y0133464D01*
X0070975Y0134249D02*
X0070566Y0134249D01*
X0069976Y0131106D02*
X0071565Y0131106D01*
X0071240Y0130320D02*
X0070301Y0130320D01*
X0070439Y0129534D02*
X0071102Y0129534D01*
X0071102Y0128748D02*
X0070439Y0128748D01*
X0070439Y0127962D02*
X0071102Y0127962D01*
X0071102Y0127176D02*
X0070439Y0127176D01*
X0070439Y0126390D02*
X0071102Y0126390D01*
X0071102Y0125604D02*
X0070439Y0125604D01*
X0070186Y0124819D02*
X0071355Y0124819D01*
X0071681Y0124033D02*
X0069860Y0124033D01*
X0069261Y0123247D02*
X0072280Y0123247D01*
X0073066Y0122461D02*
X0068475Y0122461D01*
X0078475Y0122461D02*
X0083066Y0122461D01*
X0082280Y0123247D02*
X0079261Y0123247D01*
X0079860Y0124033D02*
X0081681Y0124033D01*
X0081355Y0124819D02*
X0080186Y0124819D01*
X0080439Y0125604D02*
X0081102Y0125604D01*
X0081102Y0126390D02*
X0080439Y0126390D01*
X0080439Y0127176D02*
X0081102Y0127176D01*
X0081102Y0127962D02*
X0080439Y0127962D01*
X0080439Y0128748D02*
X0081102Y0128748D01*
X0081102Y0129534D02*
X0080439Y0129534D01*
X0080301Y0130320D02*
X0081240Y0130320D01*
X0081565Y0131106D02*
X0079976Y0131106D01*
X0079539Y0131892D02*
X0082002Y0131892D01*
X0081803Y0132678D02*
X0079738Y0132678D01*
X0080241Y0133464D02*
X0081300Y0133464D01*
X0080975Y0134249D02*
X0080566Y0134249D01*
X0081799Y0113030D02*
X0060926Y0113030D01*
X0063478Y0112244D02*
X0065563Y0112244D01*
X0074103Y0112244D02*
X0081013Y0112244D01*
X0092335Y0112244D02*
X0093123Y0112244D01*
X0093123Y0111458D02*
X0092335Y0111458D01*
X0092335Y0110672D02*
X0093123Y0110672D01*
X0093123Y0109886D02*
X0092335Y0109886D01*
X0100282Y0083761D02*
X0100282Y0082594D01*
X0100377Y0082239D01*
X0100561Y0081921D01*
X0100820Y0081662D01*
X0101138Y0081479D01*
X0101493Y0081384D01*
X0105810Y0081384D01*
X0105810Y0083761D01*
X0100282Y0083761D01*
X0100282Y0083165D02*
X0093583Y0083165D01*
X0094598Y0082379D02*
X0100340Y0082379D01*
X0100939Y0081593D02*
X0095613Y0081593D01*
X0105810Y0081593D02*
X0106204Y0081593D01*
X0106204Y0082379D02*
X0105810Y0082379D01*
X0105810Y0083165D02*
X0106204Y0083165D01*
X0129863Y0071376D02*
X0131678Y0071376D01*
X0131352Y0070591D02*
X0130189Y0070591D01*
X0130439Y0069805D02*
X0131102Y0069805D01*
X0131102Y0069019D02*
X0130439Y0069019D01*
X0130439Y0068233D02*
X0131102Y0068233D01*
X0131102Y0067447D02*
X0130439Y0067447D01*
X0130439Y0066661D02*
X0131102Y0066661D01*
X0131102Y0065875D02*
X0130439Y0065875D01*
X0130298Y0065089D02*
X0131243Y0065089D01*
X0131569Y0064303D02*
X0129972Y0064303D01*
X0129532Y0063517D02*
X0132009Y0063517D01*
X0132795Y0062731D02*
X0128746Y0062731D01*
X0127743Y0061945D02*
X0134225Y0061945D01*
X0137316Y0061945D02*
X0138972Y0061945D01*
X0138746Y0062731D02*
X0139314Y0062731D01*
X0139532Y0063517D02*
X0139655Y0063517D01*
X0139972Y0064303D02*
X0139997Y0064303D01*
X0140298Y0065089D02*
X0140339Y0065089D01*
X0140439Y0065875D02*
X0140680Y0065875D01*
X0140439Y0066661D02*
X0141022Y0066661D01*
X0141102Y0067447D02*
X0140439Y0067447D01*
X0140439Y0068233D02*
X0141102Y0068233D01*
X0141102Y0069019D02*
X0140439Y0069019D01*
X0140439Y0069805D02*
X0141102Y0069805D01*
X0141352Y0070591D02*
X0140189Y0070591D01*
X0139863Y0071376D02*
X0141678Y0071376D01*
X0138630Y0061160D02*
X0127436Y0061160D01*
X0127128Y0060374D02*
X0138288Y0060374D01*
X0137633Y0059588D02*
X0126821Y0059588D01*
X0126513Y0058802D02*
X0136271Y0058802D01*
X0135485Y0058016D02*
X0126205Y0058016D01*
X0125898Y0057230D02*
X0135006Y0057230D01*
X0134681Y0056444D02*
X0125590Y0056444D01*
X0125283Y0055658D02*
X0134452Y0055658D01*
X0134452Y0054872D02*
X0125214Y0054872D01*
X0125214Y0054086D02*
X0134452Y0054086D01*
X0134452Y0053300D02*
X0125214Y0053300D01*
X0125214Y0052515D02*
X0134452Y0052515D01*
X0134452Y0051729D02*
X0125214Y0051729D01*
X0125214Y0050943D02*
X0134452Y0050943D01*
X0134708Y0050157D02*
X0124958Y0050157D01*
X0124632Y0049371D02*
X0135034Y0049371D01*
X0135551Y0048585D02*
X0124115Y0048585D01*
X0124398Y0047799D02*
X0135268Y0047799D01*
X0134917Y0047013D02*
X0124749Y0047013D01*
X0125075Y0046227D02*
X0134591Y0046227D01*
X0134452Y0045441D02*
X0125214Y0045441D01*
X0125214Y0044655D02*
X0134452Y0044655D01*
X0134452Y0043869D02*
X0125214Y0043869D01*
X0125214Y0043084D02*
X0134452Y0043084D01*
X0134452Y0042298D02*
X0125214Y0042298D01*
X0125214Y0041512D02*
X0134452Y0041512D01*
X0134472Y0040726D02*
X0125194Y0040726D01*
X0124868Y0039940D02*
X0134798Y0039940D01*
X0135123Y0039154D02*
X0124542Y0039154D01*
X0124082Y0038368D02*
X0135583Y0038368D01*
X0135152Y0037582D02*
X0124514Y0037582D01*
X0124839Y0036796D02*
X0134827Y0036796D01*
X0134501Y0036010D02*
X0125165Y0036010D01*
X0125214Y0035224D02*
X0134452Y0035224D01*
X0134452Y0034439D02*
X0125214Y0034439D01*
X0125214Y0033653D02*
X0134452Y0033653D01*
X0134452Y0032867D02*
X0125214Y0032867D01*
X0125214Y0032081D02*
X0134452Y0032081D01*
X0134452Y0031295D02*
X0125214Y0031295D01*
X0125104Y0030509D02*
X0134562Y0030509D01*
X0134888Y0029723D02*
X0124778Y0029723D01*
X0124453Y0028937D02*
X0135213Y0028937D01*
X0135985Y0028151D02*
X0123681Y0028151D01*
X0122724Y0027365D02*
X0136942Y0027365D01*
X0142099Y0027365D02*
X0146942Y0027365D01*
X0145985Y0028151D02*
X0143056Y0028151D01*
X0143828Y0028937D02*
X0145213Y0028937D01*
X0144888Y0029723D02*
X0144153Y0029723D01*
X0144479Y0030509D02*
X0144562Y0030509D01*
X0152099Y0027365D02*
X0156942Y0027365D01*
X0155985Y0028151D02*
X0153056Y0028151D01*
X0153828Y0028937D02*
X0155213Y0028937D01*
X0154888Y0029723D02*
X0154153Y0029723D01*
X0154479Y0030509D02*
X0154562Y0030509D01*
X0162099Y0027365D02*
X0166942Y0027365D01*
X0165985Y0028151D02*
X0163056Y0028151D01*
X0163828Y0028937D02*
X0165213Y0028937D01*
X0164888Y0029723D02*
X0164153Y0029723D01*
X0164479Y0030509D02*
X0164562Y0030509D01*
X0172099Y0027365D02*
X0176942Y0027365D01*
X0175985Y0028151D02*
X0173056Y0028151D01*
X0173828Y0028937D02*
X0175213Y0028937D01*
X0174888Y0029723D02*
X0174153Y0029723D01*
X0174479Y0030509D02*
X0174562Y0030509D01*
X0182099Y0027365D02*
X0186942Y0027365D01*
X0185985Y0028151D02*
X0183056Y0028151D01*
X0183828Y0028937D02*
X0185213Y0028937D01*
X0184888Y0029723D02*
X0184153Y0029723D01*
X0184479Y0030509D02*
X0184562Y0030509D01*
X0192099Y0027365D02*
X0196942Y0027365D01*
X0195985Y0028151D02*
X0193056Y0028151D01*
X0193828Y0028937D02*
X0195213Y0028937D01*
X0194888Y0029723D02*
X0194153Y0029723D01*
X0194479Y0030509D02*
X0194562Y0030509D01*
X0202099Y0027365D02*
X0206942Y0027365D01*
X0205985Y0028151D02*
X0203056Y0028151D01*
X0203828Y0028937D02*
X0205213Y0028937D01*
X0204888Y0029723D02*
X0204153Y0029723D01*
X0204479Y0030509D02*
X0204562Y0030509D01*
X0212099Y0027365D02*
X0216942Y0027365D01*
X0215985Y0028151D02*
X0213056Y0028151D01*
X0213828Y0028937D02*
X0215213Y0028937D01*
X0214888Y0029723D02*
X0214153Y0029723D01*
X0214479Y0030509D02*
X0214562Y0030509D01*
X0222099Y0027365D02*
X0227623Y0027365D01*
X0227623Y0026579D02*
X0009532Y0026579D01*
X0009532Y0025793D02*
X0227623Y0025793D01*
X0228299Y0025008D02*
X0009532Y0025008D01*
X0009532Y0022650D02*
X0396389Y0022650D01*
X0396389Y0021864D02*
X0009532Y0021864D01*
X0031701Y0043869D02*
X0035652Y0043869D01*
X0035652Y0044655D02*
X0031375Y0044655D01*
X0031050Y0045441D02*
X0035684Y0045441D01*
X0035857Y0046227D02*
X0030345Y0046227D01*
X0029547Y0047013D02*
X0036187Y0047013D01*
X0036709Y0047799D02*
X0028088Y0047799D01*
X0029740Y0048585D02*
X0036989Y0048585D01*
X0036344Y0049371D02*
X0030526Y0049371D01*
X0031125Y0050157D02*
X0035949Y0050157D01*
X0035729Y0050943D02*
X0031450Y0050943D01*
X0031764Y0051729D02*
X0035652Y0051729D01*
X0035652Y0052515D02*
X0031764Y0052515D01*
X0031764Y0053300D02*
X0039752Y0053300D01*
X0039752Y0054086D02*
X0040539Y0054086D01*
X0040539Y0054872D02*
X0039752Y0054872D01*
X0039752Y0055658D02*
X0040539Y0055658D01*
X0040539Y0056444D02*
X0039752Y0056444D01*
X0039752Y0057230D02*
X0040539Y0057230D01*
X0040539Y0058016D02*
X0039752Y0058016D01*
X0039752Y0058802D02*
X0040539Y0058802D01*
X0037938Y0058802D02*
X0029957Y0058802D01*
X0028612Y0058016D02*
X0036923Y0058016D01*
X0036298Y0057230D02*
X0029024Y0057230D01*
X0030128Y0056444D02*
X0035928Y0056444D01*
X0035719Y0055658D02*
X0030914Y0055658D01*
X0031285Y0054872D02*
X0035652Y0054872D01*
X0035652Y0054086D02*
X0031611Y0054086D01*
X0043302Y0048585D02*
X0046176Y0048585D01*
X0045893Y0047799D02*
X0043582Y0047799D01*
X0044104Y0047013D02*
X0045542Y0047013D01*
X0045216Y0046227D02*
X0044434Y0046227D01*
X0044607Y0045441D02*
X0045077Y0045441D01*
X0045077Y0044655D02*
X0044639Y0044655D01*
X0044639Y0043869D02*
X0045077Y0043869D01*
X0045659Y0049371D02*
X0043947Y0049371D01*
X0044342Y0050157D02*
X0045333Y0050157D01*
X0045077Y0050943D02*
X0044562Y0050943D01*
X0044639Y0051729D02*
X0045077Y0051729D01*
X0045077Y0052515D02*
X0044639Y0052515D01*
X0050428Y0071376D02*
X0051678Y0071376D01*
X0055104Y0030509D02*
X0055187Y0030509D01*
X0055513Y0029723D02*
X0054778Y0029723D01*
X0054453Y0028937D02*
X0055838Y0028937D01*
X0056610Y0028151D02*
X0053681Y0028151D01*
X0052724Y0027365D02*
X0057567Y0027365D01*
X0062724Y0027365D02*
X0067567Y0027365D01*
X0066610Y0028151D02*
X0063681Y0028151D01*
X0064453Y0028937D02*
X0065838Y0028937D01*
X0065513Y0029723D02*
X0064778Y0029723D01*
X0065104Y0030509D02*
X0065187Y0030509D01*
X0072724Y0027365D02*
X0077567Y0027365D01*
X0076610Y0028151D02*
X0073681Y0028151D01*
X0074453Y0028937D02*
X0075838Y0028937D01*
X0075513Y0029723D02*
X0074778Y0029723D01*
X0075104Y0030509D02*
X0075187Y0030509D01*
X0082724Y0027365D02*
X0087567Y0027365D01*
X0086610Y0028151D02*
X0083681Y0028151D01*
X0084453Y0028937D02*
X0085838Y0028937D01*
X0085513Y0029723D02*
X0084778Y0029723D01*
X0085104Y0030509D02*
X0085187Y0030509D01*
X0092724Y0027365D02*
X0097567Y0027365D01*
X0096610Y0028151D02*
X0093681Y0028151D01*
X0094453Y0028937D02*
X0095838Y0028937D01*
X0095513Y0029723D02*
X0094778Y0029723D01*
X0095104Y0030509D02*
X0095187Y0030509D01*
X0102724Y0027365D02*
X0107567Y0027365D01*
X0106610Y0028151D02*
X0103681Y0028151D01*
X0104453Y0028937D02*
X0105838Y0028937D01*
X0105513Y0029723D02*
X0104778Y0029723D01*
X0105104Y0030509D02*
X0105187Y0030509D01*
X0112724Y0027365D02*
X0117567Y0027365D01*
X0116610Y0028151D02*
X0113681Y0028151D01*
X0114453Y0028937D02*
X0115838Y0028937D01*
X0115513Y0029723D02*
X0114778Y0029723D01*
X0115104Y0030509D02*
X0115187Y0030509D01*
X0192660Y0073734D02*
X0244477Y0073734D01*
X0244495Y0072948D02*
X0238483Y0072948D01*
X0239269Y0072162D02*
X0243085Y0072162D01*
X0242395Y0071376D02*
X0239863Y0071376D01*
X0240189Y0070591D02*
X0241964Y0070591D01*
X0241744Y0069805D02*
X0240439Y0069805D01*
X0240439Y0069019D02*
X0241677Y0069019D01*
X0241677Y0068233D02*
X0240439Y0068233D01*
X0240439Y0067447D02*
X0245377Y0067447D01*
X0245377Y0068233D02*
X0246164Y0068233D01*
X0246164Y0069019D02*
X0245377Y0069019D01*
X0245377Y0069805D02*
X0246164Y0069805D01*
X0246164Y0070591D02*
X0245377Y0070591D01*
X0245377Y0071376D02*
X0246164Y0071376D01*
X0246049Y0072162D02*
X0245377Y0072162D01*
X0243691Y0074520D02*
X0191874Y0074520D01*
X0191088Y0075306D02*
X0242905Y0075306D01*
X0242119Y0076092D02*
X0190302Y0076092D01*
X0189516Y0076878D02*
X0241333Y0076878D01*
X0240547Y0077664D02*
X0188962Y0077664D01*
X0188184Y0078450D02*
X0239761Y0078450D01*
X0238976Y0079236D02*
X0187398Y0079236D01*
X0186612Y0080021D02*
X0238190Y0080021D01*
X0237404Y0080807D02*
X0185826Y0080807D01*
X0198483Y0072948D02*
X0203058Y0072948D01*
X0202272Y0072162D02*
X0199269Y0072162D01*
X0199863Y0071376D02*
X0201678Y0071376D01*
X0201352Y0070591D02*
X0200189Y0070591D01*
X0200439Y0069805D02*
X0201102Y0069805D01*
X0201102Y0069019D02*
X0200439Y0069019D01*
X0200439Y0068233D02*
X0201102Y0068233D01*
X0201102Y0067447D02*
X0200439Y0067447D01*
X0200439Y0066661D02*
X0201022Y0066661D01*
X0200680Y0065875D02*
X0200439Y0065875D01*
X0200339Y0065089D02*
X0200298Y0065089D01*
X0199997Y0064303D02*
X0199972Y0064303D01*
X0199655Y0063517D02*
X0199532Y0063517D01*
X0199314Y0062731D02*
X0198746Y0062731D01*
X0198972Y0061945D02*
X0197558Y0061945D01*
X0197216Y0061160D02*
X0198630Y0061160D01*
X0198288Y0060374D02*
X0196875Y0060374D01*
X0196533Y0059588D02*
X0197633Y0059588D01*
X0196271Y0058802D02*
X0196191Y0058802D01*
X0206191Y0058802D02*
X0206271Y0058802D01*
X0206533Y0059588D02*
X0207633Y0059588D01*
X0208288Y0060374D02*
X0206875Y0060374D01*
X0207216Y0061160D02*
X0208630Y0061160D01*
X0208972Y0061945D02*
X0207558Y0061945D01*
X0208746Y0062731D02*
X0209314Y0062731D01*
X0209532Y0063517D02*
X0209655Y0063517D01*
X0209972Y0064303D02*
X0209997Y0064303D01*
X0210298Y0065089D02*
X0210339Y0065089D01*
X0210439Y0065875D02*
X0210680Y0065875D01*
X0210439Y0066661D02*
X0211022Y0066661D01*
X0211102Y0067447D02*
X0210439Y0067447D01*
X0210439Y0068233D02*
X0211102Y0068233D01*
X0211102Y0069019D02*
X0210439Y0069019D01*
X0210439Y0069805D02*
X0211102Y0069805D01*
X0211352Y0070591D02*
X0210189Y0070591D01*
X0209863Y0071376D02*
X0211678Y0071376D01*
X0212272Y0072162D02*
X0209269Y0072162D01*
X0208483Y0072948D02*
X0213058Y0072948D01*
X0224035Y0057230D02*
X0325908Y0057230D01*
X0338566Y0058802D02*
X0384667Y0058802D01*
X0386072Y0059588D02*
X0339352Y0059588D01*
X0339135Y0049371D02*
X0396389Y0049371D01*
X0396389Y0048585D02*
X0338115Y0048585D01*
X0339151Y0040726D02*
X0383939Y0040726D01*
X0382042Y0039940D02*
X0338826Y0039940D01*
X0338090Y0039154D02*
X0380627Y0039154D01*
X0379841Y0038368D02*
X0337205Y0038368D01*
X0315691Y0067447D02*
X0258002Y0067447D01*
X0253908Y0064303D02*
X0249318Y0064303D01*
X0249272Y0064213D02*
X0249564Y0064787D01*
X0249763Y0065400D01*
X0249864Y0066036D01*
X0249864Y0067315D01*
X0246164Y0067315D01*
X0246164Y0062276D01*
X0246729Y0062365D01*
X0247342Y0062565D01*
X0247916Y0062857D01*
X0248437Y0063236D01*
X0248893Y0063691D01*
X0249272Y0064213D01*
X0248719Y0063517D02*
X0254694Y0063517D01*
X0255480Y0062731D02*
X0247669Y0062731D01*
X0246164Y0062731D02*
X0245377Y0062731D01*
X0245377Y0063517D02*
X0246164Y0063517D01*
X0246164Y0064303D02*
X0245377Y0064303D01*
X0245377Y0065089D02*
X0246164Y0065089D01*
X0246164Y0065875D02*
X0245377Y0065875D01*
X0245377Y0066661D02*
X0246164Y0066661D01*
X0246164Y0067447D02*
X0250764Y0067447D01*
X0249978Y0068233D02*
X0249864Y0068233D01*
X0249864Y0066661D02*
X0251550Y0066661D01*
X0252336Y0065875D02*
X0249839Y0065875D01*
X0249662Y0065089D02*
X0253122Y0065089D01*
X0243872Y0062731D02*
X0238746Y0062731D01*
X0239532Y0063517D02*
X0242822Y0063517D01*
X0242223Y0064303D02*
X0239972Y0064303D01*
X0240298Y0065089D02*
X0241879Y0065089D01*
X0241702Y0065875D02*
X0240439Y0065875D01*
X0240439Y0066661D02*
X0241677Y0066661D01*
X0237252Y0048585D02*
X0223490Y0048585D01*
X0223773Y0047799D02*
X0237305Y0047799D01*
X0228245Y0045441D02*
X0224589Y0045441D01*
X0224589Y0044655D02*
X0227623Y0044655D01*
X0227623Y0043869D02*
X0224589Y0043869D01*
X0224589Y0043084D02*
X0227623Y0043084D01*
X0227623Y0042298D02*
X0224589Y0042298D01*
X0224589Y0041512D02*
X0227623Y0041512D01*
X0227623Y0040726D02*
X0224569Y0040726D01*
X0224243Y0039940D02*
X0227623Y0039940D01*
X0227623Y0039154D02*
X0223917Y0039154D01*
X0223457Y0038368D02*
X0227623Y0038368D01*
X0227623Y0037582D02*
X0223889Y0037582D01*
X0224214Y0036796D02*
X0227623Y0036796D01*
X0227623Y0036010D02*
X0224540Y0036010D01*
X0224589Y0035224D02*
X0227623Y0035224D01*
X0227623Y0034439D02*
X0224589Y0034439D01*
X0224589Y0033653D02*
X0227623Y0033653D01*
X0227623Y0032867D02*
X0224589Y0032867D01*
X0224589Y0032081D02*
X0227623Y0032081D01*
X0227623Y0031295D02*
X0224589Y0031295D01*
X0224479Y0030509D02*
X0227623Y0030509D01*
X0227623Y0029723D02*
X0224153Y0029723D01*
X0223828Y0028937D02*
X0227623Y0028937D01*
X0227623Y0028151D02*
X0223056Y0028151D01*
X0280499Y0073734D02*
X0291335Y0073734D01*
X0290694Y0074520D02*
X0280173Y0074520D01*
X0280136Y0080807D02*
X0290694Y0080807D01*
X0291133Y0081593D02*
X0280462Y0081593D01*
X0254253Y0121675D02*
X0141160Y0121675D01*
X0158475Y0122461D02*
X0163066Y0122461D01*
X0162280Y0123247D02*
X0159261Y0123247D01*
X0159860Y0124033D02*
X0161681Y0124033D01*
X0161355Y0124819D02*
X0160186Y0124819D01*
X0160439Y0125604D02*
X0161102Y0125604D01*
X0161102Y0126390D02*
X0160439Y0126390D01*
X0160439Y0127176D02*
X0161102Y0127176D01*
X0161102Y0127962D02*
X0160439Y0127962D01*
X0160439Y0128748D02*
X0161102Y0128748D01*
X0161102Y0129534D02*
X0160439Y0129534D01*
X0160301Y0130320D02*
X0161240Y0130320D01*
X0161565Y0131106D02*
X0159976Y0131106D01*
X0159539Y0131892D02*
X0162002Y0131892D01*
X0162227Y0132678D02*
X0159314Y0132678D01*
X0159314Y0133464D02*
X0162227Y0133464D01*
X0162227Y0134249D02*
X0159314Y0134249D01*
X0159596Y0135035D02*
X0161945Y0135035D01*
X0161359Y0135821D02*
X0160182Y0135821D01*
X0160508Y0136607D02*
X0161033Y0136607D01*
X0160906Y0139751D02*
X0160635Y0139751D01*
X0160310Y0140537D02*
X0161231Y0140537D01*
X0161636Y0141323D02*
X0159905Y0141323D01*
X0159119Y0142109D02*
X0162422Y0142109D01*
X0179738Y0132678D02*
X0181803Y0132678D01*
X0182002Y0131892D02*
X0179539Y0131892D01*
X0179976Y0131106D02*
X0181565Y0131106D01*
X0181240Y0130320D02*
X0180301Y0130320D01*
X0180439Y0129534D02*
X0181102Y0129534D01*
X0181102Y0128748D02*
X0180439Y0128748D01*
X0180439Y0127962D02*
X0181102Y0127962D01*
X0181102Y0127176D02*
X0180439Y0127176D01*
X0180439Y0126390D02*
X0181102Y0126390D01*
X0181102Y0125604D02*
X0180439Y0125604D01*
X0180186Y0124819D02*
X0181355Y0124819D01*
X0181681Y0124033D02*
X0179860Y0124033D01*
X0179261Y0123247D02*
X0182280Y0123247D01*
X0183066Y0122461D02*
X0178475Y0122461D01*
X0188475Y0122461D02*
X0193066Y0122461D01*
X0192280Y0123247D02*
X0189261Y0123247D01*
X0189860Y0124033D02*
X0191681Y0124033D01*
X0191355Y0124819D02*
X0190186Y0124819D01*
X0190439Y0125604D02*
X0191102Y0125604D01*
X0191102Y0126390D02*
X0190439Y0126390D01*
X0190439Y0127176D02*
X0191102Y0127176D01*
X0191102Y0127962D02*
X0190439Y0127962D01*
X0190439Y0128748D02*
X0191102Y0128748D01*
X0191102Y0129534D02*
X0190439Y0129534D01*
X0190301Y0130320D02*
X0191240Y0130320D01*
X0191565Y0131106D02*
X0189976Y0131106D01*
X0189539Y0131892D02*
X0192002Y0131892D01*
X0191803Y0132678D02*
X0189738Y0132678D01*
X0190241Y0133464D02*
X0191300Y0133464D01*
X0190975Y0134249D02*
X0190566Y0134249D01*
X0199539Y0131892D02*
X0202002Y0131892D01*
X0201803Y0132678D02*
X0199738Y0132678D01*
X0200241Y0133464D02*
X0201300Y0133464D01*
X0200975Y0134249D02*
X0200566Y0134249D01*
X0199976Y0131106D02*
X0201565Y0131106D01*
X0201240Y0130320D02*
X0200301Y0130320D01*
X0200439Y0129534D02*
X0201102Y0129534D01*
X0201102Y0128748D02*
X0200439Y0128748D01*
X0200439Y0127962D02*
X0201102Y0127962D01*
X0201102Y0127176D02*
X0200439Y0127176D01*
X0200439Y0126390D02*
X0201102Y0126390D01*
X0201102Y0125604D02*
X0200439Y0125604D01*
X0200186Y0124819D02*
X0201355Y0124819D01*
X0201681Y0124033D02*
X0199860Y0124033D01*
X0199261Y0123247D02*
X0202280Y0123247D01*
X0203066Y0122461D02*
X0198475Y0122461D01*
X0208475Y0122461D02*
X0213066Y0122461D01*
X0212280Y0123247D02*
X0209261Y0123247D01*
X0209860Y0124033D02*
X0211681Y0124033D01*
X0211355Y0124819D02*
X0210186Y0124819D01*
X0210439Y0125604D02*
X0211102Y0125604D01*
X0211102Y0126390D02*
X0210439Y0126390D01*
X0210439Y0127176D02*
X0211102Y0127176D01*
X0211102Y0127962D02*
X0210439Y0127962D01*
X0210439Y0128748D02*
X0211102Y0128748D01*
X0211102Y0129534D02*
X0210439Y0129534D01*
X0210301Y0130320D02*
X0211240Y0130320D01*
X0211565Y0131106D02*
X0209976Y0131106D01*
X0209539Y0131892D02*
X0212002Y0131892D01*
X0211803Y0132678D02*
X0209738Y0132678D01*
X0210241Y0133464D02*
X0211300Y0133464D01*
X0210975Y0134249D02*
X0210566Y0134249D01*
X0219539Y0131892D02*
X0222002Y0131892D01*
X0221803Y0132678D02*
X0219738Y0132678D01*
X0220241Y0133464D02*
X0221300Y0133464D01*
X0220975Y0134249D02*
X0220566Y0134249D01*
X0219976Y0131106D02*
X0221565Y0131106D01*
X0221240Y0130320D02*
X0220301Y0130320D01*
X0220439Y0129534D02*
X0221102Y0129534D01*
X0221102Y0128748D02*
X0220439Y0128748D01*
X0220439Y0127962D02*
X0221102Y0127962D01*
X0221102Y0127176D02*
X0220439Y0127176D01*
X0220439Y0126390D02*
X0221102Y0126390D01*
X0221102Y0125604D02*
X0220439Y0125604D01*
X0220186Y0124819D02*
X0221355Y0124819D01*
X0221681Y0124033D02*
X0219860Y0124033D01*
X0219261Y0123247D02*
X0222280Y0123247D01*
X0223066Y0122461D02*
X0218475Y0122461D01*
X0228475Y0122461D02*
X0233066Y0122461D01*
X0232280Y0123247D02*
X0229261Y0123247D01*
X0229860Y0124033D02*
X0231681Y0124033D01*
X0231355Y0124819D02*
X0230186Y0124819D01*
X0230439Y0125604D02*
X0231102Y0125604D01*
X0231102Y0126390D02*
X0230439Y0126390D01*
X0230439Y0127176D02*
X0231102Y0127176D01*
X0231102Y0127962D02*
X0230439Y0127962D01*
X0230439Y0128748D02*
X0231102Y0128748D01*
X0231102Y0129534D02*
X0230439Y0129534D01*
X0230301Y0130320D02*
X0231240Y0130320D01*
X0231565Y0131106D02*
X0229976Y0131106D01*
X0229539Y0131892D02*
X0232002Y0131892D01*
X0231803Y0132678D02*
X0229738Y0132678D01*
X0230241Y0133464D02*
X0231300Y0133464D01*
X0230975Y0134249D02*
X0230566Y0134249D01*
X0239539Y0131892D02*
X0242002Y0131892D01*
X0241803Y0132678D02*
X0239738Y0132678D01*
X0240241Y0133464D02*
X0241300Y0133464D01*
X0240975Y0134249D02*
X0240566Y0134249D01*
X0240576Y0137393D02*
X0240965Y0137393D01*
X0241290Y0138179D02*
X0240251Y0138179D01*
X0239762Y0138965D02*
X0241779Y0138965D01*
X0242565Y0139751D02*
X0239832Y0139751D01*
X0240618Y0140537D02*
X0243963Y0140537D01*
X0247578Y0140537D02*
X0261079Y0140537D01*
X0261865Y0139751D02*
X0248976Y0139751D01*
X0249762Y0138965D02*
X0262651Y0138965D01*
X0263437Y0138179D02*
X0250251Y0138179D01*
X0250576Y0137393D02*
X0264222Y0137393D01*
X0265008Y0136607D02*
X0250807Y0136607D01*
X0250807Y0135821D02*
X0265794Y0135821D01*
X0267163Y0135035D02*
X0250807Y0135035D01*
X0250566Y0134249D02*
X0268756Y0134249D01*
X0268502Y0133464D02*
X0250241Y0133464D01*
X0249738Y0132678D02*
X0268502Y0132678D01*
X0268502Y0131892D02*
X0249539Y0131892D01*
X0249976Y0131106D02*
X0268781Y0131106D01*
X0263420Y0130320D02*
X0250301Y0130320D01*
X0250439Y0129534D02*
X0262112Y0129534D01*
X0261326Y0128748D02*
X0250439Y0128748D01*
X0250439Y0127962D02*
X0260540Y0127962D01*
X0259754Y0127176D02*
X0250439Y0127176D01*
X0250439Y0126390D02*
X0258968Y0126390D01*
X0258182Y0125604D02*
X0250439Y0125604D01*
X0250186Y0124819D02*
X0257396Y0124819D01*
X0256610Y0124033D02*
X0249860Y0124033D01*
X0249261Y0123247D02*
X0255824Y0123247D01*
X0255038Y0122461D02*
X0248475Y0122461D01*
X0243066Y0122461D02*
X0238475Y0122461D01*
X0239261Y0123247D02*
X0242280Y0123247D01*
X0241681Y0124033D02*
X0239860Y0124033D01*
X0240186Y0124819D02*
X0241355Y0124819D01*
X0241102Y0125604D02*
X0240439Y0125604D01*
X0240439Y0126390D02*
X0241102Y0126390D01*
X0241102Y0127176D02*
X0240439Y0127176D01*
X0240439Y0127962D02*
X0241102Y0127962D01*
X0241102Y0128748D02*
X0240439Y0128748D01*
X0240439Y0129534D02*
X0241102Y0129534D01*
X0241240Y0130320D02*
X0240301Y0130320D01*
X0239976Y0131106D02*
X0241565Y0131106D01*
X0280350Y0141323D02*
X0292718Y0141323D01*
X0293504Y0142109D02*
X0280539Y0142109D01*
X0321751Y0136607D02*
X0322527Y0136607D01*
X0321751Y0135821D02*
X0323313Y0135821D01*
X0324099Y0135035D02*
X0321751Y0135035D01*
X0321751Y0134249D02*
X0324885Y0134249D01*
X0325670Y0133464D02*
X0321751Y0133464D01*
X0321751Y0132678D02*
X0326456Y0132678D01*
X0327242Y0131892D02*
X0321751Y0131892D01*
X0321751Y0131106D02*
X0328028Y0131106D01*
X0328993Y0130320D02*
X0321751Y0130320D01*
X0321751Y0129534D02*
X0329743Y0129534D01*
X0337135Y0138179D02*
X0396389Y0138179D01*
X0396389Y0138965D02*
X0338729Y0138965D01*
X0339515Y0139751D02*
X0396389Y0139751D01*
X0396389Y0140537D02*
X0340024Y0140537D01*
X0340350Y0141323D02*
X0396389Y0141323D01*
X0396389Y0142109D02*
X0340539Y0142109D01*
X0340539Y0142895D02*
X0396389Y0142895D01*
X0396389Y0143680D02*
X0340521Y0143680D01*
X0340195Y0144466D02*
X0396389Y0144466D01*
X0396389Y0145252D02*
X0339870Y0145252D01*
X0339143Y0146038D02*
X0396389Y0146038D01*
X0396389Y0146824D02*
X0338134Y0146824D01*
X0337659Y0148396D02*
X0396389Y0148396D01*
X0396389Y0149182D02*
X0338946Y0149182D01*
X0339732Y0149968D02*
X0396389Y0149968D01*
X0396389Y0150754D02*
X0340114Y0150754D01*
X0340440Y0151540D02*
X0396389Y0151540D01*
X0396389Y0152325D02*
X0340539Y0152325D01*
X0340539Y0153111D02*
X0396389Y0153111D01*
X0396389Y0153897D02*
X0340431Y0153897D01*
X0340106Y0154683D02*
X0396389Y0154683D01*
X0396389Y0155469D02*
X0339712Y0155469D01*
X0338926Y0156255D02*
X0396389Y0156255D01*
X0396389Y0157041D02*
X0337610Y0157041D01*
X0338182Y0158613D02*
X0396389Y0158613D01*
X0396389Y0159399D02*
X0339163Y0159399D01*
X0339878Y0160185D02*
X0396389Y0160185D01*
X0396389Y0160970D02*
X0349693Y0160970D01*
X0349272Y0160796D02*
X0351124Y0161563D01*
X0352541Y0162980D01*
X0353307Y0164831D01*
X0353307Y0166835D01*
X0352541Y0168687D01*
X0351124Y0170103D01*
X0349272Y0170870D01*
X0347269Y0170870D01*
X0345417Y0170103D01*
X0344000Y0168687D01*
X0343233Y0166835D01*
X0343233Y0164831D01*
X0344000Y0162980D01*
X0345417Y0161563D01*
X0347269Y0160796D01*
X0349272Y0160796D01*
X0351317Y0161756D02*
X0396389Y0161756D01*
X0396389Y0162542D02*
X0352103Y0162542D01*
X0352685Y0163328D02*
X0396389Y0163328D01*
X0396389Y0164114D02*
X0353010Y0164114D01*
X0353307Y0164900D02*
X0396389Y0164900D01*
X0396389Y0165686D02*
X0353307Y0165686D01*
X0353307Y0166472D02*
X0396389Y0166472D01*
X0396389Y0167258D02*
X0384689Y0167258D01*
X0384033Y0166986D02*
X0386594Y0168047D01*
X0388555Y0170007D01*
X0389615Y0172568D01*
X0389615Y0175341D01*
X0388555Y0177902D01*
X0386594Y0179862D01*
X0384033Y0180923D01*
X0381261Y0180923D01*
X0378700Y0179862D01*
X0376739Y0177902D01*
X0375678Y0175341D01*
X0375678Y0172568D01*
X0376739Y0170007D01*
X0378700Y0168047D01*
X0381261Y0166986D01*
X0384033Y0166986D01*
X0386587Y0168044D02*
X0396389Y0168044D01*
X0396389Y0168830D02*
X0387377Y0168830D01*
X0388163Y0169616D02*
X0396389Y0169616D01*
X0396389Y0170401D02*
X0388718Y0170401D01*
X0389043Y0171187D02*
X0396389Y0171187D01*
X0396389Y0171973D02*
X0389369Y0171973D01*
X0389615Y0172759D02*
X0396389Y0172759D01*
X0396389Y0173545D02*
X0389615Y0173545D01*
X0389615Y0174331D02*
X0396389Y0174331D01*
X0396389Y0175117D02*
X0389615Y0175117D01*
X0389383Y0175903D02*
X0396389Y0175903D01*
X0396389Y0176689D02*
X0389057Y0176689D01*
X0388731Y0177475D02*
X0396389Y0177475D01*
X0396389Y0178261D02*
X0388196Y0178261D01*
X0387410Y0179046D02*
X0396389Y0179046D01*
X0396389Y0179832D02*
X0386624Y0179832D01*
X0384769Y0180618D02*
X0396389Y0180618D01*
X0396389Y0181404D02*
X0347620Y0181404D01*
X0346834Y0180618D02*
X0380525Y0180618D01*
X0378670Y0179832D02*
X0365811Y0179832D01*
X0365295Y0180348D02*
X0369041Y0176603D01*
X0369041Y0174348D01*
X0363041Y0174348D01*
X0363041Y0173561D01*
X0369041Y0173561D01*
X0369041Y0171306D01*
X0365295Y0167561D01*
X0363041Y0167561D01*
X0363041Y0173561D01*
X0362253Y0173561D01*
X0356253Y0173561D01*
X0356253Y0171306D01*
X0359999Y0167561D01*
X0362253Y0167561D01*
X0362253Y0173561D01*
X0362253Y0174348D01*
X0356253Y0174348D01*
X0356253Y0176603D01*
X0359999Y0180348D01*
X0362253Y0180348D01*
X0362253Y0174348D01*
X0363041Y0174348D01*
X0363041Y0180348D01*
X0365295Y0180348D01*
X0366597Y0179046D02*
X0377884Y0179046D01*
X0377098Y0178261D02*
X0367383Y0178261D01*
X0368169Y0177475D02*
X0376562Y0177475D01*
X0376237Y0176689D02*
X0368955Y0176689D01*
X0369041Y0175903D02*
X0375911Y0175903D01*
X0375678Y0175117D02*
X0369041Y0175117D01*
X0369041Y0173545D02*
X0375678Y0173545D01*
X0375678Y0172759D02*
X0369041Y0172759D01*
X0369041Y0171973D02*
X0375925Y0171973D01*
X0376250Y0171187D02*
X0368922Y0171187D01*
X0368136Y0170401D02*
X0376576Y0170401D01*
X0377131Y0169616D02*
X0367350Y0169616D01*
X0366564Y0168830D02*
X0377917Y0168830D01*
X0378707Y0168044D02*
X0365778Y0168044D01*
X0363041Y0168044D02*
X0362253Y0168044D01*
X0362253Y0168830D02*
X0363041Y0168830D01*
X0363041Y0169616D02*
X0362253Y0169616D01*
X0362253Y0170401D02*
X0363041Y0170401D01*
X0363041Y0171187D02*
X0362253Y0171187D01*
X0362253Y0171973D02*
X0363041Y0171973D01*
X0363041Y0172759D02*
X0362253Y0172759D01*
X0362253Y0173545D02*
X0363041Y0173545D01*
X0363041Y0174331D02*
X0375678Y0174331D01*
X0380605Y0167258D02*
X0353132Y0167258D01*
X0352807Y0168044D02*
X0359516Y0168044D01*
X0358730Y0168830D02*
X0352398Y0168830D01*
X0351612Y0169616D02*
X0357944Y0169616D01*
X0357158Y0170401D02*
X0350404Y0170401D01*
X0346137Y0170401D02*
X0339968Y0170401D01*
X0339828Y0170064D02*
X0340539Y0171780D01*
X0340539Y0173637D01*
X0339828Y0175353D01*
X0338515Y0176666D01*
X0336799Y0177377D01*
X0332242Y0177377D01*
X0330526Y0176666D01*
X0329213Y0175353D01*
X0328502Y0173637D01*
X0328502Y0171780D01*
X0329213Y0170064D01*
X0330526Y0168751D01*
X0332242Y0168040D01*
X0336799Y0168040D01*
X0338515Y0168751D01*
X0339828Y0170064D01*
X0339380Y0169616D02*
X0344929Y0169616D01*
X0344143Y0168830D02*
X0338594Y0168830D01*
X0336808Y0168044D02*
X0343734Y0168044D01*
X0343409Y0167258D02*
X0337086Y0167258D01*
X0338709Y0166472D02*
X0343233Y0166472D01*
X0343233Y0165686D02*
X0339495Y0165686D01*
X0340016Y0164900D02*
X0343233Y0164900D01*
X0343531Y0164114D02*
X0340341Y0164114D01*
X0340539Y0163328D02*
X0343856Y0163328D01*
X0344438Y0162542D02*
X0340539Y0162542D01*
X0340529Y0161756D02*
X0345224Y0161756D01*
X0346848Y0160970D02*
X0340204Y0160970D01*
X0331431Y0157041D02*
X0325518Y0157041D01*
X0326304Y0156255D02*
X0330115Y0156255D01*
X0330859Y0158613D02*
X0323946Y0158613D01*
X0323160Y0159399D02*
X0329878Y0159399D01*
X0325591Y0160185D02*
X0322374Y0160185D01*
X0321588Y0160970D02*
X0324408Y0160970D01*
X0323557Y0161756D02*
X0320802Y0161756D01*
X0320017Y0162542D02*
X0322705Y0162542D01*
X0321854Y0163328D02*
X0319231Y0163328D01*
X0318445Y0164114D02*
X0321002Y0164114D01*
X0320151Y0164900D02*
X0317659Y0164900D01*
X0316873Y0165686D02*
X0319300Y0165686D01*
X0318448Y0166472D02*
X0316087Y0166472D01*
X0315301Y0167258D02*
X0317597Y0167258D01*
X0316745Y0168044D02*
X0314515Y0168044D01*
X0321466Y0171187D02*
X0328747Y0171187D01*
X0328502Y0171973D02*
X0320614Y0171973D01*
X0319763Y0172759D02*
X0328502Y0172759D01*
X0328502Y0173545D02*
X0318912Y0173545D01*
X0318060Y0174331D02*
X0328789Y0174331D01*
X0329115Y0175117D02*
X0317209Y0175117D01*
X0316357Y0175903D02*
X0329763Y0175903D01*
X0330581Y0176689D02*
X0315506Y0176689D01*
X0314655Y0177475D02*
X0357125Y0177475D01*
X0357911Y0178261D02*
X0344075Y0178261D01*
X0343458Y0178005D02*
X0344760Y0178544D01*
X0345757Y0179541D01*
X0349508Y0183292D01*
X0350047Y0184595D01*
X0350047Y0186004D01*
X0349508Y0187306D01*
X0349260Y0187554D01*
X0349260Y0196173D01*
X0349508Y0196421D01*
X0350047Y0197724D01*
X0350047Y0199133D01*
X0349508Y0200436D01*
X0344231Y0205712D01*
X0342929Y0206252D01*
X0338929Y0206252D01*
X0338515Y0206666D01*
X0336799Y0207377D01*
X0332242Y0207377D01*
X0330526Y0206666D01*
X0330386Y0206526D01*
X0325378Y0206526D01*
X0324597Y0207307D01*
X0320528Y0207307D01*
X0320345Y0207490D01*
X0314965Y0207490D01*
X0314207Y0206732D01*
X0314082Y0206732D01*
X0314082Y0206607D01*
X0313812Y0206337D01*
X0313812Y0202982D01*
X0313295Y0202982D01*
X0313295Y0206732D01*
X0311705Y0206732D01*
X0311350Y0206637D01*
X0311032Y0206454D01*
X0310773Y0206194D01*
X0310590Y0205877D01*
X0310495Y0205522D01*
X0310495Y0202982D01*
X0313294Y0202982D01*
X0313294Y0202195D01*
X0310495Y0202195D01*
X0310495Y0199655D01*
X0310590Y0199301D01*
X0310773Y0198983D01*
X0311032Y0198723D01*
X0311350Y0198540D01*
X0311705Y0198445D01*
X0313295Y0198445D01*
X0313295Y0202195D01*
X0313812Y0202195D01*
X0313812Y0199081D01*
X0314082Y0198810D01*
X0314082Y0198445D01*
X0314447Y0198445D01*
X0314965Y0197928D01*
X0319308Y0197928D01*
X0319366Y0197870D01*
X0324597Y0197870D01*
X0325378Y0198652D01*
X0330765Y0198652D01*
X0332242Y0198040D01*
X0336799Y0198040D01*
X0338515Y0198751D01*
X0338929Y0199165D01*
X0340757Y0199165D01*
X0343748Y0196173D01*
X0343748Y0187554D01*
X0341285Y0185091D01*
X0339937Y0185091D01*
X0339828Y0185353D01*
X0338515Y0186666D01*
X0336799Y0187377D01*
X0332242Y0187377D01*
X0330526Y0186666D01*
X0329213Y0185353D01*
X0328502Y0183637D01*
X0328502Y0181780D01*
X0329213Y0180064D01*
X0330526Y0178751D01*
X0332242Y0178040D01*
X0334891Y0178040D01*
X0334976Y0178005D01*
X0343458Y0178005D01*
X0345262Y0179046D02*
X0358697Y0179046D01*
X0359483Y0179832D02*
X0346048Y0179832D01*
X0348406Y0182190D02*
X0396389Y0182190D01*
X0396389Y0182976D02*
X0349192Y0182976D01*
X0349703Y0183762D02*
X0396389Y0183762D01*
X0396389Y0184548D02*
X0350028Y0184548D01*
X0350047Y0185334D02*
X0396389Y0185334D01*
X0396389Y0186120D02*
X0350000Y0186120D01*
X0349674Y0186906D02*
X0396389Y0186906D01*
X0396389Y0187692D02*
X0349260Y0187692D01*
X0349260Y0188477D02*
X0396389Y0188477D01*
X0396389Y0189263D02*
X0349260Y0189263D01*
X0349260Y0190049D02*
X0396389Y0190049D01*
X0396389Y0190835D02*
X0349260Y0190835D01*
X0349260Y0191621D02*
X0396389Y0191621D01*
X0396389Y0192407D02*
X0349260Y0192407D01*
X0349260Y0193193D02*
X0396389Y0193193D01*
X0396389Y0193979D02*
X0349260Y0193979D01*
X0349260Y0194765D02*
X0381962Y0194765D01*
X0383537Y0194112D02*
X0380342Y0195435D01*
X0377897Y0197881D01*
X0376574Y0201076D01*
X0376574Y0204534D01*
X0377897Y0207729D01*
X0380342Y0210174D01*
X0383537Y0211498D01*
X0386996Y0211498D01*
X0390191Y0210174D01*
X0392636Y0207729D01*
X0393959Y0204534D01*
X0393959Y0201076D01*
X0392636Y0197881D01*
X0390191Y0195435D01*
X0386996Y0194112D01*
X0383537Y0194112D01*
X0380227Y0195551D02*
X0349260Y0195551D01*
X0349423Y0196337D02*
X0379441Y0196337D01*
X0378655Y0197122D02*
X0349798Y0197122D01*
X0350047Y0197908D02*
X0377886Y0197908D01*
X0377560Y0198694D02*
X0350047Y0198694D01*
X0349904Y0199480D02*
X0377234Y0199480D01*
X0376909Y0200266D02*
X0349578Y0200266D01*
X0348892Y0201052D02*
X0376583Y0201052D01*
X0376574Y0201838D02*
X0348106Y0201838D01*
X0347320Y0202624D02*
X0376574Y0202624D01*
X0376574Y0203410D02*
X0346534Y0203410D01*
X0345748Y0204196D02*
X0376574Y0204196D01*
X0376759Y0204982D02*
X0344962Y0204982D01*
X0344098Y0205768D02*
X0377085Y0205768D01*
X0377410Y0206553D02*
X0338628Y0206553D01*
X0336890Y0207339D02*
X0377736Y0207339D01*
X0378293Y0208125D02*
X0135839Y0208125D01*
X0135839Y0207339D02*
X0272151Y0207339D01*
X0270413Y0206553D02*
X0266982Y0206553D01*
X0267767Y0205768D02*
X0269627Y0205768D01*
X0260974Y0206553D02*
X0135839Y0206553D01*
X0135839Y0205768D02*
X0260188Y0205768D01*
X0260025Y0204982D02*
X0135839Y0204982D01*
X0135839Y0204196D02*
X0260025Y0204196D01*
X0260025Y0203410D02*
X0135694Y0203410D01*
X0135256Y0202624D02*
X0260025Y0202624D01*
X0260025Y0201838D02*
X0134109Y0201838D01*
X0137327Y0198694D02*
X0146910Y0198694D01*
X0146124Y0197908D02*
X0138171Y0197908D01*
X0138711Y0197122D02*
X0145338Y0197122D01*
X0145116Y0196337D02*
X0139037Y0196337D01*
X0142708Y0184548D02*
X0217790Y0184548D01*
X0223549Y0184548D02*
X0257453Y0184548D01*
X0256894Y0185334D02*
X0258239Y0185334D01*
X0257999Y0186120D02*
X0259025Y0186120D01*
X0258630Y0186906D02*
X0259811Y0186906D01*
X0260597Y0187692D02*
X0258955Y0187692D01*
X0259000Y0188477D02*
X0261383Y0188477D01*
X0262169Y0189263D02*
X0258912Y0189263D01*
X0258587Y0190049D02*
X0263273Y0190049D01*
X0264548Y0190835D02*
X0257894Y0190835D01*
X0256781Y0191621D02*
X0263762Y0191621D01*
X0262976Y0192407D02*
X0257275Y0192407D01*
X0257366Y0193193D02*
X0262190Y0193193D01*
X0261543Y0193979D02*
X0257366Y0193979D01*
X0257366Y0194765D02*
X0261222Y0194765D01*
X0261222Y0195551D02*
X0257366Y0195551D01*
X0257366Y0196337D02*
X0261222Y0196337D01*
X0261222Y0197122D02*
X0257366Y0197122D01*
X0257187Y0197908D02*
X0261222Y0197908D01*
X0261222Y0198694D02*
X0256401Y0198694D01*
X0260550Y0199480D02*
X0247787Y0199480D01*
X0248573Y0198694D02*
X0248894Y0198694D01*
X0242508Y0199480D02*
X0237787Y0199480D01*
X0238573Y0198694D02*
X0241722Y0198694D01*
X0240936Y0197908D02*
X0239359Y0197908D01*
X0239816Y0197122D02*
X0240479Y0197122D01*
X0240479Y0196337D02*
X0239816Y0196337D01*
X0239816Y0195551D02*
X0240479Y0195551D01*
X0240479Y0194765D02*
X0239816Y0194765D01*
X0239816Y0193979D02*
X0240479Y0193979D01*
X0240870Y0193193D02*
X0239425Y0193193D01*
X0238640Y0192407D02*
X0241655Y0192407D01*
X0242441Y0191621D02*
X0237854Y0191621D01*
X0231722Y0198694D02*
X0231037Y0198694D01*
X0230213Y0199480D02*
X0232508Y0199480D01*
X0225082Y0199480D02*
X0206537Y0199480D01*
X0207323Y0198694D02*
X0207644Y0198694D01*
X0201258Y0199480D02*
X0196537Y0199480D01*
X0197323Y0198694D02*
X0200472Y0198694D01*
X0199686Y0197908D02*
X0198109Y0197908D01*
X0198566Y0197122D02*
X0199229Y0197122D01*
X0199229Y0196337D02*
X0198566Y0196337D01*
X0198566Y0195551D02*
X0199229Y0195551D01*
X0199229Y0194765D02*
X0198566Y0194765D01*
X0198566Y0193979D02*
X0199229Y0193979D01*
X0199620Y0193193D02*
X0198175Y0193193D01*
X0197390Y0192407D02*
X0200405Y0192407D01*
X0191258Y0199480D02*
X0188963Y0199480D01*
X0189787Y0198694D02*
X0190472Y0198694D01*
X0183832Y0199480D02*
X0161537Y0199480D01*
X0162323Y0198694D02*
X0162644Y0198694D01*
X0170776Y0198694D02*
X0183008Y0198694D01*
X0182362Y0197908D02*
X0171428Y0197908D01*
X0171428Y0197122D02*
X0182037Y0197122D01*
X0181754Y0196337D02*
X0171428Y0196337D01*
X0171428Y0195551D02*
X0181754Y0195551D01*
X0181754Y0194765D02*
X0171428Y0194765D01*
X0171428Y0193979D02*
X0182009Y0193979D01*
X0182334Y0193193D02*
X0171428Y0193193D01*
X0171025Y0192407D02*
X0182941Y0192407D01*
X0162264Y0191621D02*
X0162229Y0191621D01*
X0161991Y0190835D02*
X0161443Y0190835D01*
X0143744Y0182190D02*
X0255095Y0182190D01*
X0254310Y0181404D02*
X0144089Y0181404D01*
X0144434Y0180618D02*
X0253524Y0180618D01*
X0252738Y0179832D02*
X0144780Y0179832D01*
X0145125Y0179046D02*
X0251952Y0179046D01*
X0255881Y0182976D02*
X0143398Y0182976D01*
X0143053Y0183762D02*
X0256667Y0183762D01*
X0267627Y0195551D02*
X0269411Y0195551D01*
X0270196Y0196337D02*
X0266841Y0196337D01*
X0266734Y0197122D02*
X0271628Y0197122D01*
X0270662Y0198694D02*
X0266734Y0198694D01*
X0266734Y0197908D02*
X0319327Y0197908D01*
X0314082Y0198694D02*
X0313295Y0198694D01*
X0313295Y0199480D02*
X0313812Y0199480D01*
X0313812Y0200266D02*
X0313295Y0200266D01*
X0313295Y0201052D02*
X0313812Y0201052D01*
X0313812Y0201838D02*
X0313295Y0201838D01*
X0313294Y0202624D02*
X0280539Y0202624D01*
X0280539Y0203410D02*
X0310495Y0203410D01*
X0310495Y0204196D02*
X0280308Y0204196D01*
X0279982Y0204982D02*
X0310495Y0204982D01*
X0310560Y0205768D02*
X0279414Y0205768D01*
X0278628Y0206553D02*
X0311205Y0206553D01*
X0313295Y0206553D02*
X0314029Y0206553D01*
X0313812Y0205768D02*
X0313295Y0205768D01*
X0313295Y0204982D02*
X0313812Y0204982D01*
X0313812Y0204196D02*
X0313295Y0204196D01*
X0313295Y0203410D02*
X0313812Y0203410D01*
X0310495Y0201838D02*
X0280539Y0201838D01*
X0280238Y0201052D02*
X0310495Y0201052D01*
X0310495Y0200266D02*
X0279912Y0200266D01*
X0279245Y0199480D02*
X0310541Y0199480D01*
X0311083Y0198694D02*
X0278379Y0198694D01*
X0277413Y0197122D02*
X0331628Y0197122D01*
X0330196Y0196337D02*
X0278844Y0196337D01*
X0279630Y0195551D02*
X0329411Y0195551D01*
X0324635Y0197908D02*
X0342013Y0197908D01*
X0342799Y0197122D02*
X0337413Y0197122D01*
X0338844Y0196337D02*
X0343585Y0196337D01*
X0343748Y0195551D02*
X0339630Y0195551D01*
X0340072Y0194765D02*
X0343748Y0194765D01*
X0343748Y0193979D02*
X0340397Y0193979D01*
X0340539Y0193193D02*
X0343748Y0193193D01*
X0343748Y0192407D02*
X0340539Y0192407D01*
X0340473Y0191621D02*
X0343748Y0191621D01*
X0343748Y0190835D02*
X0340148Y0190835D01*
X0339814Y0190049D02*
X0343748Y0190049D01*
X0343748Y0189263D02*
X0339028Y0189263D01*
X0337856Y0188477D02*
X0343748Y0188477D01*
X0343748Y0187692D02*
X0320909Y0187692D01*
X0321694Y0188477D02*
X0331185Y0188477D01*
X0330013Y0189263D02*
X0322480Y0189263D01*
X0320123Y0186906D02*
X0331104Y0186906D01*
X0329980Y0186120D02*
X0319337Y0186120D01*
X0318551Y0185334D02*
X0329205Y0185334D01*
X0328879Y0184548D02*
X0280162Y0184548D01*
X0280487Y0183762D02*
X0328554Y0183762D01*
X0328502Y0182976D02*
X0280539Y0182976D01*
X0280539Y0182190D02*
X0328502Y0182190D01*
X0328658Y0181404D02*
X0280383Y0181404D01*
X0280058Y0180618D02*
X0328983Y0180618D01*
X0329444Y0179832D02*
X0312104Y0179832D01*
X0312952Y0179046D02*
X0330230Y0179046D01*
X0331709Y0178261D02*
X0313803Y0178261D01*
X0322317Y0170401D02*
X0329073Y0170401D01*
X0329661Y0169616D02*
X0323169Y0169616D01*
X0324020Y0168830D02*
X0330447Y0168830D01*
X0332232Y0168044D02*
X0324872Y0168044D01*
X0325723Y0167258D02*
X0331955Y0167258D01*
X0330332Y0166472D02*
X0326574Y0166472D01*
X0327426Y0165686D02*
X0329546Y0165686D01*
X0324732Y0157827D02*
X0396389Y0157827D01*
X0396389Y0147610D02*
X0325571Y0147610D01*
X0340294Y0171187D02*
X0356372Y0171187D01*
X0356253Y0171973D02*
X0340539Y0171973D01*
X0340539Y0172759D02*
X0356253Y0172759D01*
X0356253Y0173545D02*
X0340539Y0173545D01*
X0340252Y0174331D02*
X0362253Y0174331D01*
X0362253Y0175117D02*
X0363041Y0175117D01*
X0363041Y0175903D02*
X0362253Y0175903D01*
X0362253Y0176689D02*
X0363041Y0176689D01*
X0363041Y0177475D02*
X0362253Y0177475D01*
X0362253Y0178261D02*
X0363041Y0178261D01*
X0363041Y0179046D02*
X0362253Y0179046D01*
X0362253Y0179832D02*
X0363041Y0179832D01*
X0356339Y0176689D02*
X0338460Y0176689D01*
X0339278Y0175903D02*
X0356253Y0175903D01*
X0356253Y0175117D02*
X0339926Y0175117D01*
X0339836Y0185334D02*
X0341528Y0185334D01*
X0342313Y0186120D02*
X0339061Y0186120D01*
X0337937Y0186906D02*
X0343099Y0186906D01*
X0341227Y0198694D02*
X0338379Y0198694D01*
X0330413Y0206553D02*
X0325350Y0206553D01*
X0320496Y0207339D02*
X0332151Y0207339D01*
X0314814Y0207339D02*
X0276890Y0207339D01*
X0269796Y0199480D02*
X0267405Y0199480D01*
X0280072Y0194765D02*
X0320543Y0194765D01*
X0319401Y0193979D02*
X0280397Y0193979D01*
X0280539Y0193193D02*
X0318615Y0193193D01*
X0317829Y0192407D02*
X0280539Y0192407D01*
X0280473Y0191621D02*
X0317043Y0191621D01*
X0316257Y0190835D02*
X0280148Y0190835D01*
X0224977Y0191621D02*
X0224222Y0191621D01*
X0224191Y0192407D02*
X0216025Y0192407D01*
X0216116Y0193193D02*
X0223584Y0193193D01*
X0223259Y0193979D02*
X0216116Y0193979D01*
X0216116Y0194765D02*
X0223004Y0194765D01*
X0223004Y0195551D02*
X0216116Y0195551D01*
X0216116Y0196337D02*
X0223004Y0196337D01*
X0223287Y0197122D02*
X0216116Y0197122D01*
X0215937Y0197908D02*
X0223612Y0197908D01*
X0224258Y0198694D02*
X0215151Y0198694D01*
X0215531Y0191621D02*
X0217117Y0191621D01*
X0148169Y0159399D02*
X0060445Y0159399D01*
X0061231Y0160185D02*
X0147823Y0160185D01*
X0147478Y0160970D02*
X0062017Y0160970D01*
X0062060Y0161756D02*
X0147132Y0161756D01*
X0146787Y0162542D02*
X0058360Y0162542D01*
X0058360Y0161756D02*
X0057572Y0161756D01*
X0057572Y0160970D02*
X0058360Y0160970D01*
X0058360Y0160185D02*
X0057572Y0160185D01*
X0057572Y0159399D02*
X0058360Y0159399D01*
X0055487Y0159399D02*
X0029804Y0159399D01*
X0030265Y0160185D02*
X0054701Y0160185D01*
X0053915Y0160970D02*
X0030554Y0160970D01*
X0030701Y0161756D02*
X0053872Y0161756D01*
X0053872Y0163328D02*
X0030613Y0163328D01*
X0030372Y0164114D02*
X0053872Y0164114D01*
X0054368Y0164900D02*
X0029969Y0164900D01*
X0029342Y0165686D02*
X0055154Y0165686D01*
X0055939Y0166472D02*
X0028389Y0166472D01*
X0023463Y0167258D02*
X0009532Y0167258D01*
X0009532Y0168044D02*
X0022207Y0168044D01*
X0021421Y0168830D02*
X0009532Y0168830D01*
X0009532Y0169616D02*
X0020914Y0169616D01*
X0020588Y0170401D02*
X0009532Y0170401D01*
X0009532Y0171187D02*
X0020271Y0171187D01*
X0020271Y0171973D02*
X0009532Y0171973D01*
X0009532Y0172759D02*
X0020271Y0172759D01*
X0020348Y0173545D02*
X0009532Y0173545D01*
X0009532Y0174331D02*
X0020674Y0174331D01*
X0020999Y0175117D02*
X0009532Y0175117D01*
X0009532Y0175903D02*
X0021628Y0175903D01*
X0022414Y0176689D02*
X0009532Y0176689D01*
X0009532Y0177475D02*
X0023962Y0177475D01*
X0009532Y0178261D02*
X0055812Y0178261D01*
X0055026Y0179046D02*
X0009532Y0179046D01*
X0009532Y0179832D02*
X0054241Y0179832D01*
X0053455Y0180618D02*
X0009532Y0180618D01*
X0009532Y0181404D02*
X0053298Y0181404D01*
X0053298Y0182190D02*
X0009532Y0182190D01*
X0009532Y0182976D02*
X0053298Y0182976D01*
X0053298Y0183762D02*
X0009532Y0183762D01*
X0009532Y0184548D02*
X0053298Y0184548D01*
X0053989Y0185334D02*
X0009532Y0185334D01*
X0009532Y0186120D02*
X0054774Y0186120D01*
X0055560Y0186906D02*
X0009532Y0186906D01*
X0009532Y0166472D02*
X0023177Y0166472D01*
X0022224Y0165686D02*
X0009532Y0165686D01*
X0009532Y0164900D02*
X0021596Y0164900D01*
X0021193Y0164114D02*
X0009532Y0164114D01*
X0009532Y0163328D02*
X0020953Y0163328D01*
X0025389Y0160970D02*
X0026177Y0160970D01*
X0026177Y0160185D02*
X0025389Y0160185D01*
X0025389Y0159399D02*
X0026177Y0159399D01*
X0026177Y0158613D02*
X0025389Y0158613D01*
X0025389Y0157827D02*
X0026177Y0157827D01*
X0027951Y0157827D02*
X0148859Y0157827D01*
X0148514Y0158613D02*
X0029115Y0158613D01*
X0060779Y0165686D02*
X0145406Y0165686D01*
X0145751Y0164900D02*
X0061564Y0164900D01*
X0062060Y0164114D02*
X0146096Y0164114D01*
X0146442Y0163328D02*
X0062060Y0163328D01*
X0135839Y0208911D02*
X0379079Y0208911D01*
X0379865Y0209697D02*
X0135839Y0209697D01*
X0135839Y0210483D02*
X0381087Y0210483D01*
X0382985Y0211269D02*
X0135611Y0211269D01*
X0135056Y0212055D02*
X0396389Y0212055D01*
X0396389Y0211269D02*
X0387548Y0211269D01*
X0389446Y0210483D02*
X0396389Y0210483D01*
X0396389Y0209697D02*
X0390668Y0209697D01*
X0391454Y0208911D02*
X0396389Y0208911D01*
X0396389Y0208125D02*
X0392240Y0208125D01*
X0392797Y0207339D02*
X0396389Y0207339D01*
X0396389Y0206553D02*
X0393123Y0206553D01*
X0393448Y0205768D02*
X0396389Y0205768D01*
X0396389Y0204982D02*
X0393774Y0204982D01*
X0393959Y0204196D02*
X0396389Y0204196D01*
X0396389Y0203410D02*
X0393959Y0203410D01*
X0393959Y0202624D02*
X0396389Y0202624D01*
X0396389Y0201838D02*
X0393959Y0201838D01*
X0393950Y0201052D02*
X0396389Y0201052D01*
X0396389Y0200266D02*
X0393624Y0200266D01*
X0393298Y0199480D02*
X0396389Y0199480D01*
X0396389Y0198694D02*
X0392973Y0198694D01*
X0392647Y0197908D02*
X0396389Y0197908D01*
X0396389Y0197122D02*
X0391878Y0197122D01*
X0391092Y0196337D02*
X0396389Y0196337D01*
X0396389Y0195551D02*
X0390306Y0195551D01*
X0388571Y0194765D02*
X0396389Y0194765D01*
X0373172Y0127962D02*
X0357556Y0127962D01*
X0357466Y0128052D02*
X0356164Y0128052D01*
X0356164Y0124352D01*
X0359864Y0124352D01*
X0359864Y0125654D01*
X0357466Y0128052D01*
X0358342Y0127176D02*
X0372386Y0127176D01*
X0371600Y0126390D02*
X0359128Y0126390D01*
X0359864Y0125604D02*
X0371102Y0125604D01*
X0371102Y0124819D02*
X0359864Y0124819D01*
X0359864Y0123247D02*
X0371102Y0123247D01*
X0371102Y0124033D02*
X0356164Y0124033D01*
X0356164Y0124819D02*
X0355377Y0124819D01*
X0355377Y0125604D02*
X0356164Y0125604D01*
X0356164Y0126390D02*
X0355377Y0126390D01*
X0355377Y0127176D02*
X0356164Y0127176D01*
X0356164Y0127962D02*
X0355377Y0127962D01*
X0359864Y0122461D02*
X0371102Y0122461D01*
X0371452Y0121675D02*
X0359276Y0121675D01*
X0358490Y0120889D02*
X0372238Y0120889D01*
X0181300Y0133464D02*
X0180241Y0133464D01*
X0180566Y0134249D02*
X0180975Y0134249D01*
D32*
X0134249Y0150601D03*
X0160820Y0177172D03*
X0220669Y0188421D03*
X0227403Y0203743D03*
X0263978Y0202805D03*
X0284609Y0198429D03*
X0285234Y0182486D03*
X0290861Y0167794D03*
X0246472Y0181548D03*
X0293675Y0129657D03*
X0199895Y0077140D03*
X0129560Y0049318D03*
X0154255Y0024623D03*
X0203959Y0024936D03*
X0293675Y0024936D03*
X0293987Y0065261D03*
X0366510Y0024623D03*
X0393394Y0048381D03*
X0393394Y0130907D03*
X0393394Y0184049D03*
X0362759Y0211558D03*
X0049534Y0210933D03*
X0012647Y0178422D03*
X0018899Y0092145D03*
X0012022Y0024623D03*
X0054536Y0024310D03*
X0095174Y0024623D03*
D33*
X0192080Y0093082D03*
X0170823Y0099334D03*
X0245534Y0089019D03*
X0135187Y0195303D03*
D34*
X0145770Y0138333D02*
X0145770Y0127708D01*
X0135770Y0127708D02*
X0135770Y0135833D01*
X0125770Y0135833D02*
X0125770Y0127708D01*
X0115770Y0127708D02*
X0115770Y0135833D01*
X0105770Y0135833D02*
X0105770Y0127708D01*
X0095770Y0127708D02*
X0095770Y0135833D01*
X0085770Y0135833D02*
X0085770Y0127708D01*
X0075770Y0127708D02*
X0075770Y0135833D01*
X0065770Y0135833D02*
X0065770Y0127708D01*
X0155770Y0127708D02*
X0155770Y0138333D01*
X0165770Y0138333D02*
X0165770Y0127708D01*
X0175770Y0127708D02*
X0175770Y0135833D01*
X0185770Y0135833D02*
X0185770Y0127708D01*
X0195770Y0127708D02*
X0195770Y0135833D01*
X0205770Y0135833D02*
X0205770Y0127708D01*
X0215770Y0127708D02*
X0215770Y0135833D01*
X0225770Y0135833D02*
X0225770Y0127708D01*
X0235770Y0127708D02*
X0235770Y0135833D01*
X0245770Y0135833D02*
X0245770Y0127708D01*
X0335681Y0181548D02*
X0342753Y0181548D01*
X0346504Y0185299D01*
X0346504Y0198429D02*
X0342224Y0202708D01*
X0334520Y0202708D01*
X0260145Y0041687D02*
X0260145Y0035533D01*
X0259744Y0035533D01*
X0241395Y0035533D02*
X0241395Y0041687D01*
X0241395Y0035533D02*
X0240744Y0035533D01*
D35*
X0295238Y0077765D03*
X0205209Y0100272D03*
X0297113Y0137784D03*
D36*
X0285860Y0127781D02*
X0320932Y0092708D01*
X0334520Y0092708D01*
X0318370Y0084642D02*
X0330304Y0072708D01*
X0334520Y0072708D01*
X0334520Y0062708D02*
X0330926Y0062708D01*
X0315244Y0078390D01*
X0315244Y0082767D01*
X0300239Y0097771D01*
X0274606Y0097771D01*
X0267729Y0097771D01*
X0255850Y0109650D01*
X0241470Y0109650D01*
X0133311Y0109650D01*
X0125808Y0117153D01*
X0116430Y0117153D01*
X0112679Y0120904D01*
X0112679Y0120904D01*
X0105875Y0127708D01*
X0105770Y0127708D01*
X0095770Y0127708D02*
X0095770Y0123433D01*
X0098925Y0120279D01*
X0108303Y0120279D01*
X0114555Y0114027D01*
X0124558Y0114027D01*
X0132060Y0106524D01*
X0241470Y0106524D01*
X0247097Y0106524D01*
X0265853Y0087768D01*
X0274606Y0087768D01*
X0304616Y0087768D01*
X0312118Y0080266D01*
X0312118Y0074639D01*
X0334049Y0052708D01*
X0334520Y0052708D01*
X0295238Y0077765D02*
X0268354Y0077765D01*
X0265228Y0077765D01*
X0242721Y0100272D01*
X0205209Y0100272D01*
X0192761Y0084425D02*
X0173516Y0103670D01*
X0130497Y0103670D01*
X0123267Y0110901D01*
X0112679Y0110901D01*
X0106427Y0117153D01*
X0096424Y0117153D01*
X0087335Y0126241D01*
X0085772Y0127605D01*
X0085770Y0127708D01*
X0074343Y0143550D02*
X0067257Y0136463D01*
X0065770Y0135833D01*
X0074343Y0143550D02*
X0139025Y0143550D01*
X0155770Y0148460D02*
X0155770Y0138333D01*
X0155770Y0148460D02*
X0135187Y0195303D01*
X0159210Y0195205D02*
X0159383Y0195518D01*
X0166469Y0195518D01*
X0166710Y0195426D01*
X0203897Y0195517D02*
X0204265Y0195518D01*
X0211351Y0195518D01*
X0211397Y0195114D01*
X0245147Y0195517D02*
X0245603Y0195518D01*
X0252099Y0195518D01*
X0252647Y0195114D01*
X0263978Y0127781D02*
X0274606Y0127781D01*
X0285860Y0127781D01*
X0290861Y0117778D02*
X0274606Y0117778D01*
X0258351Y0117778D01*
X0256475Y0115902D01*
X0241470Y0115902D01*
X0137062Y0115902D01*
X0125770Y0127194D01*
X0125770Y0127194D01*
X0125770Y0127708D01*
X0120807Y0121529D02*
X0122682Y0120279D01*
X0127684Y0120279D01*
X0135186Y0112776D01*
X0241470Y0112776D01*
X0262102Y0112776D01*
X0267104Y0107775D01*
X0273981Y0107775D01*
X0273981Y0107775D01*
X0295238Y0107775D01*
X0318370Y0084642D01*
X0325931Y0082708D02*
X0290861Y0117778D01*
X0263978Y0127781D02*
X0255225Y0119028D01*
X0241471Y0119028D01*
X0140188Y0119028D01*
X0135770Y0123446D01*
X0135770Y0127708D01*
X0120807Y0121529D02*
X0115770Y0126565D01*
X0115770Y0127191D01*
X0115770Y0127708D01*
X0070209Y0102211D02*
X0069833Y0102487D01*
X0070209Y0102211D02*
X0070209Y0098529D01*
X0079520Y0089219D01*
X0084973Y0089219D01*
X0085534Y0088958D01*
X0085564Y0089219D01*
X0092998Y0089219D01*
X0099424Y0095646D01*
X0099424Y0100405D01*
X0100918Y0102211D01*
X0115439Y0102211D01*
X0116968Y0100682D01*
X0162332Y0100682D01*
X0186788Y0076227D01*
X0186548Y0076227D01*
X0194225Y0068550D01*
X0195770Y0067708D01*
X0185770Y0067708D02*
X0184186Y0068550D01*
X0178246Y0074490D01*
X0163724Y0074490D01*
X0160737Y0077477D01*
X0096750Y0077477D01*
X0088447Y0083904D01*
X0085564Y0083904D01*
X0085534Y0083958D01*
X0084973Y0084495D01*
X0076498Y0084495D01*
X0058781Y0102211D01*
X0059580Y0102211D01*
X0059208Y0102487D01*
X0085564Y0094534D02*
X0085534Y0093958D01*
X0085564Y0094534D02*
X0092060Y0094534D01*
X0093241Y0095715D01*
X0106007Y0093958D02*
X0106233Y0093944D01*
X0122769Y0093944D01*
X0131036Y0085676D01*
X0131395Y0085208D01*
X0133989Y0080951D02*
X0138123Y0085085D01*
X0138270Y0085208D01*
X0133989Y0080951D02*
X0122769Y0080951D01*
X0115091Y0088629D01*
X0106233Y0088629D01*
X0106007Y0088958D01*
X0106233Y0098668D02*
X0106007Y0098958D01*
X0106233Y0098668D02*
X0112729Y0098668D01*
X0113320Y0098077D01*
X0150628Y0074490D02*
X0155943Y0068550D01*
X0155770Y0067708D01*
X0150628Y0074490D02*
X0049298Y0074490D01*
X0048707Y0073274D01*
X0025328Y0073274D01*
X0025145Y0072708D01*
X0192761Y0084425D02*
X0237405Y0084425D01*
X0258595Y0063235D01*
X0273950Y0063235D01*
X0274520Y0062708D01*
X0325931Y0082708D02*
X0334520Y0082708D01*
D37*
X0139025Y0143550D03*
X0113320Y0098077D03*
X0093241Y0095715D03*
M02*
